STARTFONT 2.1
COMMENT
COMMENT Converted from OpenType font "BeVietnam-Bold.ttf" by "otf2bdf 3.0".
COMMENT
FONT -FreeType-Be Vietnam-Bold-R-Normal--50-360-100-100-P-247-ISO10646-1
SIZE 36 100 100
FONTBOUNDINGBOX 78 70 -23 -13
STARTPROPERTIES 19
FOUNDRY "FreeType"
FAMILY_NAME "Be Vietnam"
WEIGHT_NAME "Bold"
SLANT "R"
SETWIDTH_NAME "Normal"
ADD_STYLE_NAME ""
PIXEL_SIZE 50
POINT_SIZE 360
RESOLUTION_X 100
RESOLUTION_Y 100
SPACING "P"
AVERAGE_WIDTH 247
CHARSET_REGISTRY "ISO10646"
CHARSET_ENCODING "1"
FONT_ASCENT 59
FONT_DESCENT 13
COPYRIGHT "Copyright 2019 The Bevietnam Project Authors (https://github.com/bettergui/beVietnam)"
_OTF_FONTFILE "BeVietnam-Bold.ttf"
_OTF_PSNAME "BeVietnam-Bold"
ENDPROPERTIES
CHARS 445
STARTCHAR 000D
ENCODING 13
SWIDTH 600 0
DWIDTH 30 0
BBX 0 0 0 0
BITMAP
ENDCHAR
STARTCHAR 0020
ENCODING 32
SWIDTH 220 0
DWIDTH 11 0
BBX 0 0 0 0
BITMAP
ENDCHAR
STARTCHAR 0021
ENCODING 33
SWIDTH 260 0
DWIDTH 13 0
BBX 8 37 3 -1
BITMAP
FF
FF
FF
FF
FE
FE
7E
7E
7E
7E
7E
7E
7E
7E
7E
7E
7E
7E
7E
7E
7E
7E
7E
7E
7C
00
00
00
00
00
3C
7E
FE
FF
FF
7E
7E
ENDCHAR
STARTCHAR 0022
ENCODING 34
SWIDTH 520 0
DWIDTH 26 0
BBX 20 15 3 24
BITMAP
0C00E0
1C01E0
780380
700700
E00700
E00E00
E00E00
F00F00
FE0FE0
FF0FF0
FF0FF0
FF0FF0
FF07F0
7E07F0
180180
ENDCHAR
STARTCHAR 0023
ENCODING 35
SWIDTH 880 0
DWIDTH 44 0
BBX 37 35 4 0
BITMAP
0007E03F00
0007C03E00
000FC07E00
000FC07E00
000FC07E00
000FC07C00
001F80FC00
001F80FC00
001F80FC00
0FFFFFFFF8
1FFFFFFFF0
1FFFFFFFF0
1FFFFFFFF0
1FFFFFFFF0
003F01F800
003E01F000
007E03F000
007E03F000
007E03F000
007E03E000
00FC07E000
00FC07E000
7FFFFFFFC0
7FFFFFFFC0
FFFFFFFF80
FFFFFFFF80
FFFFFFFF80
01F80FC000
01F80FC000
01F01F8000
03F01F8000
03F01F8000
03F01F8000
03E01F0000
07E03F0000
ENDCHAR
STARTCHAR 0024
ENCODING 36
SWIDTH 580 0
DWIDTH 29 0
BBX 26 43 2 -4
BITMAP
000C0000
000C0000
000C0000
000C0000
003F0000
01FFF000
07FFF800
0FFFFC00
1FFFFE00
3FFFFF00
7FCCFF80
7F8C7F80
7F0C3F80
7F0C3F80
7F0C1FC0
7F0C0000
7F8C0000
7FCC0000
3FFC0000
3FFF8000
1FFFF000
0FFFFC00
03FFFE00
007FFF00
000FFF80
000CFFC0
000C3FC0
000C1FC0
FE0C1FC0
FE0C0FC0
FF0C1FC0
7F8C1FC0
7FCC3FC0
3FFFFF80
3FFFFF80
1FFFFF00
0FFFFE00
03FFF800
00FFE000
000C0000
000C0000
000C0000
000C0000
ENDCHAR
STARTCHAR 0025
ENCODING 37
SWIDTH 780 0
DWIDTH 39 0
BBX 36 36 2 0
BITMAP
1FE000FC00
3FF001F800
7FF001F800
7DF803F000
F87803F000
F87807E000
F87807C000
F8780FC000
F8780F8000
FCF81F8000
7FF81F0000
7FF03F0000
3FE03E0000
0F807E0000
00007C0000
0000FC0000
0000F80000
0001F80000
0001F00000
0003F00000
0003E00000
0007E01F00
000FC07FC0
000FC0FFE0
001F81FFE0
001F81F1F0
003F01E1F0
003F01E0F0
007E01E0F0
007E01E1F0
00FC01F1F0
00FC01FBE0
01F800FFE0
01F800FFC0
03F0007F80
0000000400
ENDCHAR
STARTCHAR 0026
ENCODING 38
SWIDTH 660 0
DWIDTH 33 0
BBX 31 36 2 0
BITMAP
00070000
007FF000
01FFFC00
03FFFE00
07FFFF00
07FFFF00
0FF8FF80
0FE07F80
0FE03F80
0FE03F80
0FE03F80
0FE00000
0FE00000
07F00000
07F80000
03FC0000
01FE07F0
00FF07E0
07FF0FE0
0FFF8FC0
1FFFDFC0
3FFFFF80
7F0FFF00
7E07FF00
FE03FE00
FE01FE00
FE01FE00
FE00FF00
FE01FF80
FF03FFC0
FFFFFFE0
7FFFEFF0
7FFFC7F8
3FFF83F8
1FFF03FC
07FC01FE
ENDCHAR
STARTCHAR 0027
ENCODING 39
SWIDTH 280 0
DWIDTH 14 0
BBX 8 15 4 26
BITMAP
3C
FE
FE
FF
FF
FF
7F
0F
07
07
0E
0E
3C
78
60
ENDCHAR
STARTCHAR 0028
ENCODING 40
SWIDTH 480 0
DWIDTH 24 0
BBX 15 51 5 -11
BITMAP
000C
003E
007C
00F8
01F0
01F0
03E0
07E0
07C0
0FC0
0FC0
1F80
1F80
3F80
3F00
3F00
7F00
7F00
7E00
7E00
7E00
FE00
FE00
FE00
FE00
FE00
FE00
FE00
FE00
FE00
7E00
7E00
7F00
7F00
7F00
3F00
3F00
3F80
1F80
1F80
0FC0
0FC0
07E0
03E0
03F0
01F0
00F8
0078
003C
001E
0004
ENDCHAR
STARTCHAR 0029
ENCODING 41
SWIDTH 540 0
DWIDTH 27 0
BBX 14 51 8 -11
BITMAP
E000
F000
7800
7C00
3E00
1F00
1F80
0F80
0FC0
07C0
07E0
07E0
03F0
03F0
03F8
03F8
01F8
01F8
01FC
01FC
01FC
01FC
00FC
00FC
00FC
00FC
00FC
00FC
01FC
01FC
01FC
01FC
01F8
01F8
01F8
03F8
03F0
03F0
07F0
07E0
07E0
0FC0
0FC0
1F80
1F00
3F00
3E00
7C00
F800
E000
4000
ENDCHAR
STARTCHAR 002A
ENCODING 42
SWIDTH 500 0
DWIDTH 25 0
BBX 17 18 4 20
BITMAP
01E000
01E000
01E000
21E100
79E780
FDEF80
7FFF80
1FFE00
07F800
07F800
1FFE00
7FFF80
7DEF80
71E380
21E100
01E000
01E000
01E000
ENDCHAR
STARTCHAR 002B
ENCODING 43
SWIDTH 580 0
DWIDTH 29 0
BBX 21 21 4 5
BITMAP
00FC00
00FC00
00FC00
00FC00
00FC00
00FC00
00FC00
FFFFF8
FFFFF8
FFFFF8
FFFFF8
FFFFF8
FFFFF8
00FC00
00FC00
00FC00
00FC00
00FC00
00FC00
00FC00
00FC00
ENDCHAR
STARTCHAR 002C
ENCODING 44
SWIDTH 300 0
DWIDTH 15 0
BBX 9 16 3 -9
BITMAP
0800
3F00
7F80
7F80
FF80
7F80
7F80
1F80
0380
0380
0380
0780
0700
1E00
3C00
3000
ENDCHAR
STARTCHAR 002D
ENCODING 45
SWIDTH 580 0
DWIDTH 29 0
BBX 18 5 6 13
BITMAP
FFFFC0
FFFFC0
FFFFC0
FFFFC0
FFFFC0
ENDCHAR
STARTCHAR 002E
ENCODING 46
SWIDTH 320 0
DWIDTH 16 0
BBX 8 7 4 0
BITMAP
7E
7E
FF
FF
FF
7E
7E
ENDCHAR
STARTCHAR 002F
ENCODING 47
SWIDTH 520 0
DWIDTH 26 0
BBX 23 49 2 -10
BITMAP
00007E
0000FE
0000FC
0000FC
0001FC
0001F8
0003F8
0003F8
0003F0
0007F0
0007F0
0007E0
000FE0
000FE0
000FC0
001FC0
001F80
001F80
003F80
003F00
003F00
007F00
007E00
00FE00
00FE00
00FC00
01FC00
01FC00
01F800
03F800
03F000
03F000
07F000
07E000
07E000
0FE000
0FC000
1FC000
1FC000
1F8000
3F8000
3F8000
3F0000
7F0000
7F0000
7E0000
FE0000
FC0000
FC0000
ENDCHAR
STARTCHAR 0030
ENCODING 48
SWIDTH 620 0
DWIDTH 31 0
BBX 27 37 2 -1
BITMAP
001F0000
01FFF000
03FFF800
0FFFFE00
1FFFFE00
1FFFFF00
3FF1FF80
3FC07F80
7F803FC0
7F803FC0
7F001FC0
FF001FC0
FF001FE0
FF001FE0
FF001FE0
FF001FE0
FF001FE0
FF001FE0
FF001FE0
FF001FE0
FF001FE0
FF001FE0
FF001FE0
FF001FE0
FF001FE0
FF001FC0
7F003FC0
7F803FC0
7F803FC0
3FC07F80
3FF1FF80
1FFFFF00
0FFFFE00
0FFFFC00
03FFF800
01FFF000
001F0000
ENDCHAR
STARTCHAR 0031
ENCODING 49
SWIDTH 520 0
DWIDTH 26 0
BBX 21 35 4 0
BITMAP
01FC00
07FC00
0FFC00
1FFC00
3FFC00
7FFC00
FFFC00
FFFC00
FFFC00
FDFC00
F9FC00
F1FC00
C1FC00
81FC00
01FC00
01FC00
01FC00
01FC00
01FC00
01FC00
01FC00
01FC00
01FC00
01FC00
01FC00
01FC00
01FC00
01FC00
01FC00
FFFFF8
FFFFF8
FFFFF8
FFFFF8
FFFFF8
FFFFF8
ENDCHAR
STARTCHAR 0032
ENCODING 50
SWIDTH 580 0
DWIDTH 29 0
BBX 24 36 3 0
BITMAP
003C00
03FFC0
0FFFF0
1FFFF8
3FFFFC
3FFFFC
7FC3FE
7F00FE
FE007E
FE007F
FE007F
FE007F
FE007F
00007F
0000FE
0000FE
0001FC
0003FC
0007F8
000FF0
001FF0
003FE0
007F80
00FF00
03FE00
07FC00
0FF800
1FF000
3FC000
7F8000
FFFFFF
FFFFFF
FFFFFF
FFFFFF
FFFFFF
FFFFFF
ENDCHAR
STARTCHAR 0033
ENCODING 51
SWIDTH 580 0
DWIDTH 29 0
BBX 25 36 2 0
BITMAP
007F8000
03FFF000
07FFF800
0FFFFC00
1FFFFE00
3FFFFF00
3FC0FF00
7F807F80
7F003F80
7F003F80
00003F80
00003F80
00003F80
00007F00
0000FF00
003FFE00
003FFC00
003FF000
003FF800
003FFE00
0003FF00
00007F00
00003F80
00003F80
00001F80
00001F80
FE001F80
FF003F80
FF003F80
7F80FF80
7FFFFF00
3FFFFF00
1FFFFE00
0FFFFC00
07FFF800
01FFE000
ENDCHAR
STARTCHAR 0034
ENCODING 52
SWIDTH 600 0
DWIDTH 30 0
BBX 26 35 2 0
BITMAP
0007FC00
000FFC00
000FFC00
001FFC00
003FFC00
003FFC00
007FFC00
007FFC00
00FFFC00
01FDFC00
01FDFC00
03F9FC00
07F1FC00
07F1FC00
0FE1FC00
0FE1FC00
1FC1FC00
3F81FC00
3F81FC00
7F01FC00
FE01FC00
FFFFFFC0
FFFFFFC0
FFFFFFC0
FFFFFFC0
FFFFFFC0
FFFFFFC0
0001FC00
0001FC00
0001FC00
0001FC00
0001FC00
0001FC00
0001FC00
0001FC00
ENDCHAR
STARTCHAR 0035
ENCODING 53
SWIDTH 580 0
DWIDTH 29 0
BBX 25 35 3 0
BITMAP
7FFFFE00
7FFFFE00
7FFFFE00
7FFFFE00
7FFFFE00
7FFFFE00
7E000000
7C000000
FC000000
FC000000
FC000000
FC000000
FC7FE000
FCFFF000
FDFFFC00
FFFFFC00
FFFFFE00
FF81FF00
FF00FF00
FE007F00
00007F80
00003F80
00003F80
00003F80
00003F80
FE007F00
FE007F00
FF00FF00
7F81FF00
7FFFFE00
3FFFFC00
1FFFFC00
0FFFF800
07FFE000
01FF8000
ENDCHAR
STARTCHAR 0036
ENCODING 54
SWIDTH 580 0
DWIDTH 29 0
BBX 26 35 2 0
BITMAP
001F8000
003F8000
007F0000
007E0000
00FE0000
01FC0000
01F80000
03F80000
03F00000
07E00000
0FE00000
0FC00000
1F8FC000
1FBFF000
3F7FFC00
3FFFFE00
7FFFFF00
7FC1FF00
7F807F80
FF003F80
FE003F80
FE003F80
FE001F80
FE001FC0
FE001F80
FE003F80
FE003F80
7F003F80
7F807F80
3FE1FF00
3FFFFF00
1FFFFE00
0FFFFC00
03FFF000
00FFC000
ENDCHAR
STARTCHAR 0037
ENCODING 55
SWIDTH 520 0
DWIDTH 26 0
BBX 24 35 1 0
BITMAP
FFFFFF
FFFFFF
FFFFFF
FFFFFF
FFFFFF
FFFFFF
00007F
00007F
0000FE
0000FE
0001FC
0001FC
0003F8
0003F8
0007F0
0007F0
000FF0
000FE0
001FE0
001FC0
001FC0
003F80
003F80
007F00
007F00
00FE00
00FE00
01FE00
01FC00
03FC00
03F800
07F800
07F000
0FF000
0FE000
ENDCHAR
STARTCHAR 0038
ENCODING 56
SWIDTH 600 0
DWIDTH 30 0
BBX 25 37 3 -1
BITMAP
003A0000
03FFE000
07FFF000
1FFFFC00
3FFFFC00
3FFFFE00
7FC1FF00
7F007F00
7F007F00
7E003F00
FE003F00
7E003F00
7E003F00
7F007F00
3F00FE00
3FC1FE00
1FFFFC00
0FFFF800
0FFFF800
1FFFFC00
3FC1FE00
7F007F00
FE003F80
FE003F80
FE003F80
FC003F80
FE003F80
FE003F80
FE003F80
FF007F80
FF81FF80
7FFFFF00
3FFFFE00
3FFFFC00
0FFFF800
03FFE000
003E0000
ENDCHAR
STARTCHAR 0039
ENCODING 57
SWIDTH 580 0
DWIDTH 29 0
BBX 25 36 2 0
BITMAP
001E0000
01FFE000
07FFF000
0FFFFC00
1FFFFE00
3FFFFE00
7FC0FF00
7F807F80
7F003F80
FE003F80
FE001F80
FE001F80
FE001F80
FE001F80
FE001F80
FF003F80
7F003F80
7F807F80
3FE3FF80
3FFFFF00
1FFFFF00
0FFFFE00
07FE7E00
0078FC00
0001FC00
0003F800
0003F800
0007F000
000FE000
000FE000
001FC000
003F8000
007F8000
007F0000
00FE0000
01FE0000
ENDCHAR
STARTCHAR 003A
ENCODING 58
SWIDTH 320 0
DWIDTH 16 0
BBX 8 26 4 0
BITMAP
7C
FE
FF
FF
FF
FE
7E
10
00
00
00
00
00
00
00
00
00
00
00
7C
FE
FF
FF
FF
FE
7C
ENDCHAR
STARTCHAR 003B
ENCODING 59
SWIDTH 340 0
DWIDTH 17 0
BBX 9 35 5 -9
BITMAP
7C00
7E00
FF00
FF00
FF00
FE00
7E00
0000
0000
0000
0000
0000
0000
0000
0000
0000
0000
0000
0000
1800
7E00
FF00
FF00
FF80
FF80
FF80
3F80
0780
0700
0700
0700
0E00
1C00
3800
3000
ENDCHAR
STARTCHAR 003C
ENCODING 60
SWIDTH 560 0
DWIDTH 28 0
BBX 19 24 5 4
BITMAP
000060
0001E0
0007E0
001FE0
007FE0
01FFE0
03FFC0
0FFE00
3FF800
FFE000
FF8000
FE0000
FF0000
FFC000
7FF000
1FFC00
0FFF00
03FFE0
00FFE0
003FE0
000FE0
0003E0
0000E0
000020
ENDCHAR
STARTCHAR 003D
ENCODING 61
SWIDTH 700 0
DWIDTH 35 0
BBX 24 17 6 7
BITMAP
FFFFFF
FFFFFF
FFFFFF
FFFFFF
FFFFFF
FFFFFF
000000
000000
000000
000000
000000
FFFFFF
FFFFFF
FFFFFF
FFFFFF
FFFFFF
FFFFFF
ENDCHAR
STARTCHAR 003E
ENCODING 62
SWIDTH 560 0
DWIDTH 28 0
BBX 19 24 5 4
BITMAP
C00000
F00000
FC0000
FF0000
FFC000
FFE000
7FF800
1FFE00
07FF80
00FFE0
003FE0
000FE0
001FE0
007FE0
01FFC0
07FF00
3FFC00
FFF800
FFE000
FF8000
FE0000
F80000
E00000
800000
ENDCHAR
STARTCHAR 003F
ENCODING 63
SWIDTH 560 0
DWIDTH 28 0
BBX 25 36 2 -1
BITMAP
001E0000
01FFE000
07FFF800
0FFFFC00
1FFFFE00
3FFFFE00
3FFFFF00
7FC0FF00
7F807F00
7F007F80
7F003F80
7F003F80
FF007F80
00007F00
0000FF00
0001FE00
0001FE00
0003FC00
0007F800
000FF000
001FE000
003FC000
007F8000
007F0000
007F0000
007F0000
00000000
00000000
00000000
003C0000
007E0000
007F0000
007F0000
007F0000
007F0000
003E0000
ENDCHAR
STARTCHAR 0040
ENCODING 64
SWIDTH 1000 0
DWIDTH 50 0
BBX 44 44 3 -8
BITMAP
000002000000
0001FFFC0000
000FFFFF0000
003FFFFFC000
007FFFFFF000
00FFF8FFF800
01FF0007FC00
03F80000FE00
07F000007F00
0FC000003F80
1F8000001F80
1F8000000FC0
3F007E3E07C0
3E01FFBE07E0
3E03FFFE03E0
7E07FFFE03E0
7C07F9FE03F0
7C0FE07E01F0
7C0FC07E01F0
7C0FC03E01F0
7C0F803E01F0
FC0F803E01F0
FC0F803E01F0
7C0F803E01F0
7C0F803E01F0
7C0FC03F01E0
7C0FC07F03E0
7C07E0FF07E0
7E07FFFFCFC0
7E03FFCFFF80
3E03FFC7FF00
3F00FF83FE00
1F803C000000
1F8000000000
0FC000000000
0FE000000000
07F800000000
03FE00000000
01FFC0000000
00FFFFFFC000
007FFFFFC000
001FFFFFC000
0007FFFFC000
0000FFFFC000
ENDCHAR
STARTCHAR 0041
ENCODING 65
SWIDTH 660 0
DWIDTH 33 0
BBX 32 35 1 0
BITMAP
0007E000
000FF000
000FF000
001FF000
001FF800
001FF800
003FFC00
003FFC00
003FFC00
007EFE00
007E7E00
007E7E00
00FC7F00
00FC3F00
00FC3F00
01FC3F80
01F81F80
03F81FC0
03F81FC0
03F00FC0
07F00FE0
07FFFFE0
07FFFFE0
0FFFFFF0
0FFFFFF0
0FFFFFF0
1FC003F8
1FC003F8
3F8001F8
3F8001FC
3F8001FC
7F0000FE
7F0000FE
7F0000FE
FE00007F
ENDCHAR
STARTCHAR 0042
ENCODING 66
SWIDTH 620 0
DWIDTH 31 0
BBX 26 35 3 0
BITMAP
FFFFC000
FFFFF800
FFFFFC00
FFFFFE00
FFFFFE00
FFFFFF00
FE00FF00
FE007F00
FE003F80
FE003F80
FE003F00
FE003F00
FE007F00
FE00FE00
FE07FC00
FFFFF800
FFFFE000
FFFFFC00
FFFFFF00
FFFFFF80
FE003F80
FE001FC0
FE000FC0
FE000FC0
FE000FC0
FE000FC0
FE000FC0
FE001FC0
FE003FC0
FFFFFF80
FFFFFF80
FFFFFF00
FFFFFE00
FFFFFC00
FFFFF000
ENDCHAR
STARTCHAR 0043
ENCODING 67
SWIDTH 680 0
DWIDTH 34 0
BBX 31 36 2 0
BITMAP
0007E000
003FFC00
00FFFF00
03FFFFC0
07FFFFE0
0FFFFFF0
0FFE7FF0
1FF00FF8
3FC003FC
3FC001FC
7F8001FC
7F8000FE
7F0000FE
7F000000
FF000000
FE000000
FE000000
FE000000
FE000000
FE000000
FE000000
FF000000
FF000000
7F000000
7F0000FE
7F8000FE
3F8001FC
3FC003FC
1FE007F8
1FF00FF8
0FFFFFF0
07FFFFE0
03FFFFC0
01FFFF80
00FFFF00
003FFC00
ENDCHAR
STARTCHAR 0044
ENCODING 68
SWIDTH 660 0
DWIDTH 33 0
BBX 29 35 3 0
BITMAP
FFFFC000
FFFFF800
FFFFFC00
FFFFFF00
FFFFFF80
FFFFFFC0
FE01FFC0
FE003FE0
FE001FE0
FE000FF0
FE000FF0
FE0007F0
FE0007F8
FE0007F8
FE0003F8
FE0003F8
FE0003F8
FE0003F8
FE0003F8
FE0003F8
FE0003F8
FE0007F8
FE0007F8
FE0007F0
FE000FF0
FE000FF0
FE001FE0
FE007FE0
FE01FFC0
FFFFFFC0
FFFFFF80
FFFFFE00
FFFFFC00
FFFFF000
FFFFC000
ENDCHAR
STARTCHAR 0045
ENCODING 69
SWIDTH 560 0
DWIDTH 28 0
BBX 23 35 3 0
BITMAP
FFFFFE
FFFFFE
FFFFFE
FFFFFE
FFFFFE
FFFFFE
FE0000
FE0000
FE0000
FE0000
FE0000
FE0000
FE0000
FE0000
FFFFF8
FFFFF8
FFFFF8
FFFFF8
FFFFF8
FFFFF8
FE0000
FE0000
FE0000
FE0000
FE0000
FE0000
FE0000
FE0000
FE0000
FFFFFE
FFFFFE
FFFFFE
FFFFFE
FFFFFE
FFFFFE
ENDCHAR
STARTCHAR 0046
ENCODING 70
SWIDTH 500 0
DWIDTH 25 0
BBX 22 35 3 0
BITMAP
FFFFFC
FFFFFC
FFFFFC
FFFFFC
FFFFFC
FFFFFC
FE0000
FE0000
FE0000
FE0000
FE0000
FE0000
FE0000
FE0000
FFFFF0
FFFFF0
FFFFF0
FFFFF0
FFFFF0
FFFFF0
FE0000
FE0000
FE0000
FE0000
FE0000
FE0000
FE0000
FE0000
FE0000
FE0000
FE0000
FE0000
FE0000
FE0000
FE0000
ENDCHAR
STARTCHAR 0047
ENCODING 71
SWIDTH 700 0
DWIDTH 35 0
BBX 31 36 2 0
BITMAP
0007E000
003FFC00
00FFFF00
03FFFFC0
07FFFFE0
0FFFFFF0
0FFE7FF0
1FF00FF8
3FE003FC
3FC001FC
3F8001FE
7F8000FE
7F000000
7F000000
7F000000
FE000000
FE000000
FE007FFE
FE007FFE
FE007FFE
FE007FFE
FE007FFE
7F0000FE
7F0000FE
7F0000FE
7F0000FE
3F8000FE
3FC001FE
3FC003FE
1FF007FE
0FFC1FFE
0FFFFFBE
07FFFF3E
03FFFF3E
00FFFC3E
003FF83E
ENDCHAR
STARTCHAR 0048
ENCODING 72
SWIDTH 660 0
DWIDTH 33 0
BBX 28 35 3 0
BITMAP
FE0007F0
FE0007F0
FE0007F0
FE0007F0
FE0007F0
FE0007F0
FE0007F0
FE0007F0
FE0007F0
FE0007F0
FE0007F0
FE0007F0
FE0007F0
FE0007F0
FE0007F0
FFFFFFF0
FFFFFFF0
FFFFFFF0
FFFFFFF0
FFFFFFF0
FE0007F0
FE0007F0
FE0007F0
FE0007F0
FE0007F0
FE0007F0
FE0007F0
FE0007F0
FE0007F0
FE0007F0
FE0007F0
FE0007F0
FE0007F0
FE0007F0
FE0007F0
ENDCHAR
STARTCHAR 0049
ENCODING 73
SWIDTH 260 0
DWIDTH 13 0
BBX 7 35 3 0
BITMAP
FE
FE
FE
FE
FE
FE
FE
FE
FE
FE
FE
FE
FE
FE
FE
FE
FE
FE
FE
FE
FE
FE
FE
FE
FE
FE
FE
FE
FE
FE
FE
FE
FE
FE
FE
ENDCHAR
STARTCHAR 004A
ENCODING 74
SWIDTH 360 0
DWIDTH 18 0
BBX 13 35 2 0
BITMAP
03F8
03F8
03F8
03F8
03F8
03F8
03F8
03F8
03F8
03F8
03F8
03F8
03F8
03F8
03F8
03F8
03F8
03F8
03F8
03F8
03F8
03F8
03F8
03F8
03F8
03F8
03F8
03F8
03F8
07F8
FFF0
FFF0
FFE0
FFC0
FF80
ENDCHAR
STARTCHAR 004B
ENCODING 75
SWIDTH 640 0
DWIDTH 32 0
BBX 27 35 3 0
BITMAP
FE001FE0
FE003FC0
FE007F80
FE00FF00
FE01FE00
FE03FC00
FE03FC00
FE07F800
FE0FF000
FE1FE000
FE3FC000
FE7F8000
FEFF0000
FEFE0000
FFFE0000
FFFE0000
FFFE0000
FFFF0000
FFFF8000
FFFF8000
FFBFC000
FF1FE000
FE0FE000
FE0FF000
FE07F800
FE03F800
FE03FC00
FE01FC00
FE00FE00
FE00FF00
FE007F00
FE007F80
FE003FC0
FE001FC0
FE001FE0
ENDCHAR
STARTCHAR 004C
ENCODING 76
SWIDTH 520 0
DWIDTH 26 0
BBX 22 35 3 0
BITMAP
FE0000
FE0000
FE0000
FE0000
FE0000
FE0000
FE0000
FE0000
FE0000
FE0000
FE0000
FE0000
FE0000
FE0000
FE0000
FE0000
FE0000
FE0000
FE0000
FE0000
FE0000
FE0000
FE0000
FE0000
FE0000
FE0000
FE0000
FE0000
FE0000
FFFFFC
FFFFFC
FFFFFC
FFFFFC
FFFFFC
FFFFFC
ENDCHAR
STARTCHAR 004D
ENCODING 77
SWIDTH 820 0
DWIDTH 41 0
BBX 36 35 3 0
BITMAP
FFC0003FF0
FFE0007FF0
FFE0007FF0
FFE0007FF0
FFF000FFF0
FFF000FFF0
FFF801FFF0
FFF801FFF0
FFF801FFF0
FFFC03FFF0
FFFC03FFF0
FFFC03FFF0
FEFE07F7F0
FEFE07F7F0
FE7E07E7F0
FE7F0FE7F0
FE7F0FE7F0
FE3F1FC7F0
FE3F9FC7F0
FE3F9FC7F0
FE1FFF87F0
FE1FFF87F0
FE1FFF87F0
FE0FFF07F0
FE0FFF07F0
FE0FFF07F0
FE07FE07F0
FE07FE07F0
FE07FE07F0
FE03FC07F0
FE03FC07F0
FE01F807F0
FE01F807F0
FE01F807F0
FE00F007F0
ENDCHAR
STARTCHAR 004E
ENCODING 78
SWIDTH 700 0
DWIDTH 35 0
BBX 29 35 3 0
BITMAP
FF0003F8
FF8003F8
FF8003F8
FFC003F8
FFE003F8
FFE003F8
FFF003F8
FFF003F8
FFF803F8
FFFC03F8
FFFC03F8
FFFE03F8
FEFE03F8
FEFF03F8
FE7F03F8
FE7F83F8
FE3FC3F8
FE1FC3F8
FE1FE3F8
FE0FE3F8
FE0FF3F8
FE07FBF8
FE03FBF8
FE03FFF8
FE01FFF8
FE01FFF8
FE00FFF8
FE007FF8
FE007FF8
FE003FF8
FE003FF8
FE001FF8
FE000FF8
FE000FF8
FE0007F8
ENDCHAR
STARTCHAR 004F
ENCODING 79
SWIDTH 720 0
DWIDTH 36 0
BBX 32 36 2 0
BITMAP
0007E000
003FFE00
00FFFF00
03FFFFC0
07FFFFE0
0FFFFFF0
1FFFFFF8
1FF00FF8
3FE007FC
3FC003FC
7F8001FE
7F8001FE
7F0000FE
7F0000FF
FF0000FF
FF0000FF
FF00007F
FE00007F
FE00007F
FE00007F
FE00007F
FF0000FF
FF0000FF
7F0000FF
7F0000FE
7F8001FE
7F8001FE
3FC003FC
3FE007FC
1FF81FF8
0FFFFFF8
0FFFFFF0
07FFFFE0
01FFFFC0
00FFFF00
003FFC00
ENDCHAR
STARTCHAR 0050
ENCODING 80
SWIDTH 580 0
DWIDTH 29 0
BBX 25 35 3 0
BITMAP
FFFF8000
FFFFE000
FFFFF800
FFFFFC00
FFFFFE00
FFFFFF00
FE01FF00
FE007F80
FE003F80
FE003F80
FE001F80
FE001F80
FE001F80
FE001F80
FE003F80
FE003F80
FE007F80
FE01FF00
FFFFFF00
FFFFFE00
FFFFFC00
FFFFF800
FFFFE000
FFFF0000
FE000000
FE000000
FE000000
FE000000
FE000000
FE000000
FE000000
FE000000
FE000000
FE000000
FE000000
ENDCHAR
STARTCHAR 0051
ENCODING 81
SWIDTH 720 0
DWIDTH 36 0
BBX 32 38 2 -2
BITMAP
0007E000
003FFE00
00FFFF00
03FFFFC0
07FFFFE0
0FFFFFF0
1FFFFFF8
1FF00FF8
3FE007FC
3FC003FC
7F8001FE
7F8001FE
7F0000FE
7F0000FF
FF0000FF
FF0000FF
FF00007F
FE00007F
FE00007F
FE00007F
FE00007F
FF0000FF
FF07E0FF
7F03F0FF
7F01F8FE
7F81FDFE
7F80FDFE
3FC07FFC
3FE03FFC
1FF83FF8
0FFFFFF8
0FFFFFF0
07FFFFE0
01FFFFF0
00FFFFF0
003FFDF8
000000FC
000000FE
ENDCHAR
STARTCHAR 0052
ENCODING 82
SWIDTH 600 0
DWIDTH 30 0
BBX 26 35 3 0
BITMAP
FFFF8000
FFFFF000
FFFFF800
FFFFFC00
FFFFFE00
FFFFFF00
FE01FF00
FE007F80
FE003F80
FE003F80
FE001F80
FE001F80
FE001F80
FE003F80
FE003F80
FE007F80
FE07FF00
FFFFFF00
FFFFFE00
FFFFFC00
FFFFF000
FFFFC000
FE1FE000
FE0FE000
FE07F000
FE07F800
FE03F800
FE03FC00
FE01FC00
FE00FE00
FE00FE00
FE007F00
FE007F80
FE003F80
FE003FC0
ENDCHAR
STARTCHAR 0053
ENCODING 83
SWIDTH 600 0
DWIDTH 30 0
BBX 26 36 2 0
BITMAP
001E0000
01FFE000
07FFF800
0FFFFC00
1FFFFE00
3FFFFF00
3FE1FF80
7F807F80
7F007FC0
7F003FC0
7F003FC0
7F000000
7F800000
7FC00000
3FF00000
3FFF0000
1FFFE000
0FFFFC00
07FFFE00
01FFFF00
003FFF80
0001FFC0
00007FC0
00003FC0
00001FC0
FF001FC0
FF001FC0
FF001FC0
7F803FC0
7FC07FC0
3FFFFF80
3FFFFF80
1FFFFF00
0FFFFE00
03FFF800
00FFE000
ENDCHAR
STARTCHAR 0054
ENCODING 84
SWIDTH 580 0
DWIDTH 29 0
BBX 26 35 2 0
BITMAP
FFFFFFC0
FFFFFFC0
FFFFFFC0
FFFFFFC0
FFFFFFC0
FFFFFFC0
007F0000
007F0000
007F0000
007F0000
007F0000
007F0000
007F0000
007F0000
007F0000
007F0000
007F0000
007F0000
007F0000
007F0000
007F0000
007F0000
007F0000
007F0000
007F0000
007F0000
007F0000
007F0000
007F0000
007F0000
007F0000
007F0000
007F0000
007F0000
007F0000
ENDCHAR
STARTCHAR 0055
ENCODING 85
SWIDTH 680 0
DWIDTH 34 0
BBX 28 36 3 -1
BITMAP
FE0003F0
FE0003F0
FE0003F0
FE0003F0
FE0003F0
FE0003F0
FE0003F0
FE0003F0
FE0003F0
FE0003F0
FE0003F0
FE0003F0
FE0003F0
FE0003F0
FE0003F0
FE0003F0
FE0003F0
FE0003F0
FE0003F0
FE0003F0
FE0003F0
FE0007F0
FE0007F0
FE0007F0
FF0007F0
FF000FF0
7F800FF0
7F801FE0
7FE07FE0
3FFFFFC0
1FFFFF80
0FFFFF80
07FFFE00
03FFFC00
00FFF000
00060000
ENDCHAR
STARTCHAR 0056
ENCODING 86
SWIDTH 640 0
DWIDTH 32 0
BBX 31 35 1 0
BITMAP
FE0000FE
FE0000FE
FE0000FE
7F0001FC
7F0001FC
7F0001FC
3F8003F8
3F8003F8
3F8003F8
1F8007F0
1FC007F0
1FC007F0
0FC00FE0
0FE00FE0
0FE00FE0
07E01FC0
07F01FC0
07F01FC0
03F03F80
03F83F80
03F83F80
01F83F00
01FC7F00
01FC7F00
00FC7E00
00FEFE00
00FEFE00
007EFC00
007FFC00
007FFC00
007FF800
003FF800
003FF800
003FF000
001FF000
ENDCHAR
STARTCHAR 0057
ENCODING 87
SWIDTH 980 0
DWIDTH 49 0
BBX 48 35 1 0
BITMAP
FE0007E0007F
FE000FE0007F
FE000FF0007F
FE000FF000FE
7F001FF000FE
7F001FF800FE
7F001FF800FE
7F001FF800FC
3F003FFC01FC
3F803FFC01FC
3F803FFC01FC
3F807FFC01F8
1F807FFE03F8
1FC07EFE03F8
1FC0FE7E03F8
0FC0FE7F03F0
0FC0FE7F07F0
0FE1FC3F07F0
0FE1FC3F87F0
07E1FC3F87E0
07E1F83F8FE0
07F3F81FCFE0
07F3F81FCFC0
03F3F01FCFC0
03F7F00FCFC0
03F7F00FFFC0
03FFF00FFF80
01FFE007FF80
01FFE007FF80
01FFE007FF80
01FFC003FF00
00FFC003FF00
00FFC003FF00
00FF8003FF00
00FF8001FE00
ENDCHAR
STARTCHAR 0058
ENCODING 88
SWIDTH 660 0
DWIDTH 33 0
BBX 30 35 2 0
BITMAP
FE0001FC
FF0003FC
7F8007F8
3F8007F0
3FC00FF0
1FC00FE0
0FE01FC0
0FF03FC0
07F03F80
03F87F00
03F8FF00
01FCFE00
00FFFC00
00FFFC00
007FF800
007FF000
003FF000
001FE000
003FF000
007FF000
007FF800
00FFFC00
01FFFC00
01FCFE00
03F8FF00
03F87F00
07F03F80
0FF03FC0
0FE01FC0
1FC00FE0
3FC00FF0
3F8007F0
7F8007F8
FF0003FC
FE0001FC
ENDCHAR
STARTCHAR 0059
ENCODING 89
SWIDTH 640 0
DWIDTH 32 0
BBX 30 35 1 0
BITMAP
FF0001FC
7F0003F8
3F8003F8
3F8007F0
1FC007F0
1FC00FE0
0FE00FE0
0FE01FC0
07F01FC0
07F03F80
03F83F80
03F87F00
01F87F00
01FCFE00
00FCFE00
00FFFC00
007FFC00
007FF800
003FF800
003FF000
001FF000
001FE000
000FE000
000FE000
000FE000
000FE000
000FE000
000FE000
000FE000
000FE000
000FE000
000FE000
000FE000
000FE000
000FE000
ENDCHAR
STARTCHAR 005A
ENCODING 90
SWIDTH 620 0
DWIDTH 31 0
BBX 26 35 2 0
BITMAP
FFFFFFC0
FFFFFFC0
FFFFFFC0
FFFFFFC0
FFFFFFC0
FFFFFFC0
00003FC0
00007F80
0000FF80
0000FF00
0001FE00
0003FC00
0007F800
000FF800
000FF000
001FE000
003FC000
007F8000
00FF8000
00FF0000
01FE0000
03FC0000
07F80000
0FF80000
0FF00000
1FE00000
3FC00000
7F800000
FF800000
FFFFFFC0
FFFFFFC0
FFFFFFC0
FFFFFFC0
FFFFFFC0
FFFFFFC0
ENDCHAR
STARTCHAR 005B
ENCODING 91
SWIDTH 460 0
DWIDTH 23 0
BBX 16 51 4 -10
BITMAP
FFFF
FFFF
FFFF
FFFF
FFFF
FC00
FC00
FC00
FC00
FC00
FC00
FC00
FC00
FC00
FC00
FC00
FC00
FC00
FC00
FC00
FC00
FC00
FC00
FC00
FC00
FC00
FC00
FC00
FC00
FC00
FC00
FC00
FC00
FC00
FC00
FC00
FC00
FC00
FC00
FC00
FC00
FC00
FC00
FC00
FC00
FFFF
FFFF
FFFF
FFFF
FFFF
FFFF
ENDCHAR
STARTCHAR 005C
ENCODING 92
SWIDTH 520 0
DWIDTH 26 0
BBX 23 49 2 -10
BITMAP
FC0000
FE0000
FE0000
7E0000
7F0000
7F0000
3F0000
3F8000
3F8000
1F8000
1FC000
0FC000
0FC000
0FE000
07E000
07E000
07F000
03F000
03F800
03F800
01F800
01FC00
01FC00
00FC00
00FE00
007E00
007E00
007F00
003F00
003F00
003F80
001F80
001FC0
001FC0
000FC0
000FE0
000FE0
0007E0
0007F0
0007F0
0003F0
0003F8
0001F8
0001F8
0001FC
0000FC
0000FC
0000FE
00007E
ENDCHAR
STARTCHAR 005D
ENCODING 93
SWIDTH 460 0
DWIDTH 23 0
BBX 16 51 3 -10
BITMAP
FFFF
FFFF
FFFF
FFFF
FFFF
001F
001F
001F
001F
001F
001F
001F
001F
001F
001F
001F
001F
001F
001F
001F
001F
001F
001F
001F
001F
001F
001F
001F
001F
001F
001F
001F
001F
001F
001F
001F
001F
001F
001F
001F
001F
001F
001F
001F
001F
FFFF
FFFF
FFFF
FFFF
FFFF
FFFF
ENDCHAR
STARTCHAR 005E
ENCODING 94
SWIDTH 420 0
DWIDTH 21 0
BBX 19 10 1 28
BITMAP
07FC00
0FFE00
0FFE00
1FFF00
3FBF00
3F3F80
7F1F80
7E0FC0
FE0FE0
FC07E0
ENDCHAR
STARTCHAR 005F
ENCODING 95
SWIDTH 700 0
DWIDTH 35 0
BBX 25 5 5 0
BITMAP
FFFFFF80
FFFFFF80
FFFFFF80
FFFFFF80
FFFFFF80
ENDCHAR
STARTCHAR 0060
ENCODING 96
SWIDTH 280 0
DWIDTH 14 0
BBX 11 10 2 31
BITMAP
FC00
FE00
7E00
7F00
3F00
1F80
1FC0
0FC0
07E0
07E0
ENDCHAR
STARTCHAR 0061
ENCODING 97
SWIDTH 600 0
DWIDTH 30 0
BBX 26 27 2 0
BITMAP
01FC0000
07FF1FC0
0FFF9FC0
1FFFDFC0
3FFFDFC0
7FFFFFC0
7FC0FFC0
7F807FC0
FF003FC0
FF003FC0
FE003FC0
FE001FC0
FE001FC0
FE001FC0
FE001FC0
FE001FC0
FE003FC0
FE003FC0
FF003FC0
7F007FC0
7F80FFC0
7FE1FFC0
3FFFDFC0
3FFFDFC0
1FFF9FC0
0FFF1FC0
03FE1FC0
ENDCHAR
STARTCHAR 0062
ENCODING 98
SWIDTH 600 0
DWIDTH 30 0
BBX 26 38 3 0
BITMAP
FE000000
FE000000
FE000000
FE000000
FE000000
FE000000
FE000000
FE000000
FE000000
FE000000
FE000000
FE0FE000
FE3FF800
FE7FFC00
FEFFFE00
FFFFFE00
FFFFFF00
FFC0FF00
FF807F80
FF007F80
FF003F80
FE003F80
FE001FC0
FE001FC0
FE001FC0
FE001FC0
FE001FC0
FE003FC0
FE003F80
FF003F80
FF007F80
FF80FF80
FFE1FF00
FFFFFF00
FEFFFE00
FE7FFC00
FE3FF800
FE1FF000
ENDCHAR
STARTCHAR 0063
ENCODING 99
SWIDTH 560 0
DWIDTH 28 0
BBX 25 27 2 0
BITMAP
007F8000
03FFE000
07FFF800
0FFFFC00
1FFFFC00
3FFFFE00
3FC0FF00
7F807F00
7F007F00
7E003F80
FE003F80
FE000000
FE000000
FE000000
FE000000
FE000000
FE000000
FE003F80
7F003F00
7F007F00
7F80FF00
3FE3FE00
1FFFFE00
1FFFFC00
0FFFF800
03FFF000
01FFC000
ENDCHAR
STARTCHAR 0064
ENCODING 100
SWIDTH 600 0
DWIDTH 30 0
BBX 26 38 2 0
BITMAP
00001FC0
00001FC0
00001FC0
00001FC0
00001FC0
00001FC0
00001FC0
00001FC0
00001FC0
00001FC0
00001FC0
01FC1FC0
07FF1FC0
0FFF9FC0
1FFFDFC0
3FFFDFC0
3FFFFFC0
7FC0FFC0
7F807FC0
7F003FC0
FF003FC0
FE003FC0
FE001FC0
FE001FC0
FE001FC0
FE001FC0
FE001FC0
FE001FC0
FF003FC0
FF003FC0
7F007FC0
7F807FC0
7FE1FFC0
3FFFDFC0
1FFFDFC0
1FFF9FC0
0FFF1FC0
03FE1FC0
ENDCHAR
STARTCHAR 0065
ENCODING 101
SWIDTH 560 0
DWIDTH 28 0
BBX 25 27 2 0
BITMAP
007F8000
03FFE000
07FFF000
0FFFFC00
1FFFFC00
3FC1FE00
3F807E00
7F007F00
7E003F00
7E003F00
FE003F80
FFFFFF80
FFFFFF80
FFFFFF80
FFFFFF80
FFFFFF80
FE000000
FE000000
7E000000
7F007F00
7F80FF00
3FC1FE00
1FFFFE00
1FFFFC00
0FFFF800
03FFF000
01FFC000
ENDCHAR
STARTCHAR 0066
ENCODING 102
SWIDTH 380 0
DWIDTH 19 0
BBX 16 37 2 0
BITMAP
00FF
03FF
07FF
0FFF
0FFF
0FE0
1FE0
1FC0
1FC0
1FC0
1FC0
FFFF
FFFF
FFFF
FFFF
FFFF
1FC0
1FC0
1FC0
1FC0
1FC0
1FC0
1FC0
1FC0
1FC0
1FC0
1FC0
1FC0
1FC0
1FC0
1FC0
1FC0
1FC0
1FC0
1FC0
1FC0
1FC0
ENDCHAR
STARTCHAR 0067
ENCODING 103
SWIDTH 600 0
DWIDTH 30 0
BBX 26 38 2 -11
BITMAP
01FC0000
07FF1FC0
0FFF9FC0
1FFFDFC0
3FFFDFC0
3FFFFFC0
7FC0FFC0
7F807FC0
7F003FC0
FF003FC0
FE001FC0
FE001FC0
FE001FC0
FE001FC0
FE001FC0
FE001FC0
FF003FC0
FF003FC0
7F003FC0
7F807FC0
7FC0FFC0
3FFFFFC0
3FFFDFC0
1FFFDFC0
0FFF9FC0
03FE1FC0
00701FC0
00001FC0
00003FC0
00003F80
00007F80
0000FF80
007FFF00
007FFF00
007FFE00
007FFC00
007FF000
007FC000
ENDCHAR
STARTCHAR 0068
ENCODING 104
SWIDTH 600 0
DWIDTH 30 0
BBX 24 37 3 0
BITMAP
FE0000
FE0000
FE0000
FE0000
FE0000
FE0000
FE0000
FE0000
FE0000
FE0000
FE0FE0
FE3FF8
FE7FFC
FEFFFC
FFFFFE
FFFFFE
FF81FF
FF00FF
FF007F
FE007F
FE007F
FE007F
FE007F
FE007F
FE007F
FE007F
FE007F
FE007F
FE007F
FE007F
FE007F
FE007F
FE007F
FE007F
FE007F
FE007F
FE007F
ENDCHAR
STARTCHAR 0069
ENCODING 105
SWIDTH 280 0
DWIDTH 14 0
BBX 8 39 3 0
BITMAP
18
7E
7F
FF
FF
FF
7E
3C
00
00
00
00
00
7F
7F
7F
7F
7F
7F
7F
7F
7F
7F
7F
7F
7F
7F
7F
7F
7F
7F
7F
7F
7F
7F
7F
7F
7F
7F
ENDCHAR
STARTCHAR 006A
ENCODING 106
SWIDTH 280 0
DWIDTH 14 0
BBX 13 50 -2 -11
BITMAP
0040
01F0
03F8
03F8
03F8
03F8
03F8
01E0
0000
0000
0000
0000
03F8
03F8
03F8
03F8
03F8
03F8
03F8
03F8
03F8
03F8
03F8
03F8
03F8
03F8
03F8
03F8
03F8
03F8
03F8
03F8
03F8
03F8
03F8
03F8
03F8
03F8
03F8
03F8
03F8
03F8
03F8
07F8
07F0
FFF0
FFF0
FFE0
FFE0
FF80
ENDCHAR
STARTCHAR 006B
ENCODING 107
SWIDTH 560 0
DWIDTH 28 0
BBX 23 37 3 0
BITMAP
FE0000
FE0000
FE0000
FE0000
FE0000
FE0000
FE0000
FE0000
FE0000
FE0000
FE0000
FE01FE
FE03FC
FE07F8
FE0FF0
FE1FE0
FE1FC0
FE3FC0
FE7F80
FEFF00
FFFE00
FFFC00
FFFC00
FFFC00
FEFE00
FEFF00
FE7F00
FE3F80
FE3FC0
FE1FC0
FE1FE0
FE0FF0
FE07F0
FE07F8
FE03FC
FE01FC
FE01FE
ENDCHAR
STARTCHAR 006C
ENCODING 108
SWIDTH 340 0
DWIDTH 17 0
BBX 12 38 3 0
BITMAP
FE00
FE00
FE00
FE00
FE00
FE00
FE00
FE00
FE00
FE00
FE00
FE00
FE00
FE00
FE00
FE00
FE00
FE00
FE00
FE00
FE00
FE00
FE00
FE00
FE00
FE00
FE00
FE00
FE00
FE00
FE00
FE00
FF00
FFF0
7FF0
7FF0
3FF0
0FF0
ENDCHAR
STARTCHAR 006D
ENCODING 109
SWIDTH 920 0
DWIDTH 46 0
BBX 40 27 3 0
BITMAP
001FC00FE0
FE3FE03FF0
FE7FF87FF8
FEFFF8FFFC
FFFFFDFFFE
FFFFFDFFFE
FFC3FFC1FF
FF01FF80FF
FE00FF007F
FE00FF007F
FE007F007F
FE007F007F
FE007F007F
FE007F007F
FE007F007F
FE007F007F
FE007F007F
FE007F007F
FE007F007F
FE007F007F
FE007F007F
FE007F007F
FE007F007F
FE007F007F
FE007F007F
FE007F007F
FE007F007F
ENDCHAR
STARTCHAR 006E
ENCODING 110
SWIDTH 600 0
DWIDTH 30 0
BBX 24 27 3 0
BITMAP
000FE0
FE3FF8
FE7FFC
FEFFFC
FFFFFE
FFFFFE
FF81FF
FF00FF
FF007F
FE007F
FE007F
FE007F
FE007F
FE007F
FE007F
FE007F
FE007F
FE007F
FE007F
FE007F
FE007F
FE007F
FE007F
FE007F
FE007F
FE007F
FE007F
ENDCHAR
STARTCHAR 006F
ENCODING 111
SWIDTH 580 0
DWIDTH 29 0
BBX 25 27 2 0
BITMAP
007F8000
03FFE000
07FFF000
0FFFFC00
1FFFFC00
3FFFFE00
3FC0FF00
7F807F00
7F007F80
7E003F80
FE003F80
FE003F80
FE003F80
FE003F80
FE003F80
FE003F80
FE003F80
FE003F80
7F003F80
7F007F00
7F80FF00
3FE3FE00
1FFFFE00
1FFFFC00
0FFFF800
03FFF000
01FFC000
ENDCHAR
STARTCHAR 0070
ENCODING 112
SWIDTH 620 0
DWIDTH 31 0
BBX 26 37 3 -10
BITMAP
000FE000
FE3FF800
FE7FFC00
FEFFFE00
FFFFFE00
FFFFFF00
FFC0FF00
FF807F80
FF007F80
FF003F80
FE003F80
FE001FC0
FE001FC0
FE001FC0
FE001FC0
FE001FC0
FE003FC0
FE003F80
FF003F80
FF007F80
FF80FF80
FFE1FF00
FFFFFF00
FEFFFE00
FE7FFC00
FE3FF800
FE1FF000
FE000000
FE000000
FE000000
FE000000
FE000000
FE000000
FE000000
FE000000
FE000000
FE000000
ENDCHAR
STARTCHAR 0071
ENCODING 113
SWIDTH 620 0
DWIDTH 31 0
BBX 26 37 2 -10
BITMAP
01FC0000
07FF1FC0
0FFF9FC0
1FFFDFC0
3FFFFFC0
3FFFFFC0
7FC0FFC0
7F807FC0
7F803FC0
7F003FC0
FF001FC0
FF001FC0
FE001FC0
FE001FC0
FE001FC0
FE001FC0
FF001FC0
7F001FC0
7F003FC0
7F803FC0
7FC07FC0
3FE1FFC0
3FFFFFC0
1FFFDFC0
0FFF9FC0
07FF1FC0
03FE1FC0
00001FC0
00001FC0
00001FC0
00001FC0
00001FC0
00001FC0
00001FC0
00001FC0
00001FC0
00001FC0
ENDCHAR
STARTCHAR 0072
ENCODING 114
SWIDTH 380 0
DWIDTH 19 0
BBX 16 26 3 0
BITMAP
FE3F
FE7F
FEFF
FFFF
FFFF
FFFF
FFC0
FF00
FF00
FE00
FE00
FE00
FE00
FE00
FE00
FE00
FE00
FE00
FE00
FE00
FE00
FE00
FE00
FE00
FE00
FE00
ENDCHAR
STARTCHAR 0073
ENCODING 115
SWIDTH 480 0
DWIDTH 24 0
BBX 21 27 2 0
BITMAP
03FC00
0FFF80
1FFFC0
3FFFE0
7FFFF0
7F0FF0
7E07F0
7E03F8
7E0000
7E0000
7F8000
7FFC00
3FFF80
1FFFC0
07FFE0
01FFF0
000FF8
0003F8
FE03F8
FE03F8
FE03F8
FF07F8
7FFFF0
3FFFF0
1FFFE0
0FFFC0
03FF00
ENDCHAR
STARTCHAR 0074
ENCODING 116
SWIDTH 420 0
DWIDTH 21 0
BBX 18 35 1 0
BITMAP
07F000
07F000
07F000
07F000
07F000
07F000
07F000
07F000
07F000
FFFFC0
FFFFC0
FFFFC0
FFFFC0
FFFFC0
07F000
07F000
07F000
07F000
07F000
07F000
07F000
07F000
07F000
07F000
07F000
07F000
07F000
07F000
07F000
07F800
07FFC0
07FFC0
03FFC0
01FFC0
00FFC0
ENDCHAR
STARTCHAR 0075
ENCODING 117
SWIDTH 580 0
DWIDTH 29 0
BBX 24 27 3 -1
BITMAP
FE007F
FE007F
FE007F
FE007F
FE007F
FE007F
FE007F
FE007F
FE007F
FE007F
FE007F
FE007F
FE007F
FE007F
FE007F
FE007F
FE007F
FE00FF
FF00FF
FF01FF
7FC7FF
7FFFFF
7FFF7F
3FFE7F
1FFE7F
0FF87F
008000
ENDCHAR
STARTCHAR 0076
ENCODING 118
SWIDTH 540 0
DWIDTH 27 0
BBX 26 26 1 0
BITMAP
FE001FC0
7E001F80
7E003F80
7F003F80
3F003F00
3F007F00
3F807F00
1F807E00
1F80FE00
1FC0FE00
0FC0FC00
0FC1FC00
0FE1FC00
07E1F800
07E1F800
07F3F800
03F3F000
03F3F000
03FFF000
01FFE000
01FFE000
01FFE000
00FFC000
00FFC000
00FFC000
007F8000
ENDCHAR
STARTCHAR 0077
ENCODING 119
SWIDTH 820 0
DWIDTH 41 0
BBX 39 26 1 0
BITMAP
FE00FE00FE
7E00FE00FE
7E00FE00FC
7E01FF00FC
7F01FF00FC
3F01FF01FC
3F01FF81F8
3F03FF81F8
3F83FF81F8
1F83FF83F8
1F87EFC3F0
1F87EFC3F0
1FC7EFC3F0
0FC7E7E7F0
0FCFC7E7E0
0FCFC7E7E0
0FCFC3F7E0
07FFC3F7E0
07FF83FFC0
07FF83FFC0
07FF81FFC0
03FF01FFC0
03FF01FF80
03FF01FF80
01FF00FF80
01FE00FF80
ENDCHAR
STARTCHAR 0078
ENCODING 120
SWIDTH 560 0
DWIDTH 28 0
BBX 24 26 2 0
BITMAP
FE007F
FF00FE
7F81FE
3F81FC
3FC3FC
1FC3F8
1FE7F0
0FE7F0
07FFE0
07FFE0
03FFC0
01FF80
01FF80
01FF80
03FFC0
03FFC0
07FFE0
0FFFE0
0FE7F0
1FE3F8
1FC3F8
3F81FC
7F81FE
7F00FE
FF00FF
FE007F
ENDCHAR
STARTCHAR 0079
ENCODING 121
SWIDTH 540 0
DWIDTH 27 0
BBX 26 37 1 -11
BITMAP
FE001FC0
7F003F80
7F003F80
7F003F80
3F807F00
3F807F00
1F807E00
1FC0FE00
1FC0FE00
0FC0FC00
0FC1FC00
0FE1F800
07E1F800
07E3F800
03F3F000
03F3F000
03F7F000
01FFE000
01FFE000
01FFC000
00FFC000
00FFC000
00FF8000
007F8000
007F0000
007F0000
007F0000
007E0000
00FE0000
00FE0000
01FC0000
03FC0000
7FF80000
7FF80000
7FF00000
7FE00000
7F800000
ENDCHAR
STARTCHAR 007A
ENCODING 122
SWIDTH 480 0
DWIDTH 24 0
BBX 20 27 3 0
BITMAP
FFFFF0
FFFFF0
FFFFF0
FFFFF0
FFFFF0
FFFFF0
000FE0
001FC0
003FC0
007F80
007F00
00FE00
01FC00
03F800
07F800
07F000
0FE000
1FC000
3F8000
7F8000
FF0000
FE0000
FFFFF0
FFFFF0
FFFFF0
FFFFF0
FFFFF0
ENDCHAR
STARTCHAR 007B
ENCODING 123
SWIDTH 440 0
DWIDTH 22 0
BBX 16 54 4 -12
BITMAP
00FF
03FF
07FF
07FF
0FF0
0FC0
0FC0
0FC0
0FC0
0FC0
0FC0
0FC0
0FC0
0FC0
0FC0
0FC0
0FC0
0FC0
0FC0
0FC0
0FC0
0FC0
0FC0
0F80
1F80
FF00
FE00
FE00
FF00
1F80
0F80
0FC0
0FC0
0FC0
0FC0
0FC0
0FC0
0FC0
0FC0
0FC0
0FC0
0FC0
0FC0
0FC0
0FC0
0FC0
0FC0
0FC0
0FC0
0FFF
07FF
07FF
03FF
00FF
ENDCHAR
STARTCHAR 007C
ENCODING 124
SWIDTH 300 0
DWIDTH 15 0
BBX 5 61 5 -13
BITMAP
F8
F8
F8
F8
F8
F8
F8
F8
F8
F8
F8
F8
F8
F8
F8
F8
F8
F8
F8
F8
F8
F8
F8
F8
F8
F8
F8
F8
F8
F8
F8
F8
F8
F8
F8
F8
F8
F8
F8
F8
F8
F8
F8
F8
F8
F8
F8
F8
F8
F8
F8
F8
F8
F8
F8
F8
F8
F8
F8
F8
F8
ENDCHAR
STARTCHAR 007D
ENCODING 125
SWIDTH 440 0
DWIDTH 22 0
BBX 16 54 4 -12
BITMAP
FF00
FFC0
FFE0
FFE0
0FF0
03F0
03F0
03F0
03F0
03F0
03F0
03F0
03F0
03F0
03F0
03F0
03F0
03F0
03F0
03F0
03F0
03F0
03F0
01F0
01F8
01FF
007F
007F
01FF
01F8
01F0
03F0
03F0
03F0
03F0
03F0
03F0
03F0
03F0
03F0
03F0
03F0
03F0
03F0
03F0
03F0
03F0
03F0
03F0
FFE0
FFE0
FFC0
FFC0
FF00
ENDCHAR
STARTCHAR 007E
ENCODING 126
SWIDTH 600 0
DWIDTH 30 0
BBX 20 6 5 16
BITMAP
1FC0F0
3FF1F0
7FFFE0
7FFFE0
F8FFC0
F03F80
ENDCHAR
STARTCHAR 00A0
ENCODING 160
SWIDTH 220 0
DWIDTH 11 0
BBX 0 0 0 0
BITMAP
ENDCHAR
STARTCHAR 00A1
ENCODING 161
SWIDTH 260 0
DWIDTH 13 0
BBX 8 38 3 -13
BITMAP
10
7E
7E
FF
FF
FE
7E
3C
00
00
00
00
7C
7C
7E
7E
7E
7E
7E
7E
7E
7E
7E
7E
7E
7E
7E
7E
7E
7E
7E
7E
FE
FE
FF
FF
FF
FF
ENDCHAR
STARTCHAR 00A2
ENCODING 162
SWIDTH 600 0
DWIDTH 30 0
BBX 25 33 2 -3
BITMAP
001C0000
001C0000
001C0000
007F8000
03FFE000
07FFF800
0FFFFC00
1FFFFC00
3FFFFE00
3FDCFF00
7F9C7F00
7F1C7F00
7E1C3F80
FE1C3F80
FE1C0000
FE1C0000
FE1C0000
FE1C0000
FE1C0000
FE1C0000
FE1C3F80
7F1C3F00
7F1C7F00
7F9CFF00
3FFFFE00
1FFFFE00
1FFFFC00
0FFFF800
03FFF000
01FFC000
001C0000
001C0000
001C0000
ENDCHAR
STARTCHAR 00A3
ENCODING 163
SWIDTH 620 0
DWIDTH 31 0
BBX 27 36 2 0
BITMAP
001F8000
01FFF000
07FFFC00
0FFFFE00
1FFFFF00
3FFFFF80
3FE0FF80
3FC07FC0
7F803FC0
7F803FC0
7F801FC0
7F800000
7F800000
3FC00000
3FE00000
1FE00000
1FF00000
0FF80000
07F80000
FFFFF000
FFFFF000
FFFFF000
FFFFF000
01FC0000
01FC0000
01FC0000
01F80000
01F00000
03E00000
0FC00000
FFFFFFE0
FFFFFFE0
FFFFFFE0
FFFFFFE0
FFFFFFE0
FFFFFFE0
ENDCHAR
STARTCHAR 00A4
ENCODING 164
SWIDTH 620 0
DWIDTH 31 0
BBX 26 28 3 3
BITMAP
00000200
70000700
F87F0F80
FDFFDFC0
FFFFFF80
7FFFFF00
3FFFFE00
3FE1FE00
3F807F00
7E003F00
7E001F00
7C001F80
7C000F80
FC000F80
FC000F80
FC000F80
7C001F80
7C001F80
7E003F00
3F003F00
3F80FE00
1FF7FE00
3FFFFF00
7FFFFF80
FFFFFF80
FCFFCFC0
780C0780
30000700
ENDCHAR
STARTCHAR 00A5
ENCODING 165
SWIDTH 640 0
DWIDTH 32 0
BBX 30 35 1 0
BITMAP
FF0001FC
7F0003F8
7F8003F8
3F8007F0
3FC007F0
1FC00FE0
0FE00FE0
0FE01FC0
07F01FC0
07F03F80
03F83F80
03F87F00
01F87F00
01FCFE00
00FCFE00
00FFFC00
007FFC00
007FF800
003FF800
003FF000
001FF000
03FFFF80
03FFFF80
03FFFF80
000FE000
000FE000
000FE000
03FFFF80
03FFFF80
03FFFF80
000FE000
000FE000
000FE000
000FE000
000FE000
ENDCHAR
STARTCHAR 00A6
ENCODING 166
SWIDTH 300 0
DWIDTH 15 0
BBX 5 61 5 -13
BITMAP
F8
F8
F8
F8
F8
F8
F8
F8
F8
F8
F8
F8
F8
F8
F8
F8
F8
F8
F8
F8
F8
F8
F8
F8
F8
F8
F8
00
00
00
00
00
00
00
00
00
F8
F8
F8
F8
F8
F8
F8
F8
F8
F8
F8
F8
F8
F8
F8
F8
F8
F8
F8
F8
F8
F8
F8
F8
F8
ENDCHAR
STARTCHAR 00A7
ENCODING 167
SWIDTH 540 0
DWIDTH 27 0
BBX 24 37 2 -1
BITMAP
007C00
03FF80
0FFFE0
1FFFF0
3FFFF8
3FC7FC
3F01FC
3F01FC
3F0000
3F8000
3FF000
1FFF80
1FFFE0
3FFFF8
7FFFFC
FF1FFE
FE01FF
FE00FF
FE007F
FF007F
7FF07F
3FFFFE
1FFFFE
0FFFFC
03FFF8
007FFC
0003FC
0001FC
7F00FC
7F01FC
7F81FC
3FFFFC
3FFFF8
1FFFF8
07FFE0
01FFC0
001800
ENDCHAR
STARTCHAR 00A8
ENCODING 168
SWIDTH 460 0
DWIDTH 23 0
BBX 20 8 2 31
BITMAP
1800C0
7C03E0
FE07F0
FE07F0
FF07F0
FE07F0
7E07E0
3C03C0
ENDCHAR
STARTCHAR 00A9
ENCODING 169
SWIDTH 800 0
DWIDTH 40 0
BBX 36 36 2 -1
BITMAP
000FFF8000
007FFFE000
00FFFFF800
03FFFFFC00
07F801FE00
0FE0003F00
0F80001F80
1F00000FC0
3E03FE07C0
3E0FFF03E0
7C1FFF83E0
7C3FDFC1E0
783E03E1F0
787C01E0F0
F87801F0F0
F0780000F0
F0780000F0
F0F80000F0
F0780000F0
F0780000F0
F87800F0F0
F87C01F0F0
783E03E1F0
7C3F8FE1E0
7C1FFFC3E0
3E0FFF83E0
3E03FE07C0
1F00200FC0
1F80001F80
0FE0003F00
07F800FE00
03FFFFFC00
01FFFFF800
007FFFF000
001FFF8000
0001FC0000
ENDCHAR
STARTCHAR 00AA
ENCODING 170
SWIDTH 160 0
DWIDTH 8 0
BBX 8 7 0 20
BITMAP
7F
7F
E7
E7
E7
7F
37
ENDCHAR
STARTCHAR 00AB
ENCODING 171
SWIDTH 700 0
DWIDTH 35 0
BBX 31 21 2 5
BITMAP
007F00FE
00FE01FC
01FC03F8
03F807F0
07F00FE0
0FE01FC0
1FC03F80
1F807F00
3F807E00
7F00FE00
FE01FC00
7F00FE00
3F807E00
1F803F00
0FC03F80
0FE01FC0
07F00FE0
03F807F0
01FC03F8
00FE01FC
007F00FE
ENDCHAR
STARTCHAR 00AC
ENCODING 172
SWIDTH 640 0
DWIDTH 32 0
BBX 25 14 4 13
BITMAP
FFFFFF80
FFFFFF80
FFFFFF80
FFFFFF80
FFFFFF80
FFFFFF80
00001F80
00001F80
00001F80
00001F80
00001F80
00001F80
00001F80
00001F80
ENDCHAR
STARTCHAR 00AD
ENCODING 173
SWIDTH 600 0
DWIDTH 30 0
BBX 18 5 6 13
BITMAP
FFFFC0
FFFFC0
FFFFC0
FFFFC0
FFFFC0
ENDCHAR
STARTCHAR 00AE
ENCODING 174
SWIDTH 340 0
DWIDTH 17 0
BBX 13 13 2 22
BITMAP
0F80
3FE0
7070
6F30
CD98
CD98
CF18
CD18
6DB0
6030
38E0
1FC0
0200
ENDCHAR
STARTCHAR 00AF
ENCODING 175
SWIDTH 380 0
DWIDTH 19 0
BBX 17 4 1 32
BITMAP
FFFF80
FFFF80
FFFF80
FFFF80
ENDCHAR
STARTCHAR 00B0
ENCODING 176
SWIDTH 320 0
DWIDTH 16 0
BBX 11 11 3 33
BITMAP
1E00
7F80
7FC0
F3C0
E1E0
E1E0
E1E0
F3C0
7FC0
7F80
1E00
ENDCHAR
STARTCHAR 00B1
ENCODING 177
SWIDTH 600 0
DWIDTH 30 0
BBX 21 30 5 0
BITMAP
01F800
01F800
01F800
01F800
01F800
01F800
01F800
01F800
FFFFF8
FFFFF8
FFFFF8
FFFFF8
FFFFF8
FFFFF8
01F800
01F800
01F800
01F800
01F800
01F800
01F800
000000
000000
000000
000000
000000
FFFFF8
FFFFF8
FFFFF8
FFFFF8
ENDCHAR
STARTCHAR 00B2
ENCODING 178
SWIDTH 300 0
DWIDTH 15 0
BBX 13 19 1 19
BITMAP
1FC0
3FE0
7FF0
7CF8
F878
F078
F078
0078
00F0
01F0
03E0
07C0
1F80
3E00
7C00
FFF8
FFF8
FFF8
FFF8
ENDCHAR
STARTCHAR 00B3
ENCODING 179
SWIDTH 320 0
DWIDTH 16 0
BBX 14 19 1 19
BITMAP
0FE0
3FF0
7FF8
7C7C
783C
003C
007C
03F8
03F0
03F0
03F8
007C
003C
F83C
F87C
7FFC
7FF8
3FF0
0FE0
ENDCHAR
STARTCHAR 00B4
ENCODING 180
SWIDTH 280 0
DWIDTH 14 0
BBX 11 10 2 31
BITMAP
0FE0
0FE0
1FC0
1F80
3F80
3F00
7E00
7E00
FC00
F800
ENDCHAR
STARTCHAR 00B5
ENCODING 181
SWIDTH 660 0
DWIDTH 33 0
BBX 28 37 3 -11
BITMAP
FE00FE00
FE00FE00
FE00FE00
FE00FE00
FE00FE00
FE00FE00
FE00FE00
FE00FE00
FE00FE00
FE00FE00
FE00FE00
FE00FE00
FE00FE00
FE00FE00
FE00FE00
FE00FE00
FE01FE00
FE01FE00
FE01FE00
FF03FE00
FF8FFF00
FFFFFFF0
FFFE7FF0
FFFE7FF0
FFFC3FF0
FFF01FF0
FC000000
FC000000
FC000000
FE000000
FE000000
FE000000
FE000000
FE000000
FE000000
FE000000
FE000000
ENDCHAR
STARTCHAR 00B6
ENCODING 182
SWIDTH 560 0
DWIDTH 28 0
BBX 25 35 1 0
BITMAP
03FFFF80
0FFFFF80
1FFFFF80
3FFFFF80
7FFFFF80
7FFFFF80
FFFF8780
FFFF8780
FFFF8780
FFFF8780
FFFF8780
FFFF8780
FFFF8780
FFFF8780
7FFF8780
3FFF8780
3FFF8780
0FFF8780
03FF8780
00078780
00078780
00078780
00078780
00078780
00078780
00078780
00078780
00078780
00078780
00078780
00078780
00078780
00078780
00078780
00078780
ENDCHAR
STARTCHAR 00B7
ENCODING 183
SWIDTH 300 0
DWIDTH 15 0
BBX 8 8 4 14
BITMAP
3C
7E
FE
FF
FF
FE
7E
38
ENDCHAR
STARTCHAR 00B8
ENCODING 184
SWIDTH 240 0
DWIDTH 12 0
BBX 9 12 2 -12
BITMAP
7000
F000
FC00
FF00
FF80
0780
0380
0380
8780
FF80
FF00
FE00
ENDCHAR
STARTCHAR 00B9
ENCODING 185
SWIDTH 280 0
DWIDTH 14 0
BBX 12 18 1 20
BITMAP
1F00
3F00
7F00
FF00
FF00
EF00
CF00
8F00
0F00
0F00
0F00
0F00
0F00
0F00
0F00
FFF0
FFF0
FFF0
ENDCHAR
STARTCHAR 00BA
ENCODING 186
SWIDTH 160 0
DWIDTH 8 0
BBX 7 8 1 19
BITMAP
38
FC
CE
CE
CE
CE
FC
78
ENDCHAR
STARTCHAR 00BB
ENCODING 187
SWIDTH 700 0
DWIDTH 35 0
BBX 31 21 2 5
BITMAP
FE01FC00
7F00FE00
3F807F00
1FC03F80
0FE01FC0
07F00FE0
03F807F0
01FC03F8
00FE01F8
007E01FC
007F00FE
007E01FC
00FC01F8
01FC03F0
03F807F0
07F00FE0
0FE01FC0
1FC03F80
3F807F00
7F00FE00
FE01FC00
ENDCHAR
STARTCHAR 00BC
ENCODING 188
SWIDTH 840 0
DWIDTH 42 0
BBX 38 35 2 0
BITMAP
1F00001F80
3F00001F80
7F00003F00
FF00007F00
FF00007E00
FF0000FC00
EF0000FC00
8F0001F800
0F0001F800
0F0003F000
0F0007E000
0F0007E000
0F000FC000
FFF00FC000
FFF01F8000
FFF03F0000
FFF03F0000
FFF07E03F0
00007E03F0
0000FC07F0
0001F807F0
0001F80FF0
0003F01EF0
0003F01CF0
0007E03CF0
000FC038F0
000FC078F0
001F80FFFC
001F80FFFC
003F00FFFC
007F00FFFC
007E0000F0
00FC0000F0
00FC0000F0
01F80000F0
ENDCHAR
STARTCHAR 00BD
ENCODING 189
SWIDTH 880 0
DWIDTH 44 0
BBX 41 35 2 0
BITMAP
1F000007E000
3F00000FC000
7F00001FC000
FF00001F8000
FF00003F0000
FF00003F0000
EF00007E0000
8F00007E0000
0F0000FC0000
0F0001F80000
0F0001F80000
0F0003F00000
0F0003F00000
FFF007E00000
FFF00FE00000
FFF00FC00000
FFF01F800000
FFF01F80F800
00003F03FE00
00007F07FF00
00007E07FF00
0000FC0F9F00
0000FC0F8F00
0001F80F0F00
0003F8000F00
0003F0001F00
0007E0003E00
0007E0007C00
000FC001F800
001FC003F000
001F8007E000
003F000FFF80
003F000FFF80
007E000FFF80
00FE000FFF80
ENDCHAR
STARTCHAR 00BE
ENCODING 190
SWIDTH 840 0
DWIDTH 42 0
BBX 39 35 2 0
BITMAP
1FE0000FC0
3FF0001F80
7FF8001F80
7FF8003F00
F8F8007F00
0078007E00
00F800FC00
07F000FC00
07E001F800
07F003F800
01F803F000
007807E000
F07807E000
F8F80FC000
FFF81FC000
7FF81F8000
3FF03F0000
1FC03F01F8
00007E03F8
0000FE03F8
0000FC07F8
0001F807F8
0001F80FF8
0003F01EF8
0007F01CF8
0007E03CF8
000FC038F8
000FC07FFE
001F807FFE
003F807FFE
003F007FFE
007E0000F8
007E0000F8
00FC0000F8
00FC0000F8
ENDCHAR
STARTCHAR 00BF
ENCODING 191
SWIDTH 560 0
DWIDTH 28 0
BBX 25 36 2 -12
BITMAP
001E0000
003F0000
007F0000
007F8000
007F8000
003F0000
003F0000
00080000
00000000
00000000
00000000
003F0000
007F0000
007F0000
00FF0000
01FE0000
03FC0000
07F80000
0FF00000
1FE00000
3FC00000
3F800000
7F800000
7F000000
7F003F80
FF003F80
7F007F80
7F007F00
7F80FF00
7FC1FF00
7FFFFE00
3FFFFE00
1FFFFC00
0FFFF800
07FFE000
01FF8000
ENDCHAR
STARTCHAR 00C0
ENCODING 192
SWIDTH 660 0
DWIDTH 33 0
BBX 32 49 1 0
BITMAP
01FC0000
01FC0000
00FE0000
007E0000
007F0000
003F0000
001F8000
001F8000
000FC000
0007C000
00000000
00000000
00000000
00000000
0007E000
000FF000
000FF000
001FF000
001FF800
001FF800
003FFC00
003FFC00
003FFC00
007EFE00
007E7E00
007E7E00
00FC7F00
00FC3F00
00FC3F00
01FC3F80
01F81F80
03F81FC0
03F81FC0
03F00FC0
07F00FE0
07FFFFE0
07FFFFE0
0FFFFFF0
0FFFFFF0
0FFFFFF0
1FC003F8
1FC003F8
3F8001F8
3F8001FC
3F8001FC
7F0000FE
7F0000FE
7F0000FE
FE00007F
ENDCHAR
STARTCHAR 00C1
ENCODING 193
SWIDTH 660 0
DWIDTH 33 0
BBX 32 49 1 0
BITMAP
00003F80
00003F00
00007F00
00007E00
0000FC00
0000FC00
0001F800
0001F800
0003F000
0003E000
00000000
00000000
00000000
00000000
0007E000
000FF000
000FF000
001FF000
001FF800
001FF800
003FFC00
003FFC00
003FFC00
007EFE00
007E7E00
007E7E00
00FC7F00
00FC3F00
00FC3F00
01FC3F80
01F81F80
03F81FC0
03F81FC0
03F00FC0
07F00FE0
07FFFFE0
07FFFFE0
0FFFFFF0
0FFFFFF0
0FFFFFF0
1FC003F8
1FC003F8
3F8001F8
3F8001FC
3F8001FC
7F0000FE
7F0000FE
7F0000FE
FE00007F
ENDCHAR
STARTCHAR 00C2
ENCODING 194
SWIDTH 660 0
DWIDTH 33 0
BBX 32 46 1 0
BITMAP
0007E000
000FF000
001FF800
003FFC00
007FFE00
00FE7F00
01FC3F80
01F81F80
00000000
00000000
00000000
0007E000
000FF000
000FF000
001FF000
001FF800
001FF800
003FFC00
003FFC00
003FFC00
007EFE00
007E7E00
007E7E00
00FC7F00
00FC3F00
00FC3F00
01FC3F80
01F81F80
03F81FC0
03F81FC0
03F00FC0
07F00FE0
07FFFFE0
07FFFFE0
0FFFFFF0
0FFFFFF0
0FFFFFF0
1FC003F8
1FC003F8
3F8001F8
3F8001FC
3F8001FC
7F0000FE
7F0000FE
7F0000FE
FE00007F
ENDCHAR
STARTCHAR 00C3
ENCODING 195
SWIDTH 660 0
DWIDTH 33 0
BBX 32 46 1 0
BITMAP
001E0F00
007F8F00
007FFF00
00FFFE00
00FFFE00
00F1FC00
00E00000
00000000
00000000
00000000
00000000
0007E000
000FF000
000FF000
001FF000
001FF800
001FF800
003FFC00
003FFC00
003FFC00
007EFE00
007E7E00
007E7E00
00FC7F00
00FC3F00
00FC3F00
01FC3F80
01F81F80
03F81FC0
03F81FC0
03F00FC0
07F00FE0
07FFFFE0
07FFFFE0
0FFFFFF0
0FFFFFF0
0FFFFFF0
1FC003F8
1FC003F8
3F8001F8
3F8001FC
3F8001FC
7F0000FE
7F0000FE
7F0000FE
FE00007F
ENDCHAR
STARTCHAR 00C4
ENCODING 196
SWIDTH 660 0
DWIDTH 33 0
BBX 32 47 1 0
BITMAP
01F00F80
01F81FC0
03FC1FC0
03FC1FC0
03FC1FC0
03F81FC0
01F00F80
00000000
00000000
00000000
00000000
00000000
0007E000
000FF000
000FF000
001FF000
001FF800
001FF800
003FFC00
003FFC00
003FFC00
007EFE00
007E7E00
007E7E00
00FC7F00
00FC3F00
00FC3F00
01FC3F80
01F81F80
03F81FC0
03F81FC0
03F00FC0
07F00FE0
07FFFFE0
07FFFFE0
0FFFFFF0
0FFFFFF0
0FFFFFF0
1FC003F8
1FC003F8
3F8001F8
3F8001FC
3F8001FC
7F0000FE
7F0000FE
7F0000FE
FE00007F
ENDCHAR
STARTCHAR 00C5
ENCODING 197
SWIDTH 660 0
DWIDTH 33 0
BBX 32 49 1 0
BITMAP
00008000
0007E000
000FF000
001E7000
001C3800
001C3800
001C3800
001FF000
000FF000
0007E000
00000000
00000000
00000000
00000000
0007E000
000FF000
000FF000
001FF000
001FF800
001FF800
003FFC00
003FFC00
003FFC00
007EFE00
007E7E00
007E7E00
00FC7F00
00FC3F00
00FC3F00
01FC3F80
01F81F80
03F81FC0
03F81FC0
03F00FC0
07F00FE0
07FFFFE0
07FFFFE0
0FFFFFF0
0FFFFFF0
0FFFFFF0
1FC003F8
1FC003F8
3F8001F8
3F8001FC
3F8001FC
7F0000FE
7F0000FE
7F0000FE
FE00007F
ENDCHAR
STARTCHAR 00C6
ENCODING 198
SWIDTH 960 0
DWIDTH 48 0
BBX 46 35 0 0
BITMAP
00007FFFFFFC
00007FFFFFFC
0000FFFFFFFC
0000FFFFFFFC
0001FFFFFFFC
0001FFFFFFFC
0003FDFC0000
0003FDFC0000
0007F9FC0000
0007F9FC0000
000FF1FC0000
000FF1FC0000
001FE1FC0000
001FE1FC0000
003FC1FFFFF0
003FC1FFFFF0
007F81FFFFF0
007F81FFFFF0
00FF01FFFFF0
00FF01FFFFF0
01FE01FC0000
01FFFFFC0000
03FFFFFC0000
03FFFFFC0000
07FFFFFC0000
07FFFFFC0000
0FF001FC0000
0FF001FC0000
1FE001FC0000
1FE001FFFFFC
3FC001FFFFFC
3FC001FFFFFC
7F8001FFFFFC
7F8001FFFFFC
FF0001FFFFFC
ENDCHAR
STARTCHAR 00C7
ENCODING 199
SWIDTH 680 0
DWIDTH 34 0
BBX 31 49 2 -13
BITMAP
0007E000
003FFC00
00FFFF00
03FFFFC0
07FFFFE0
0FFFFFF0
0FFE7FF0
1FF00FF8
3FC003FC
3FC001FC
7F8001FC
7F8000FE
7F0000FE
7F000000
FF000000
FE000000
FE000000
FE000000
FE000000
FE000000
FE000000
FF000000
FF000000
7F000000
7F0000FE
7F8000FE
3F8001FC
3FC003FC
3FE007F8
1FF00FF8
0FFFFFF0
07FFFFE0
03FFFFC0
01FFFF80
00FFFF00
003FFC00
00038000
00078000
0007E000
0007F800
0007FC00
00003C00
00001C00
00001C00
00043C00
0007FC00
0007F800
0007F000
00008000
ENDCHAR
STARTCHAR 00C8
ENCODING 200
SWIDTH 560 0
DWIDTH 28 0
BBX 23 49 3 0
BITMAP
3F8000
1FC000
1FC000
0FE000
07E000
07F000
03F000
01F800
01F800
00FC00
000000
000000
000000
000000
FFFFFE
FFFFFE
FFFFFE
FFFFFE
FFFFFE
FFFFFE
FE0000
FE0000
FE0000
FE0000
FE0000
FE0000
FE0000
FE0000
FFFFF8
FFFFF8
FFFFF8
FFFFF8
FFFFF8
FFFFF8
FE0000
FE0000
FE0000
FE0000
FE0000
FE0000
FE0000
FE0000
FE0000
FFFFFE
FFFFFE
FFFFFE
FFFFFE
FFFFFE
FFFFFE
ENDCHAR
STARTCHAR 00C9
ENCODING 201
SWIDTH 560 0
DWIDTH 28 0
BBX 23 49 3 0
BITMAP
0003F8
0007F0
0007E0
000FE0
000FC0
001F80
001F80
003F00
003E00
007E00
000000
000000
000000
000000
FFFFFE
FFFFFE
FFFFFE
FFFFFE
FFFFFE
FFFFFE
FE0000
FE0000
FE0000
FE0000
FE0000
FE0000
FE0000
FE0000
FFFFF8
FFFFF8
FFFFF8
FFFFF8
FFFFF8
FFFFF8
FE0000
FE0000
FE0000
FE0000
FE0000
FE0000
FE0000
FE0000
FE0000
FFFFFE
FFFFFE
FFFFFE
FFFFFE
FFFFFE
FFFFFE
ENDCHAR
STARTCHAR 00CA
ENCODING 202
SWIDTH 560 0
DWIDTH 28 0
BBX 23 46 3 0
BITMAP
00FC00
01FE00
03FF00
03FF80
07EFC0
0FC7E0
1F83F0
3F01F8
000000
000000
000000
FFFFFE
FFFFFE
FFFFFE
FFFFFE
FFFFFE
FFFFFE
FE0000
FE0000
FE0000
FE0000
FE0000
FE0000
FE0000
FE0000
FFFFF8
FFFFF8
FFFFF8
FFFFF8
FFFFF8
FFFFF8
FE0000
FE0000
FE0000
FE0000
FE0000
FE0000
FE0000
FE0000
FE0000
FFFFFE
FFFFFE
FFFFFE
FFFFFE
FFFFFE
FFFFFE
ENDCHAR
STARTCHAR 00CB
ENCODING 203
SWIDTH 560 0
DWIDTH 28 0
BBX 23 47 3 0
BITMAP
1F00F0
3F81F8
3F83FC
7F83FC
3F83FC
3F81F8
1F01F8
000000
000000
000000
000000
000000
FFFFFE
FFFFFE
FFFFFE
FFFFFE
FFFFFE
FFFFFE
FE0000
FE0000
FE0000
FE0000
FE0000
FE0000
FE0000
FE0000
FFFFF8
FFFFF8
FFFFF8
FFFFF8
FFFFF8
FFFFF8
FE0000
FE0000
FE0000
FE0000
FE0000
FE0000
FE0000
FE0000
FE0000
FFFFFE
FFFFFE
FFFFFE
FFFFFE
FFFFFE
FFFFFE
ENDCHAR
STARTCHAR 00CC
ENCODING 204
SWIDTH 260 0
DWIDTH 13 0
BBX 13 49 -3 0
BITMAP
FE00
7F00
3F00
3F80
1F80
0FC0
0FC0
07E0
03E0
03F0
0000
0000
0000
0000
03F8
03F8
03F8
03F8
03F8
03F8
03F8
03F8
03F8
03F8
03F8
03F8
03F8
03F8
03F8
03F8
03F8
03F8
03F8
03F8
03F8
03F8
03F8
03F8
03F8
03F8
03F8
03F8
03F8
03F8
03F8
03F8
03F8
03F8
03F8
ENDCHAR
STARTCHAR 00CD
ENCODING 205
SWIDTH 260 0
DWIDTH 13 0
BBX 13 49 3 0
BITMAP
03F8
03F0
07F0
0FE0
0FC0
1FC0
1F80
3F00
3F00
7E00
0000
0000
0000
0000
FE00
FE00
FE00
FE00
FE00
FE00
FE00
FE00
FE00
FE00
FE00
FE00
FE00
FE00
FE00
FE00
FE00
FE00
FE00
FE00
FE00
FE00
FE00
FE00
FE00
FE00
FE00
FE00
FE00
FE00
FE00
FE00
FE00
FE00
FE00
ENDCHAR
STARTCHAR 00CE
ENCODING 206
SWIDTH 260 0
DWIDTH 13 0
BBX 19 46 -3 0
BITMAP
01F800
03FC00
07FE00
0FFF00
1FBF80
3F1F80
7F0FC0
FE07E0
000000
000000
000000
03F800
03F800
03F800
03F800
03F800
03F800
03F800
03F800
03F800
03F800
03F800
03F800
03F800
03F800
03F800
03F800
03F800
03F800
03F800
03F800
03F800
03F800
03F800
03F800
03F800
03F800
03F800
03F800
03F800
03F800
03F800
03F800
03F800
03F800
03F800
ENDCHAR
STARTCHAR 00CF
ENCODING 207
SWIDTH 260 0
DWIDTH 13 0
BBX 20 47 -3 0
BITMAP
7C03E0
FE07F0
FE07F0
FF07F0
FE07F0
FE07F0
7C03E0
000000
000000
000000
000000
000000
03F800
03F800
03F800
03F800
03F800
03F800
03F800
03F800
03F800
03F800
03F800
03F800
03F800
03F800
03F800
03F800
03F800
03F800
03F800
03F800
03F800
03F800
03F800
03F800
03F800
03F800
03F800
03F800
03F800
03F800
03F800
03F800
03F800
03F800
03F800
ENDCHAR
STARTCHAR 00D0
ENCODING 208
SWIDTH 700 0
DWIDTH 35 0
BBX 32 35 2 0
BITMAP
3FFFF000
3FFFFE00
3FFFFF80
3FFFFFC0
3FFFFFE0
3FFFFFF0
3F807FF8
3F800FF8
3F8007FC
3F8003FC
3F8001FE
3F8001FE
3F8000FE
3F8000FE
3F8000FE
FFFC00FF
FFFC00FF
FFFC00FF
FFFC00FF
3F8000FF
3F8000FE
3F8000FE
3F8000FE
3F8001FE
3F8001FE
3F8003FC
3F8007FC
3F800FF8
3F807FF8
3FFFFFF0
3FFFFFE0
3FFFFFC0
3FFFFF80
3FFFFE00
3FFFF000
ENDCHAR
STARTCHAR 00D1
ENCODING 209
SWIDTH 700 0
DWIDTH 35 0
BBX 29 46 3 0
BITMAP
00781E00
00FF1E00
01FFFC00
01FFFC00
01EFFC00
01C3F800
01C04000
00000000
00000000
00000000
00000000
FF0003F8
FF8003F8
FF8003F8
FFC003F8
FFE003F8
FFE003F8
FFF003F8
FFF003F8
FFF803F8
FFFC03F8
FFFC03F8
FFFE03F8
FEFE03F8
FEFF03F8
FE7F03F8
FE7F83F8
FE3FC3F8
FE1FC3F8
FE1FE3F8
FE0FE3F8
FE0FF3F8
FE07FBF8
FE03FBF8
FE03FFF8
FE01FFF8
FE01FFF8
FE00FFF8
FE007FF8
FE007FF8
FE003FF8
FE003FF8
FE001FF8
FE000FF8
FE000FF8
FE0007F8
ENDCHAR
STARTCHAR 00D2
ENCODING 210
SWIDTH 720 0
DWIDTH 36 0
BBX 32 49 2 0
BITMAP
01FC0000
00FC0000
00FE0000
007E0000
007F0000
003F0000
001F8000
001F8000
000FC000
0007C000
00000000
00000000
00000000
0007E000
003FFE00
00FFFF00
03FFFFC0
07FFFFE0
0FFFFFF0
1FFFFFF8
1FF00FF8
3FE007FC
3FC003FC
7F8001FE
7F8001FE
7F0000FE
7F0000FF
FF0000FF
FF0000FF
FF00007F
FE00007F
FE00007F
FE00007F
FE00007F
FF0000FF
FF0000FF
7F0000FF
7F0000FE
7F8001FE
7F8001FE
3FC003FC
3FE007FC
1FF81FF8
0FFFFFF8
0FFFFFF0
07FFFFE0
01FFFFC0
00FFFF00
003FFC00
ENDCHAR
STARTCHAR 00D3
ENCODING 211
SWIDTH 720 0
DWIDTH 36 0
BBX 32 49 2 0
BITMAP
00003F80
00003F80
00007F00
00007E00
0000FE00
0000FC00
0001F800
0001F800
0003F000
0003E000
00000000
00000000
00000000
0007E000
003FFE00
00FFFF00
03FFFFC0
07FFFFE0
0FFFFFF0
1FFFFFF8
1FF00FF8
3FE007FC
3FC003FC
7F8001FE
7F8001FE
7F0000FE
7F0000FF
FF0000FF
FF0000FF
FF00007F
FE00007F
FE00007F
FE00007F
FE00007F
FF0000FF
FF0000FF
7F0000FF
7F0000FE
7F8001FE
7F8001FE
3FC003FC
3FE007FC
1FF81FF8
0FFFFFF8
0FFFFFF0
07FFFFE0
01FFFFC0
00FFFF00
003FFC00
ENDCHAR
STARTCHAR 00D4
ENCODING 212
SWIDTH 720 0
DWIDTH 36 0
BBX 32 46 2 0
BITMAP
0007E000
000FF000
001FF800
003FFC00
007F7E00
007E7F00
00FC3F80
01F81FC0
00000000
00000000
0007E000
003FFE00
00FFFF00
03FFFFC0
07FFFFE0
0FFFFFF0
1FFFFFF8
1FF00FF8
3FE007FC
3FC003FC
7F8001FE
7F8001FE
7F0000FE
7F0000FF
FF0000FF
FF0000FF
FF00007F
FE00007F
FE00007F
FE00007F
FE00007F
FF0000FF
FF0000FF
7F0000FF
7F0000FE
7F8001FE
7F8001FE
3FC003FC
3FE007FC
1FF81FF8
0FFFFFF8
0FFFFFF0
07FFFFE0
01FFFFC0
00FFFF00
003FFC00
ENDCHAR
STARTCHAR 00D5
ENCODING 213
SWIDTH 720 0
DWIDTH 36 0
BBX 32 46 2 0
BITMAP
001E0700
007F8F00
007FFF00
00FFFF00
00FFFE00
00F0FC00
00F01000
00000000
00000000
00000000
0007E000
003FFE00
00FFFF00
03FFFFC0
07FFFFE0
0FFFFFF0
1FFFFFF8
1FF00FF8
3FE007FC
3FC003FC
7F8001FE
7F8001FE
7F0000FE
7F0000FF
FF0000FF
FF0000FF
FF00007F
FE00007F
FE00007F
FE00007F
FE00007F
FF0000FF
FF0000FF
7F0000FF
7F0000FE
7F8001FE
7F8001FE
3FC003FC
3FE007FC
1FF81FF8
0FFFFFF8
0FFFFFF0
07FFFFE0
01FFFFC0
00FFFF00
003FFC00
ENDCHAR
STARTCHAR 00D6
ENCODING 214
SWIDTH 720 0
DWIDTH 36 0
BBX 32 47 2 0
BITMAP
00F00F80
01F80FC0
03FC1FC0
03FC1FE0
03FC1FE0
01F81FC0
01F80F80
00000000
00000000
00000000
00000000
0007E000
003FFE00
00FFFF00
03FFFFC0
07FFFFE0
0FFFFFF0
1FFFFFF8
1FF00FF8
3FE007FC
3FC003FC
7F8001FE
7F8001FE
7F0000FE
7F0000FF
FF0000FF
FF0000FF
FF00007F
FE00007F
FE00007F
FE00007F
FE00007F
FF0000FF
FF0000FF
7F0000FF
7F0000FE
7F8001FE
7F8001FE
3FC003FC
3FE007FC
1FF81FF8
0FFFFFF8
0FFFFFF0
07FFFFE0
01FFFFC0
00FFFF00
003FFC00
ENDCHAR
STARTCHAR 00D7
ENCODING 215
SWIDTH 580 0
DWIDTH 29 0
BBX 19 19 5 6
BITMAP
080300
1C0780
3E0FC0
7F1FE0
FFBFE0
7FFFC0
3FFF80
1FFF00
0FFE00
07FC00
0FFE00
1FFF00
3FFF80
7FFFC0
FFBFE0
7F1FC0
3E0F80
1C0700
080200
ENDCHAR
STARTCHAR 00D8
ENCODING 216
SWIDTH 740 0
DWIDTH 37 0
BBX 33 39 2 -2
BITMAP
0000003F00
0003C07E00
003FFEFE00
00FFFFFC00
01FFFFF800
03FFFFF800
07FFFFF000
0FFFFFF800
1FF80FFC00
1FE00FFC00
3FC01FFE00
3FC03FFE00
7F803FFE00
7F807EFF00
7F007EFF00
7F00FC7F00
7F01FC7F00
7F01F87F00
FF03F07F00
FF07F07F80
FF07E07F00
7F0FC07F00
7F1FC07F00
7F1F807F00
7F3F00FF00
7FFF00FF00
7FFE00FE00
3FFE01FE00
3FFC03FE00
1FF807FC00
1FF80FFC00
0FFFFFF800
07FFFFF000
0FFFFFE000
0FFFFFC000
1FFFFF8000
3F9FFC0000
3F00000000
7E00000000
ENDCHAR
STARTCHAR 00D9
ENCODING 217
SWIDTH 680 0
DWIDTH 34 0
BBX 28 50 3 -1
BITMAP
07F00000
03F00000
03F80000
01F80000
01FC0000
00FC0000
007E0000
007E0000
003F0000
001F0000
00000000
00000000
00000000
00000000
FE0003F0
FE0003F0
FE0003F0
FE0003F0
FE0003F0
FE0003F0
FE0003F0
FE0003F0
FE0003F0
FE0003F0
FE0003F0
FE0003F0
FE0003F0
FE0003F0
FE0003F0
FE0003F0
FE0003F0
FE0003F0
FE0003F0
FE0003F0
FE0003F0
FE0007F0
FE0007F0
FE0007F0
FF0007F0
FF000FF0
7F800FF0
7F801FE0
7FE07FE0
3FFFFFC0
1FFFFF80
0FFFFF80
07FFFE00
03FFFC00
00FFF000
00060000
ENDCHAR
STARTCHAR 00DA
ENCODING 218
SWIDTH 680 0
DWIDTH 34 0
BBX 28 50 3 -1
BITMAP
0000FE00
0000FE00
0001FC00
0001F800
0003F800
0003F000
0007E000
0007E000
000FC000
000F8000
00000000
00000000
00000000
00000000
FE0003F0
FE0003F0
FE0003F0
FE0003F0
FE0003F0
FE0003F0
FE0003F0
FE0003F0
FE0003F0
FE0003F0
FE0003F0
FE0003F0
FE0003F0
FE0003F0
FE0003F0
FE0003F0
FE0003F0
FE0003F0
FE0003F0
FE0003F0
FE0003F0
FE0007F0
FE0007F0
FE0007F0
FF0007F0
FF000FF0
7F800FF0
7F801FE0
7FE07FE0
3FFFFFC0
1FFFFF80
0FFFFF80
07FFFE00
03FFFC00
00FFF000
00060000
ENDCHAR
STARTCHAR 00DB
ENCODING 219
SWIDTH 680 0
DWIDTH 34 0
BBX 28 47 3 -1
BITMAP
001F8000
003FC000
007FE000
00FFF000
01FDF800
01F9FC00
03F0FE00
07E07F00
00000000
00000000
00000000
FE0003F0
FE0003F0
FE0003F0
FE0003F0
FE0003F0
FE0003F0
FE0003F0
FE0003F0
FE0003F0
FE0003F0
FE0003F0
FE0003F0
FE0003F0
FE0003F0
FE0003F0
FE0003F0
FE0003F0
FE0003F0
FE0003F0
FE0003F0
FE0003F0
FE0007F0
FE0007F0
FE0007F0
FF0007F0
FF000FF0
7F800FF0
7F801FE0
7FE07FE0
3FFFFFC0
1FFFFF80
0FFFFF80
07FFFE00
03FFFC00
00FFF000
00060000
ENDCHAR
STARTCHAR 00DC
ENCODING 220
SWIDTH 680 0
DWIDTH 34 0
BBX 28 48 3 -1
BITMAP
03C03E00
07E03F00
0FF07F00
0FF07F80
0FF07F80
07E07F00
07E03E00
00000000
00000000
00000000
00000000
00000000
FE0003F0
FE0003F0
FE0003F0
FE0003F0
FE0003F0
FE0003F0
FE0003F0
FE0003F0
FE0003F0
FE0003F0
FE0003F0
FE0003F0
FE0003F0
FE0003F0
FE0003F0
FE0003F0
FE0003F0
FE0003F0
FE0003F0
FE0003F0
FE0003F0
FE0007F0
FE0007F0
FE0007F0
FF0007F0
FF000FF0
7F800FF0
7F801FE0
7FE07FE0
3FFFFFC0
1FFFFF80
0FFFFF80
07FFFE00
03FFFC00
00FFF000
00060000
ENDCHAR
STARTCHAR 00DD
ENCODING 221
SWIDTH 640 0
DWIDTH 32 0
BBX 30 49 1 0
BITMAP
00007F00
00007F00
0000FE00
0000FC00
0001FC00
0001F800
0003F000
0003F000
0007E000
0007C000
00000000
00000000
00000000
00000000
FF0001FC
7F0003F8
3F8003F8
3F8007F0
1FC007F0
1FC00FE0
0FE00FE0
0FE01FC0
07F01FC0
07F03F80
03F83F80
03F87F00
01F87F00
01FCFE00
00FCFE00
00FFFC00
007FFC00
007FF800
003FF800
003FF000
001FF000
001FE000
000FE000
000FE000
000FE000
000FE000
000FE000
000FE000
000FE000
000FE000
000FE000
000FE000
000FE000
000FE000
000FE000
ENDCHAR
STARTCHAR 00DE
ENCODING 222
SWIDTH 600 0
DWIDTH 30 0
BBX 25 35 3 0
BITMAP
FE000000
FE000000
FE000000
FE000000
FE000000
FE000000
FFFFC000
FFFFF000
FFFFFC00
FFFFFE00
FFFFFE00
FFFFFF00
FE00FF00
FE007F80
FE003F80
FE003F80
FE001F80
FE001F80
FE001F80
FE003F80
FE003F80
FE003F80
FE00FF00
FE07FF00
FFFFFE00
FFFFFE00
FFFFFC00
FFFFF000
FFFFC000
FE000000
FE000000
FE000000
FE000000
FE000000
FE000000
ENDCHAR
STARTCHAR 00DF
ENCODING 223
SWIDTH 580 0
DWIDTH 29 0
BBX 24 37 3 -1
BITMAP
00FF00
07FFC0
1FFFF0
3FFFF8
3FFFFC
7FFFFC
7F01FE
FF00FE
FE007E
FE007F
FE007F
FE007E
FE007E
FE00FE
FE07FC
FE7FF8
FE7FF0
FE7FC0
FE7FF0
FE7FFC
FE01FE
FE007E
FE003F
FE003F
FE003F
FE003F
FE003F
FE003F
FE007F
FE00FF
FE47FE
FE7FFE
FE7FFC
FE7FF8
FE7FF0
FE7FC0
000800
ENDCHAR
STARTCHAR 00E0
ENCODING 224
SWIDTH 600 0
DWIDTH 30 0
BBX 26 40 2 0
BITMAP
0FE00000
07F00000
03F00000
03F80000
01F80000
00FC0000
00FC0000
007E0000
003E0000
003F0000
00000000
00000000
00000000
01FC0000
07FF1FC0
0FFF9FC0
1FFFDFC0
3FFFDFC0
7FFFFFC0
7FC0FFC0
7F807FC0
FF003FC0
FF003FC0
FE003FC0
FE001FC0
FE001FC0
FE001FC0
FE001FC0
FE001FC0
FE003FC0
FE003FC0
FF003FC0
7F007FC0
7F80FFC0
7FE1FFC0
3FFFDFC0
3FFFDFC0
1FFF9FC0
0FFF1FC0
03FE1FC0
ENDCHAR
STARTCHAR 00E1
ENCODING 225
SWIDTH 600 0
DWIDTH 30 0
BBX 26 40 2 0
BITMAP
0000FC00
0001FC00
0003F800
0003F000
0007F000
0007E000
000FC000
000FC000
001F8000
001F0000
00000000
00000000
00000000
01FC0000
07FF1FC0
0FFF9FC0
1FFFDFC0
3FFFDFC0
7FFFFFC0
7FC0FFC0
7F807FC0
FF003FC0
FF003FC0
FE003FC0
FE001FC0
FE001FC0
FE001FC0
FE001FC0
FE001FC0
FE003FC0
FE003FC0
FF003FC0
7F007FC0
7F80FFC0
7FE1FFC0
3FFFDFC0
3FFFDFC0
1FFF9FC0
0FFF1FC0
03FE1FC0
ENDCHAR
STARTCHAR 00E2
ENCODING 226
SWIDTH 600 0
DWIDTH 30 0
BBX 26 38 2 0
BITMAP
001F0000
003F8000
007FC000
00FFE000
01FFF000
03FBF800
07F1F800
0FE0FC00
00000200
00000000
00000000
01FC0000
07FF1FC0
0FFF9FC0
1FFFDFC0
3FFFDFC0
7FFFFFC0
7FC0FFC0
7F807FC0
FF003FC0
FF003FC0
FE003FC0
FE001FC0
FE001FC0
FE001FC0
FE001FC0
FE001FC0
FE003FC0
FE003FC0
FF003FC0
7F007FC0
7F80FFC0
7FE1FFC0
3FFFDFC0
3FFFDFC0
1FFF9FC0
0FFF1FC0
03FE1FC0
ENDCHAR
STARTCHAR 00E3
ENCODING 227
SWIDTH 600 0
DWIDTH 30 0
BBX 26 37 2 0
BITMAP
01F83800
03FE7800
03FFF800
03FFF800
078FF000
0783E000
00000000
00000000
00000000
00000000
01FC0000
07FF1FC0
0FFF9FC0
1FFFDFC0
3FFFDFC0
7FFFFFC0
7FC0FFC0
7F807FC0
FF003FC0
FF003FC0
FE003FC0
FE001FC0
FE001FC0
FE001FC0
FE001FC0
FE001FC0
FE003FC0
FE003FC0
FF003FC0
7F007FC0
7F80FFC0
7FE1FFC0
3FFFDFC0
3FFFDFC0
1FFF9FC0
0FFF1FC0
03FE1FC0
ENDCHAR
STARTCHAR 00E4
ENCODING 228
SWIDTH 600 0
DWIDTH 30 0
BBX 26 39 2 0
BITMAP
03001800
07C07E00
0FE07F00
0FE0FF00
1FE0FF00
0FE0FF00
0FC07E00
07803C00
00000000
00000000
00000000
00000000
01FC0000
07FF1FC0
0FFF9FC0
1FFFDFC0
3FFFDFC0
7FFFFFC0
7FC0FFC0
7F807FC0
FF003FC0
FF003FC0
FE003FC0
FE001FC0
FE001FC0
FE001FC0
FE001FC0
FE001FC0
FE003FC0
FE003FC0
FF003FC0
7F007FC0
7F80FFC0
7FE1FFC0
3FFFDFC0
3FFFDFC0
1FFF9FC0
0FFF1FC0
03FE1FC0
ENDCHAR
STARTCHAR 00E5
ENCODING 229
SWIDTH 600 0
DWIDTH 30 0
BBX 26 40 2 0
BITMAP
001E0000
003F8000
007FC000
0071C000
00E1C000
00E1C000
0071C000
007FC000
003F8000
001E0000
00000000
00000000
00000000
01FC0000
07FF1FC0
0FFF9FC0
1FFFDFC0
3FFFDFC0
7FFFFFC0
7FC0FFC0
7F807FC0
FF003FC0
FF003FC0
FE003FC0
FE001FC0
FE001FC0
FE001FC0
FE001FC0
FE001FC0
FE003FC0
FE003FC0
FF003FC0
7F007FC0
7F80FFC0
7FE1FFC0
3FFFDFC0
3FFFDFC0
1FFF9FC0
0FFF1FC0
03FE1FC0
ENDCHAR
STARTCHAR 00E6
ENCODING 230
SWIDTH 900 0
DWIDTH 45 0
BBX 42 27 2 0
BITMAP
00FE003F8000
03FFC0FFF000
0FFFE3FFF800
1FFFF7FFFC00
3FFFFFFFFE00
3FE7FFF3FF00
7F81FFC07F00
7F00FF803F00
7E00FF003F80
00007F001F80
00007F001F80
000FFFFFFF80
03FFFFFFFF80
1FFFFFFFFF80
3FFFFFFFFFC0
7FFFFFFFFFC0
7F007F000000
FE007F000000
FE007F000000
FE00FF803F80
FE00FF807F80
FF03FFE0FF00
7FFFEFFFFE00
7FFFCFFFFE00
3FFF87FFFC00
1FFF01FFF000
07FC00FFE000
ENDCHAR
STARTCHAR 00E7
ENCODING 231
SWIDTH 560 0
DWIDTH 28 0
BBX 25 39 2 -12
BITMAP
007F8000
03FFE000
07FFF800
0FFFFC00
1FFFFC00
3FFFFE00
3FC0FF00
7F807F00
7F007F00
7E003F80
FE003F80
FE000000
FE000000
FE000000
FE000000
FE000000
FE000000
FE003F80
7F003F00
7F007F00
7F80FF00
3FE3FE00
1FFFFE00
1FFFFC00
0FFFF800
03FFF000
00FFC000
001C0000
001C0000
003F8000
003FC000
003FE000
0000E000
0000F000
0000F000
003BE000
003FE000
003FC000
003F8000
ENDCHAR
STARTCHAR 00E8
ENCODING 232
SWIDTH 560 0
DWIDTH 28 0
BBX 25 40 2 0
BITMAP
0FE00000
0FE00000
07F00000
03F00000
03F80000
01F80000
00FC0000
00FC0000
007E0000
003E0000
00000000
00000000
00000000
007F8000
03FFE000
07FFF000
0FFFFC00
1FFFFC00
3FC1FE00
3F807E00
7F007F00
7E003F00
7E003F00
FE003F80
FFFFFF80
FFFFFF80
FFFFFF80
FFFFFF80
FFFFFF80
FE000000
FE000000
7E000000
7F007F00
7F80FF00
3FC1FE00
1FFFFE00
1FFFFC00
0FFFF800
03FFF000
01FFC000
ENDCHAR
STARTCHAR 00E9
ENCODING 233
SWIDTH 560 0
DWIDTH 28 0
BBX 25 40 2 0
BITMAP
0001FC00
0003F800
0003F000
0007F000
0007E000
000FC000
000FC000
001F8000
001F0000
003F0000
00000000
00000000
00000000
007F8000
03FFE000
07FFF000
0FFFFC00
1FFFFC00
3FC1FE00
3F807E00
7F007F00
7E003F00
7E003F00
FE003F80
FFFFFF80
FFFFFF80
FFFFFF80
FFFFFF80
FFFFFF80
FE000000
FE000000
7E000000
7F007F00
7F80FF00
3FC1FE00
1FFFFE00
1FFFFC00
0FFFF800
03FFF000
01FFC000
ENDCHAR
STARTCHAR 00EA
ENCODING 234
SWIDTH 560 0
DWIDTH 28 0
BBX 25 38 2 0
BITMAP
003E0000
007F0000
00FF8000
01FFC000
01FFE000
03F7F000
07E3F800
0FC1FC00
00000000
00000000
00000000
007F8000
03FFE000
07FFF000
0FFFFC00
1FFFFC00
3FC1FE00
3F807E00
7F007F00
7E003F00
7E003F00
FE003F80
FFFFFF80
FFFFFF80
FFFFFF80
FFFFFF80
FFFFFF80
FE000000
FE000000
7E000000
7F007F00
7F80FF00
3FC1FE00
1FFFFE00
1FFFFC00
0FFFF800
03FFF000
01FFC000
ENDCHAR
STARTCHAR 00EB
ENCODING 235
SWIDTH 560 0
DWIDTH 28 0
BBX 25 39 2 0
BITMAP
03001800
0F807C00
1FC0FE00
1FC0FE00
1FE0FE00
1FC0FE00
0FC0FC00
07807800
00000000
00000000
00000000
00000000
007F8000
03FFE000
07FFF000
0FFFFC00
1FFFFC00
3FC1FE00
3F807E00
7F007F00
7E003F00
7E003F00
FE003F80
FFFFFF80
FFFFFF80
FFFFFF80
FFFFFF80
FFFFFF80
FE000000
FE000000
7E000000
7F007F00
7F80FF00
3FC1FE00
1FFFFE00
1FFFFC00
0FFFF800
03FFF000
01FFC000
ENDCHAR
STARTCHAR 00EC
ENCODING 236
SWIDTH 280 0
DWIDTH 14 0
BBX 13 40 -2 0
BITMAP
FE00
7E00
7F00
3F80
1F80
1FC0
0FC0
07E0
07E0
03F0
0000
0000
0000
0000
03F8
03F8
03F8
03F8
03F8
03F8
03F8
03F8
03F8
03F8
03F8
03F8
03F8
03F8
03F8
03F8
03F8
03F8
03F8
03F8
03F8
03F8
03F8
03F8
03F8
03F8
ENDCHAR
STARTCHAR 00ED
ENCODING 237
SWIDTH 280 0
DWIDTH 14 0
BBX 12 40 4 0
BITMAP
07F0
07E0
0FE0
0FC0
1F80
1F80
3F00
3E00
7E00
7C00
0000
0000
0000
0000
FE00
FE00
FE00
FE00
FE00
FE00
FE00
FE00
FE00
FE00
FE00
FE00
FE00
FE00
FE00
FE00
FE00
FE00
FE00
FE00
FE00
FE00
FE00
FE00
FE00
FE00
ENDCHAR
STARTCHAR 00EE
ENCODING 238
SWIDTH 280 0
DWIDTH 14 0
BBX 18 38 -2 0
BITMAP
01F000
03F800
07FC00
0FFC00
1FFE00
3F3F00
7E1F80
FE0FC0
000000
000000
000000
000000
03F800
03F800
03F800
03F800
03F800
03F800
03F800
03F800
03F800
03F800
03F800
03F800
03F800
03F800
03F800
03F800
03F800
03F800
03F800
03F800
03F800
03F800
03F800
03F800
03F800
03F800
ENDCHAR
STARTCHAR 00EF
ENCODING 239
SWIDTH 280 0
DWIDTH 14 0
BBX 21 39 -3 0
BITMAP
1800C0
7E03F0
7F07F0
FF07F8
FF07F8
FF07F0
7E03F0
3C01E0
000000
000000
000000
000000
000000
01FC00
01FC00
01FC00
01FC00
01FC00
01FC00
01FC00
01FC00
01FC00
01FC00
01FC00
01FC00
01FC00
01FC00
01FC00
01FC00
01FC00
01FC00
01FC00
01FC00
01FC00
01FC00
01FC00
01FC00
01FC00
01FC00
ENDCHAR
STARTCHAR 00F0
ENCODING 240
SWIDTH 600 0
DWIDTH 30 0
BBX 26 41 1 0
BITMAP
00F00000
00FF0100
00FFC780
00FFFF80
00FFFF80
007FFE00
0007FE00
000FFE00
001FFF00
001F7F00
000E7F80
00083F80
00003F80
00001FC0
01FC1FC0
07FF1FC0
0FFF9FC0
1FFFDFC0
3FFFFFC0
3FFFFFC0
7FC0FFC0
7F807FC0
7F003FC0
FF003FC0
FF001FC0
FE001FC0
FE001FC0
FE001FC0
FE001FC0
FE001FC0
FE001FC0
7F003F80
7F003F80
7F807F80
3F807F00
3FE1FF00
1FFFFE00
0FFFFC00
07FFF800
03FFF000
00FFC000
ENDCHAR
STARTCHAR 00F1
ENCODING 241
SWIDTH 600 0
DWIDTH 30 0
BBX 24 37 3 0
BITMAP
03F0F0
07FCF0
07FFF0
0FFFE0
0F3FE0
0F0FC0
000000
000000
000000
000000
000FE0
FE3FF8
FE7FFC
FEFFFC
FFFFFE
FFFFFE
FF81FF
FF00FF
FF007F
FE007F
FE007F
FE007F
FE007F
FE007F
FE007F
FE007F
FE007F
FE007F
FE007F
FE007F
FE007F
FE007F
FE007F
FE007F
FE007F
FE007F
FE007F
ENDCHAR
STARTCHAR 00F2
ENCODING 242
SWIDTH 580 0
DWIDTH 29 0
BBX 25 40 2 0
BITMAP
0FE00000
0FE00000
07F00000
03F00000
03F80000
01F80000
00FC0000
00FC0000
007E0000
003E0000
00000000
00000000
00000000
007F8000
03FFE000
07FFF000
0FFFFC00
1FFFFC00
3FFFFE00
3FC0FF00
7F807F00
7F007F80
7E003F80
FE003F80
FE003F80
FE003F80
FE003F80
FE003F80
FE003F80
FE003F80
FE003F80
7F003F80
7F007F00
7F80FF00
3FE3FE00
1FFFFE00
1FFFFC00
0FFFF800
03FFF000
01FFC000
ENDCHAR
STARTCHAR 00F3
ENCODING 243
SWIDTH 580 0
DWIDTH 29 0
BBX 25 40 2 0
BITMAP
0001FC00
0003F800
0003F000
0007F000
0007E000
000FC000
000FC000
001F8000
001F0000
003F0000
00000000
00000000
00000000
007F8000
03FFE000
07FFF000
0FFFFC00
1FFFFC00
3FFFFE00
3FC0FF00
7F807F00
7F007F80
7E003F80
FE003F80
FE003F80
FE003F80
FE003F80
FE003F80
FE003F80
FE003F80
FE003F80
7F003F80
7F007F00
7F80FF00
3FE3FE00
1FFFFE00
1FFFFC00
0FFFF800
03FFF000
01FFC000
ENDCHAR
STARTCHAR 00F4
ENCODING 244
SWIDTH 580 0
DWIDTH 29 0
BBX 25 38 2 0
BITMAP
003E0000
007F0000
00FF8000
01FFC000
01FFE000
03F7F000
07E3F800
0FC1FC00
10000000
00000000
00000000
007F8000
03FFE000
07FFF000
0FFFFC00
1FFFFC00
3FFFFE00
3FC0FF00
7F807F00
7F007F80
7E003F80
FE003F80
FE003F80
FE003F80
FE003F80
FE003F80
FE003F80
FE003F80
FE003F80
7F003F80
7F007F00
7F80FF00
3FE3FE00
1FFFFE00
1FFFFC00
0FFFF800
03FFF000
01FFC000
ENDCHAR
STARTCHAR 00F5
ENCODING 245
SWIDTH 580 0
DWIDTH 29 0
BBX 25 37 2 0
BITMAP
01F87800
03FE7800
07FFF000
07FFF000
079FF000
0707C000
00000000
00000000
00000000
00000000
007F8000
03FFE000
07FFF000
0FFFFC00
1FFFFC00
3FFFFE00
3FC0FF00
7F807F00
7F007F80
7E003F80
FE003F80
FE003F80
FE003F80
FE003F80
FE003F80
FE003F80
FE003F80
FE003F80
7F003F80
7F007F00
7F80FF00
3FE3FE00
1FFFFE00
1FFFFC00
0FFFF800
03FFF000
01FFC000
ENDCHAR
STARTCHAR 00F6
ENCODING 246
SWIDTH 580 0
DWIDTH 29 0
BBX 25 39 2 0
BITMAP
02003000
0F807C00
1FC0FE00
1FC0FE00
1FC1FE00
1FC0FE00
0FC0FC00
07807800
00000000
00000000
00000000
00000000
007F8000
03FFE000
07FFF000
0FFFFC00
1FFFFC00
3FFFFE00
3FC0FF00
7F807F00
7F007F80
7E003F80
FE003F80
FE003F80
FE003F80
FE003F80
FE003F80
FE003F80
FE003F80
FE003F80
7F003F80
7F007F00
7F80FF00
3FE3FE00
1FFFFE00
1FFFFC00
0FFFF800
03FFF000
01FFC000
ENDCHAR
STARTCHAR 00F7
ENCODING 247
SWIDTH 600 0
DWIDTH 30 0
BBX 21 27 4 2
BITMAP
00F800
01FC00
03FC00
03FC00
01FC00
01FC00
00F800
000000
000000
000000
000000
FFFFF8
FFFFF8
FFFFF8
FFFFF8
FFFFF8
000000
000000
000000
002000
00F800
01FC00
03FC00
03FC00
01FC00
01FC00
00F800
ENDCHAR
STARTCHAR 00F8
ENCODING 248
SWIDTH 580 0
DWIDTH 29 0
BBX 25 31 2 -2
BITMAP
00001F00
00003E00
007FBC00
03FFFC00
07FFF800
0FFFFC00
1FFFFE00
3FFFFE00
3FC3FF00
7F83FF00
7F07FF80
7E0FBF80
FE0FBF80
FE1F3F80
FE1F3F80
FE3E3F80
FE3E3F80
FE7C3F80
FEF83F80
FEF83F80
7FF03F80
7FF07F00
7FE0FF00
3FE3FE00
3FFFFE00
1FFFFC00
0FFFF800
1FFFF000
1FFFC000
3E000000
3E000000
ENDCHAR
STARTCHAR 00F9
ENCODING 249
SWIDTH 580 0
DWIDTH 29 0
BBX 24 41 3 -1
BITMAP
3F8000
1FC000
0FC000
0FE000
07E000
03F000
03F000
01F800
00F800
00FC00
000000
000000
000000
000000
FE007F
FE007F
FE007F
FE007F
FE007F
FE007F
FE007F
FE007F
FE007F
FE007F
FE007F
FE007F
FE007F
FE007F
FE007F
FE007F
FE007F
FE00FF
FF00FF
FF01FF
7FC7FF
7FFFFF
7FFF7F
3FFE7F
1FFE7F
0FF87F
008000
ENDCHAR
STARTCHAR 00FA
ENCODING 250
SWIDTH 580 0
DWIDTH 29 0
BBX 24 41 3 -1
BITMAP
0003F0
0007F0
0007E0
000FC0
001FC0
001F80
003F00
003F00
007E00
007C00
000000
000000
000000
000000
FE007F
FE007F
FE007F
FE007F
FE007F
FE007F
FE007F
FE007F
FE007F
FE007F
FE007F
FE007F
FE007F
FE007F
FE007F
FE007F
FE007F
FE00FF
FF00FF
FF01FF
7FC7FF
7FFFFF
7FFF7F
3FFE7F
1FFE7F
0FF87F
008000
ENDCHAR
STARTCHAR 00FB
ENCODING 251
SWIDTH 580 0
DWIDTH 29 0
BBX 24 39 3 -1
BITMAP
007C00
00FE00
01FF00
03FF80
07FFC0
0FEFE0
1FC7E0
1F83F0
200008
000000
000000
000000
FE007F
FE007F
FE007F
FE007F
FE007F
FE007F
FE007F
FE007F
FE007F
FE007F
FE007F
FE007F
FE007F
FE007F
FE007F
FE007F
FE007F
FE00FF
FF00FF
FF01FF
7FC7FF
7FFFFF
7FFF7F
3FFE7F
1FFE7F
0FF87F
008000
ENDCHAR
STARTCHAR 00FC
ENCODING 252
SWIDTH 580 0
DWIDTH 29 0
BBX 24 40 3 -1
BITMAP
060060
1F01F8
3F81FC
3F83FC
3F83FC
3F83FC
3F81F8
1E00F0
000000
000000
000000
000000
000000
FE007F
FE007F
FE007F
FE007F
FE007F
FE007F
FE007F
FE007F
FE007F
FE007F
FE007F
FE007F
FE007F
FE007F
FE007F
FE007F
FE007F
FE00FF
FF00FF
FF01FF
7FC7FF
7FFFFF
7FFF7F
3FFE7F
1FFE7F
0FF87F
008000
ENDCHAR
STARTCHAR 00FD
ENCODING 253
SWIDTH 540 0
DWIDTH 27 0
BBX 26 51 1 -11
BITMAP
0001FC00
0001F800
0003F800
0007F000
0007E000
000FE000
000FC000
001F8000
001F8000
003F0000
00000000
00000000
00000000
00000000
FE001FC0
7F003F80
7F003F80
7F003F80
3F807F00
3F807F00
1F807E00
1FC0FE00
1FC0FE00
0FC0FC00
0FC1FC00
0FE1F800
07E1F800
07E3F800
03F3F000
03F3F000
03F7F000
01FFE000
01FFE000
01FFC000
00FFC000
00FFC000
00FF8000
007F8000
007F0000
007F0000
007F0000
007E0000
00FE0000
00FE0000
01FC0000
03FC0000
7FF80000
7FF80000
7FF00000
7FE00000
7F800000
ENDCHAR
STARTCHAR 00FE
ENCODING 254
SWIDTH 620 0
DWIDTH 31 0
BBX 26 50 3 -12
BITMAP
FE000000
FE000000
FE000000
FE000000
FE000000
FE000000
FE000000
FE000000
FE000000
FE000000
FE000000
FE0FE000
FE3FF800
FE7FFC00
FEFFFE00
FFFFFE00
FFFFFF00
FFC0FF00
FF807F80
FF007F80
FF003F80
FE003F80
FE001FC0
FE001FC0
FE001FC0
FE001FC0
FE001FC0
FE003FC0
FE003F80
FF003F80
FF007F80
FF80FF80
FFE1FF00
FFFFFF00
FEFFFE00
FE7FFC00
FE3FF800
FE1FF000
FE000000
FE000000
FE000000
FE000000
FE000000
FE000000
FE000000
FE000000
FE000000
FE000000
FE000000
FE000000
ENDCHAR
STARTCHAR 00FF
ENCODING 255
SWIDTH 540 0
DWIDTH 27 0
BBX 26 50 1 -11
BITMAP
03003000
0FC07C00
1FC0FE00
1FE0FE00
1FE0FE00
1FE0FE00
0FC0FE00
07803C00
00000000
00000000
00000000
00000000
00000000
FE001FC0
7F003F80
7F003F80
7F003F80
3F807F00
3F807F00
1F807E00
1FC0FE00
1FC0FE00
0FC0FC00
0FC1FC00
0FE1F800
07E1F800
07E3F800
03F3F000
03F3F000
03F7F000
01FFE000
01FFE000
01FFC000
00FFC000
00FFC000
00FF8000
007F8000
007F0000
007F0000
007F0000
007E0000
00FE0000
00FE0000
01FC0000
03FC0000
7FF80000
7FF80000
7FF00000
7FE00000
7F800000
ENDCHAR
STARTCHAR 0100
ENCODING 256
SWIDTH 660 0
DWIDTH 33 0
BBX 32 43 1 0
BITMAP
00FFFF00
00FFFF00
00FFFF00
00FFFF00
00000000
00000000
00000000
00000000
0007E000
000FF000
000FF000
001FF000
001FF800
001FF800
003FFC00
003FFC00
003FFC00
007EFE00
007E7E00
007E7E00
00FC7F00
00FC3F00
00FC3F00
01FC3F80
01F81F80
03F81FC0
03F81FC0
03F00FC0
07F00FE0
07FFFFE0
07FFFFE0
0FFFFFF0
0FFFFFF0
0FFFFFF0
1FC003F8
1FC003F8
3F8001F8
3F8001FC
3F8001FC
7F0000FE
7F0000FE
7F0000FE
FE00007F
ENDCHAR
STARTCHAR 0101
ENCODING 257
SWIDTH 600 0
DWIDTH 30 0
BBX 26 34 2 0
BITMAP
07FFF800
07FFF800
07FFF800
00000000
00000000
00000000
00000000
01FC0000
07FF1FC0
0FFF9FC0
1FFFDFC0
3FFFDFC0
7FFFFFC0
7FC0FFC0
7F807FC0
FF003FC0
FF003FC0
FE003FC0
FE001FC0
FE001FC0
FE001FC0
FE001FC0
FE001FC0
FE003FC0
FE003FC0
FF003FC0
7F007FC0
7F80FFC0
7FE1FFC0
3FFFDFC0
3FFFDFC0
1FFF9FC0
0FFF1FC0
03FE1FC0
ENDCHAR
STARTCHAR 0102
ENCODING 258
SWIDTH 660 0
DWIDTH 33 0
BBX 32 45 1 0
BITMAP
01F01F80
01F81F00
00FFFF00
007FFE00
003FFC00
000FF000
00000000
00000000
00000000
00000000
0007E000
000FF000
000FF000
001FF000
001FF800
001FF800
003FFC00
003FFC00
003FFC00
007EFE00
007E7E00
007E7E00
00FC7F00
00FC3F00
00FC3F00
01FC3F80
01F81F80
03F81FC0
03F81FC0
03F00FC0
07F00FE0
07FFFFE0
07FFFFE0
0FFFFFF0
0FFFFFF0
0FFFFFF0
1FC003F8
1FC003F8
3F8001F8
3F8001FC
3F8001FC
7F0000FE
7F0000FE
7F0000FE
FE00007F
ENDCHAR
STARTCHAR 0103
ENCODING 259
SWIDTH 600 0
DWIDTH 30 0
BBX 26 36 2 0
BITMAP
0FC07C00
07E0FC00
03FFF800
01FFF000
00FFE000
003F0000
00000000
00000000
00000000
01FC0000
07FF1FC0
0FFF9FC0
1FFFDFC0
3FFFDFC0
7FFFFFC0
7FC0FFC0
7F807FC0
FF003FC0
FF003FC0
FE003FC0
FE001FC0
FE001FC0
FE001FC0
FE001FC0
FE001FC0
FE003FC0
FE003FC0
FF003FC0
7F007FC0
7F80FFC0
7FE1FFC0
3FFFDFC0
3FFFDFC0
1FFF9FC0
0FFF1FC0
03FE1FC0
ENDCHAR
STARTCHAR 0104
ENCODING 260
SWIDTH 660 0
DWIDTH 33 0
BBX 32 44 1 -9
BITMAP
0007E000
000FF000
000FF000
001FF000
001FF800
001FF800
003FFC00
003FFC00
003FFC00
007EFE00
007E7E00
007E7E00
00FC7F00
00FC3F00
00FC3F00
01FC3F80
01F81F80
03F81FC0
03F81FC0
03F00FC0
07F00FE0
07FFFFE0
07FFFFE0
0FFFFFF0
0FFFFFF0
0FFFFFF0
1FC003F8
1FC003F8
3F8001F8
3F8001FC
3F8001FC
7F0000FE
7F0000FE
7F0000FE
FE00007F
000000F8
000001F0
000001F0
000001F0
000001F0
000001FF
000000FF
0000007F
0000000F
ENDCHAR
STARTCHAR 0105
ENCODING 261
SWIDTH 600 0
DWIDTH 30 0
BBX 27 36 2 -9
BITMAP
01FC0000
07FF1FC0
0FFF9FC0
1FFFDFC0
3FFFDFC0
7FFFFFC0
7FC0FFC0
7F807FC0
FF003FC0
FF003FC0
FE003FC0
FE001FC0
FE001FC0
FE001FC0
FE001FC0
FE001FC0
FE003FC0
FE003FC0
FF003FC0
7F007FC0
7F80FFC0
7FE1FFC0
3FFFDFC0
3FFFDFC0
1FFF9FC0
0FFF1FC0
03FE1FC0
00000F80
00001F00
00001E00
00003E00
00001F00
00001FE0
00001FE0
00000FE0
000001E0
ENDCHAR
STARTCHAR 0106
ENCODING 262
SWIDTH 680 0
DWIDTH 34 0
BBX 31 49 2 0
BITMAP
00003F80
00003F00
00007F00
00007E00
0000FC00
0000FC00
0001F800
0001F000
0003F000
0003E000
00000000
00000000
00000000
0007E000
003FFC00
00FFFF00
03FFFFC0
07FFFFE0
0FFFFFF0
0FFE7FF0
1FF00FF8
3FC003FC
3FC001FC
7F8001FC
7F8000FE
7F0000FE
7F000000
FF000000
FE000000
FE000000
FE000000
FE000000
FE000000
FE000000
FF000000
FF000000
7F000000
7F0000FE
7F8000FE
3F8001FC
3FC003FC
1FE007F8
1FF00FF8
0FFFFFF0
07FFFFE0
03FFFFC0
01FFFF80
00FFFF00
003FFC00
ENDCHAR
STARTCHAR 0107
ENCODING 263
SWIDTH 560 0
DWIDTH 28 0
BBX 25 40 2 0
BITMAP
0001FC00
0003F800
0003F000
0007F000
0007E000
000FC000
000FC000
001F8000
001F0000
003F0000
00000000
00000000
00000000
007F8000
03FFE000
07FFF800
0FFFFC00
1FFFFC00
3FFFFE00
3FC0FF00
7F807F00
7F007F00
7E003F80
FE003F80
FE000000
FE000000
FE000000
FE000000
FE000000
FE000000
FE003F80
7F003F00
7F007F00
7F80FF00
3FE3FE00
1FFFFE00
1FFFFC00
0FFFF800
03FFF000
01FFC000
ENDCHAR
STARTCHAR 010A
ENCODING 266
SWIDTH 680 0
DWIDTH 34 0
BBX 31 47 2 0
BITMAP
0007C000
000FE000
000FE000
000FF000
000FE000
000FE000
0007C000
00000000
00000000
00000000
00000000
0007E000
003FFC00
00FFFF00
03FFFFC0
07FFFFE0
0FFFFFF0
0FFE7FF0
1FF00FF8
3FC003FC
3FC001FC
7F8001FC
7F8000FE
7F0000FE
7F000000
FF000000
FE000000
FE000000
FE000000
FE000000
FE000000
FE000000
FF000000
FF000000
7F000000
7F0000FE
7F8000FE
3F8001FC
3FC003FC
1FE007F8
1FF00FF8
0FFFFFF0
07FFFFE0
03FFFFC0
01FFFF80
00FFFF00
003FFC00
ENDCHAR
STARTCHAR 010B
ENCODING 267
SWIDTH 560 0
DWIDTH 28 0
BBX 25 39 2 0
BITMAP
00080000
003E0000
007F0000
007F0000
007F0000
007F0000
003F0000
001E0000
00000000
00000000
00000000
00000000
007F8000
03FFE000
07FFF800
0FFFFC00
1FFFFC00
3FFFFE00
3FC0FF00
7F807F00
7F007F00
7E003F80
FE003F80
FE000000
FE000000
FE000000
FE000000
FE000000
FE000000
FE003F80
7F003F00
7F007F00
7F80FF00
3FE3FE00
1FFFFE00
1FFFFC00
0FFFF800
03FFF000
01FFC000
ENDCHAR
STARTCHAR 010C
ENCODING 268
SWIDTH 680 0
DWIDTH 34 0
BBX 31 46 2 0
BITMAP
01F81F80
00FC3F00
00FE7E00
007FFC00
003FF800
001FF000
000FF000
0007E000
00000000
00000000
0007E000
003FFC00
00FFFF00
03FFFFC0
07FFFFE0
0FFFFFF0
0FFE7FF0
1FF00FF8
3FC003FC
3FC001FC
7F8001FC
7F8000FE
7F0000FE
7F000000
FF000000
FE000000
FE000000
FE000000
FE000000
FE000000
FE000000
FF000000
FF000000
7F000000
7F0000FE
7F8000FE
3F8001FC
3FC003FC
1FE007F8
1FF00FF8
0FFFFFF0
07FFFFE0
03FFFFC0
01FFFF80
00FFFF00
003FFC00
ENDCHAR
STARTCHAR 010D
ENCODING 269
SWIDTH 560 0
DWIDTH 28 0
BBX 25 38 2 0
BITMAP
1F80FC00
0FC1FC00
07E3F800
03F7F000
01FFE000
01FFC000
00FF8000
007F0000
00000000
00000000
00000000
007F8000
03FFE000
07FFF800
0FFFFC00
1FFFFC00
3FFFFE00
3FC0FF00
7F807F00
7F007F00
7E003F80
FE003F80
FE000000
FE000000
FE000000
FE000000
FE000000
FE000000
FE003F80
7F003F00
7F007F00
7F80FF00
3FE3FE00
1FFFFE00
1FFFFC00
0FFFF800
03FFF000
01FFC000
ENDCHAR
STARTCHAR 010E
ENCODING 270
SWIDTH 660 0
DWIDTH 33 0
BBX 29 46 3 0
BITMAP
0FE0FE00
07E1FC00
03F3F800
01FBF000
00FFE000
007FC000
003F8000
001F0000
00000000
00000000
00000000
FFFFC000
FFFFF800
FFFFFC00
FFFFFF00
FFFFFF80
FFFFFFC0
FE01FFC0
FE003FE0
FE001FE0
FE000FF0
FE000FF0
FE0007F0
FE0007F8
FE0007F8
FE0003F8
FE0003F8
FE0003F8
FE0003F8
FE0003F8
FE0003F8
FE0003F8
FE0007F8
FE0007F8
FE0007F0
FE000FF0
FE000FF0
FE001FE0
FE007FE0
FE01FFC0
FFFFFFC0
FFFFFF80
FFFFFE00
FFFFFC00
FFFFF000
FFFFC000
ENDCHAR
STARTCHAR 010F
ENCODING 271
SWIDTH 780 0
DWIDTH 39 0
BBX 37 41 2 0
BITMAP
0000000180
00000007E0
0000000FF0
00001FCFF0
00001FCFF8
00001FCFF8
00001FCFF8
00001FC3F8
00001FC078
00001FC070
00001FC070
00001FC070
00001FC0E0
00001FC1C0
01FC1FC380
07FF1FC300
0FFF9FC000
1FFFDFC000
3FFFDFC000
3FFFFFC000
7FC0FFC000
7F807FC000
7F003FC000
FF003FC000
FE003FC000
FE001FC000
FE001FC000
FE001FC000
FE001FC000
FE001FC000
FE001FC000
FF003FC000
FF003FC000
7F007FC000
7F807FC000
7FE1FFC000
3FFFDFC000
1FFFDFC000
1FFF9FC000
0FFF1FC000
03FE1FC000
ENDCHAR
STARTCHAR 0110
ENCODING 272
SWIDTH 700 0
DWIDTH 35 0
BBX 32 35 2 0
BITMAP
3FFFF000
3FFFFE00
3FFFFF80
3FFFFFC0
3FFFFFE0
3FFFFFF0
3F807FF8
3F800FF8
3F8007FC
3F8003FC
3F8001FE
3F8001FE
3F8000FE
3F8000FE
3F8000FE
FFFC00FF
FFFC00FF
FFFC00FF
FFFC00FF
3F8000FF
3F8000FE
3F8000FE
3F8000FE
3F8001FE
3F8001FE
3F8003FC
3F8007FC
3F800FF8
3F807FF8
3FFFFFF0
3FFFFFE0
3FFFFFC0
3FFFFF80
3FFFFE00
3FFFF000
ENDCHAR
STARTCHAR 0111
ENCODING 273
SWIDTH 620 0
DWIDTH 31 0
BBX 29 38 2 0
BITMAP
00001FC0
00001FC0
00001FC0
00001FC0
0007FFF8
0007FFF8
0007FFF8
0007FFF8
0007FFF8
00001FC0
00001FC0
01FC1FC0
07FF1FC0
0FFF9FC0
1FFFDFC0
3FFFDFC0
3FFFFFC0
7FC0FFC0
7F807FC0
7F003FC0
FF003FC0
FE003FC0
FE001FC0
FE001FC0
FE001FC0
FE001FC0
FE001FC0
FE001FC0
FF003FC0
FF003FC0
7F007FC0
7F807FC0
7FE1FFC0
3FFFDFC0
1FFFDFC0
1FFF9FC0
0FFF1FC0
03FE1FC0
ENDCHAR
STARTCHAR 0112
ENCODING 274
SWIDTH 560 0
DWIDTH 28 0
BBX 23 43 3 0
BITMAP
1FFFE0
1FFFE0
1FFFE0
1FFFE0
000000
000000
000000
000000
FFFFFE
FFFFFE
FFFFFE
FFFFFE
FFFFFE
FFFFFE
FE0000
FE0000
FE0000
FE0000
FE0000
FE0000
FE0000
FE0000
FFFFF8
FFFFF8
FFFFF8
FFFFF8
FFFFF8
FFFFF8
FE0000
FE0000
FE0000
FE0000
FE0000
FE0000
FE0000
FE0000
FE0000
FFFFFE
FFFFFE
FFFFFE
FFFFFE
FFFFFE
FFFFFE
ENDCHAR
STARTCHAR 0113
ENCODING 275
SWIDTH 560 0
DWIDTH 28 0
BBX 25 34 2 0
BITMAP
07FFF800
07FFF800
07FFF800
00000000
00000000
00000000
00000000
007F8000
03FFE000
07FFF000
0FFFFC00
1FFFFC00
3FC1FE00
3F807E00
7F007F00
7E003F00
7E003F00
FE003F80
FFFFFF80
FFFFFF80
FFFFFF80
FFFFFF80
FFFFFF80
FE000000
FE000000
7E000000
7F007F00
7F80FF00
3FC1FE00
1FFFFE00
1FFFFC00
0FFFF800
03FFF000
01FFC000
ENDCHAR
STARTCHAR 0116
ENCODING 278
SWIDTH 560 0
DWIDTH 28 0
BBX 23 47 3 0
BITMAP
007C00
00FE00
00FE00
01FE00
00FE00
00FE00
007C00
000000
000000
000000
000000
000000
FFFFFE
FFFFFE
FFFFFE
FFFFFE
FFFFFE
FFFFFE
FE0000
FE0000
FE0000
FE0000
FE0000
FE0000
FE0000
FE0000
FFFFF8
FFFFF8
FFFFF8
FFFFF8
FFFFF8
FFFFF8
FE0000
FE0000
FE0000
FE0000
FE0000
FE0000
FE0000
FE0000
FE0000
FFFFFE
FFFFFE
FFFFFE
FFFFFE
FFFFFE
FFFFFE
ENDCHAR
STARTCHAR 0117
ENCODING 279
SWIDTH 560 0
DWIDTH 28 0
BBX 25 39 2 0
BITMAP
00080000
003E0000
007F0000
007F0000
007F0000
007F0000
003F0000
001E0000
00000000
00000000
00000000
00000000
007F8000
03FFE000
07FFF000
0FFFFC00
1FFFFC00
3FC1FE00
3F807E00
7F007F00
7E003F00
7E003F00
FE003F80
FFFFFF80
FFFFFF80
FFFFFF80
FFFFFF80
FFFFFF80
FE000000
FE000000
7E000000
7F007F00
7F80FF00
3FC1FE00
1FFFFE00
1FFFFC00
0FFFF800
03FFF000
01FFC000
ENDCHAR
STARTCHAR 0118
ENCODING 280
SWIDTH 560 0
DWIDTH 28 0
BBX 25 44 3 -9
BITMAP
FFFFFE00
FFFFFE00
FFFFFE00
FFFFFE00
FFFFFE00
FFFFFE00
FE000000
FE000000
FE000000
FE000000
FE000000
FE000000
FE000000
FE000000
FFFFF800
FFFFF800
FFFFF800
FFFFF800
FFFFF800
FFFFF800
FE000000
FE000000
FE000000
FE000000
FE000000
FE000000
FE000000
FE000000
FE000000
FFFFFE00
FFFFFE00
FFFFFE00
FFFFFE00
FFFFFE00
FFFFFE00
00007C00
0000F800
0000F800
0000F000
0000F800
0000FF80
00007F80
00003F80
00000780
ENDCHAR
STARTCHAR 0119
ENCODING 281
SWIDTH 560 0
DWIDTH 28 0
BBX 25 36 2 -9
BITMAP
007F8000
03FFE000
07FFF000
0FFFFC00
1FFFFC00
3FC1FE00
3F807E00
7F007F00
7E003F00
7E003F00
FE003F80
FFFFFF80
FFFFFF80
FFFFFF80
FFFFFF80
FFFFFF80
FE000000
FE000000
7E000000
7F007F00
7F80FF00
3FC1FE00
1FFFFE00
1FFFFC00
0FFFF800
03FFF000
00FFC000
007C0000
00F80000
00F00000
00F00000
00F00000
00FF8000
00FF8000
007F8000
001F8000
ENDCHAR
STARTCHAR 011A
ENCODING 282
SWIDTH 560 0
DWIDTH 28 0
BBX 23 46 3 0
BITMAP
3F03F8
1F87F0
0FCFE0
07FFC0
03FF80
01FF00
00FE00
00FC00
000000
000000
000000
FFFFFE
FFFFFE
FFFFFE
FFFFFE
FFFFFE
FFFFFE
FE0000
FE0000
FE0000
FE0000
FE0000
FE0000
FE0000
FE0000
FFFFF8
FFFFF8
FFFFF8
FFFFF8
FFFFF8
FFFFF8
FE0000
FE0000
FE0000
FE0000
FE0000
FE0000
FE0000
FE0000
FE0000
FFFFFE
FFFFFE
FFFFFE
FFFFFE
FFFFFE
FFFFFE
ENDCHAR
STARTCHAR 011B
ENCODING 283
SWIDTH 560 0
DWIDTH 28 0
BBX 25 38 2 0
BITMAP
1F80FC00
0FC1FC00
07E3F800
03F7F000
01FFE000
01FFC000
00FF8000
007F0000
00000000
00000000
00000000
007F8000
03FFE000
07FFF000
0FFFFC00
1FFFFC00
3FC1FE00
3F807E00
7F007F00
7E003F00
7E003F00
FE003F80
FFFFFF80
FFFFFF80
FFFFFF80
FFFFFF80
FFFFFF80
FE000000
FE000000
7E000000
7F007F00
7F80FF00
3FC1FE00
1FFFFE00
1FFFFC00
0FFFF800
03FFF000
01FFC000
ENDCHAR
STARTCHAR 011E
ENCODING 286
SWIDTH 700 0
DWIDTH 35 0
BBX 31 45 2 0
BITMAP
01F80F80
00F81F80
00FFFF00
007FFE00
003FFC00
000FF000
00000000
00000000
00000000
0007E000
003FFC00
00FFFF00
03FFFFC0
07FFFFE0
0FFFFFF0
0FFE7FF0
1FF00FF8
3FE003FC
3FC001FC
3F8001FE
7F8000FE
7F000000
7F000000
7F000000
FE000000
FE000000
FE007FFE
FE007FFE
FE007FFE
FE007FFE
FE007FFE
7F0000FE
7F0000FE
7F0000FE
7F0000FE
3F8000FE
3FC001FE
3FC003FE
1FF007FE
0FFC1FFE
0FFFFFBE
07FFFF3E
03FFFF3E
00FFFC3E
003FF83E
ENDCHAR
STARTCHAR 011F
ENCODING 287
SWIDTH 600 0
DWIDTH 30 0
BBX 26 47 2 -11
BITMAP
0FC0FC00
07E1F800
03FFF800
01FFF000
00FFC000
003F0000
00000000
00000000
00000000
01FC0000
07FF1FC0
0FFF9FC0
1FFFDFC0
3FFFDFC0
3FFFFFC0
7FC0FFC0
7F807FC0
7F003FC0
FF003FC0
FE001FC0
FE001FC0
FE001FC0
FE001FC0
FE001FC0
FE001FC0
FF003FC0
FF003FC0
7F003FC0
7F807FC0
7FC0FFC0
3FFFFFC0
3FFFDFC0
1FFFDFC0
0FFF9FC0
03FE1FC0
00701FC0
00001FC0
00003FC0
00003F80
00007F80
0000FF80
007FFF00
007FFF00
007FFE00
007FFC00
007FF000
007FC000
ENDCHAR
STARTCHAR 0120
ENCODING 288
SWIDTH 700 0
DWIDTH 35 0
BBX 31 47 2 0
BITMAP
0003C000
0007E000
000FF000
000FF000
000FF000
0007E000
0007E000
00000000
00000000
00000000
00000000
0007E000
003FFC00
00FFFF00
03FFFFC0
07FFFFE0
0FFFFFF0
0FFE7FF0
1FF00FF8
3FE003FC
3FC001FC
3F8001FE
7F8000FE
7F000000
7F000000
7F000000
FE000000
FE000000
FE007FFE
FE007FFE
FE007FFE
FE007FFE
FE007FFE
7F0000FE
7F0000FE
7F0000FE
7F0000FE
3F8000FE
3FC001FE
3FC003FE
1FF007FE
0FFC1FFE
0FFFFFBE
07FFFF3E
03FFFF3E
00FFFC3E
003FF83E
ENDCHAR
STARTCHAR 0121
ENCODING 289
SWIDTH 600 0
DWIDTH 30 0
BBX 26 50 2 -11
BITMAP
000C0000
003F0000
003F8000
007F8000
007F8000
003F8000
003F0000
001E0000
00000000
00000000
00000000
00000000
01FC0000
07FF1FC0
0FFF9FC0
1FFFDFC0
3FFFDFC0
3FFFFFC0
7FC0FFC0
7F807FC0
7F003FC0
FF003FC0
FE001FC0
FE001FC0
FE001FC0
FE001FC0
FE001FC0
FE001FC0
FF003FC0
FF003FC0
7F003FC0
7F807FC0
7FC0FFC0
3FFFFFC0
3FFFDFC0
1FFFDFC0
0FFF9FC0
03FE1FC0
00701FC0
00001FC0
00003FC0
00003F80
00007F80
0000FF80
007FFF00
007FFF00
007FFE00
007FFC00
007FF000
007FC000
ENDCHAR
STARTCHAR 0126
ENCODING 294
SWIDTH 680 0
DWIDTH 34 0
BBX 33 35 1 0
BITMAP
3F8000FE00
3F8000FE00
3F8000FE00
3F8000FE00
FFFFFFFF80
FFFFFFFF80
FFFFFFFF80
FFFFFFFF80
FFFFFFFF80
FFFFFFFF80
3F8000FE00
3F8000FE00
3F8000FE00
3F8000FE00
3F8000FE00
3FFFFFFE00
3FFFFFFE00
3FFFFFFE00
3FFFFFFE00
3FFFFFFE00
3F8000FE00
3F8000FE00
3F8000FE00
3F8000FE00
3F8000FE00
3F8000FE00
3F8000FE00
3F8000FE00
3F8000FE00
3F8000FE00
3F8000FE00
3F8000FE00
3F8000FE00
3F8000FE00
3F8000FE00
ENDCHAR
STARTCHAR 0127
ENCODING 295
SWIDTH 600 0
DWIDTH 30 0
BBX 28 38 0 0
BITMAP
0FE00000
0FE00000
0FE00000
0FE00000
FFFF0000
FFFF0000
FFFF0000
FFFF0000
FFFF0000
0FE00000
0FE00000
0FE0FE00
0FE3FF80
0FE7FFC0
0FEFFFE0
0FFFFFE0
0FFFFFE0
0FF81FF0
0FF00FF0
0FF007F0
0FE007F0
0FE007F0
0FE007F0
0FE007F0
0FE007F0
0FE007F0
0FE007F0
0FE007F0
0FE007F0
0FE007F0
0FE007F0
0FE007F0
0FE007F0
0FE007F0
0FE007F0
0FE007F0
0FE007F0
0FE007F0
ENDCHAR
STARTCHAR 0128
ENCODING 296
SWIDTH 260 0
DWIDTH 13 0
BBX 16 46 -1 0
BITMAP
3E0F
7F8F
FFFF
FFFE
F7FE
E1FC
E020
0000
0000
0000
0000
0FE0
0FE0
0FE0
0FE0
0FE0
0FE0
0FE0
0FE0
0FE0
0FE0
0FE0
0FE0
0FE0
0FE0
0FE0
0FE0
0FE0
0FE0
0FE0
0FE0
0FE0
0FE0
0FE0
0FE0
0FE0
0FE0
0FE0
0FE0
0FE0
0FE0
0FE0
0FE0
0FE0
0FE0
0FE0
ENDCHAR
STARTCHAR 0129
ENCODING 297
SWIDTH 280 0
DWIDTH 14 0
BBX 16 37 -1 0
BITMAP
3F0F
7FCF
7FFF
FFFF
F3FE
F07C
0000
0000
0000
0000
0000
07F0
07F0
07F0
07F0
07F0
07F0
07F0
07F0
07F0
07F0
07F0
07F0
07F0
07F0
07F0
07F0
07F0
07F0
07F0
07F0
07F0
07F0
07F0
07F0
07F0
07F0
ENDCHAR
STARTCHAR 012A
ENCODING 298
SWIDTH 260 0
DWIDTH 13 0
BBX 16 43 -1 0
BITMAP
FFFF
FFFF
FFFF
FFFF
0000
0000
0000
0000
0FE0
0FE0
0FE0
0FE0
0FE0
0FE0
0FE0
0FE0
0FE0
0FE0
0FE0
0FE0
0FE0
0FE0
0FE0
0FE0
0FE0
0FE0
0FE0
0FE0
0FE0
0FE0
0FE0
0FE0
0FE0
0FE0
0FE0
0FE0
0FE0
0FE0
0FE0
0FE0
0FE0
0FE0
0FE0
ENDCHAR
STARTCHAR 012B
ENCODING 299
SWIDTH 280 0
DWIDTH 14 0
BBX 16 34 -1 0
BITMAP
FFFF
FFFF
FFFF
0000
0000
0000
0000
0000
07F0
07F0
07F0
07F0
07F0
07F0
07F0
07F0
07F0
07F0
07F0
07F0
07F0
07F0
07F0
07F0
07F0
07F0
07F0
07F0
07F0
07F0
07F0
07F0
07F0
07F0
ENDCHAR
STARTCHAR 012E
ENCODING 302
SWIDTH 260 0
DWIDTH 13 0
BBX 9 44 3 -9
BITMAP
FE00
FE00
FE00
FE00
FE00
FE00
FE00
FE00
FE00
FE00
FE00
FE00
FE00
FE00
FE00
FE00
FE00
FE00
FE00
FE00
FE00
FE00
FE00
FE00
FE00
FE00
FE00
FE00
FE00
FE00
FE00
FE00
FE00
FE00
FE00
7C00
7800
F800
F800
F800
FF80
7F80
3F80
0780
ENDCHAR
STARTCHAR 012F
ENCODING 303
SWIDTH 280 0
DWIDTH 14 0
BBX 9 48 3 -9
BITMAP
1800
7E00
7F00
FF00
FF00
FF00
7E00
3C00
0000
0000
0000
0000
0000
7F00
7F00
7F00
7F00
7F00
7F00
7F00
7F00
7F00
7F00
7F00
7F00
7F00
7F00
7F00
7F00
7F00
7F00
7F00
7F00
7F00
7F00
7F00
7F00
7F00
7F00
3E00
7C00
7800
F800
FC00
7F80
7F80
3F80
0F80
ENDCHAR
STARTCHAR 0130
ENCODING 304
SWIDTH 260 0
DWIDTH 13 0
BBX 7 47 3 0
BITMAP
7C
FE
FE
FE
FE
FE
7C
00
00
00
00
00
FE
FE
FE
FE
FE
FE
FE
FE
FE
FE
FE
FE
FE
FE
FE
FE
FE
FE
FE
FE
FE
FE
FE
FE
FE
FE
FE
FE
FE
FE
FE
FE
FE
FE
FE
ENDCHAR
STARTCHAR 0131
ENCODING 305
SWIDTH 280 0
DWIDTH 14 0
BBX 7 26 4 0
BITMAP
FE
FE
FE
FE
FE
FE
FE
FE
FE
FE
FE
FE
FE
FE
FE
FE
FE
FE
FE
FE
FE
FE
FE
FE
FE
FE
ENDCHAR
STARTCHAR 0139
ENCODING 313
SWIDTH 520 0
DWIDTH 26 0
BBX 22 49 3 0
BITMAP
03F800
07F000
07E000
0FE000
0FC000
1F8000
1F8000
3F0000
3E0000
7E0000
000000
000000
000000
000000
FE0000
FE0000
FE0000
FE0000
FE0000
FE0000
FE0000
FE0000
FE0000
FE0000
FE0000
FE0000
FE0000
FE0000
FE0000
FE0000
FE0000
FE0000
FE0000
FE0000
FE0000
FE0000
FE0000
FE0000
FE0000
FE0000
FE0000
FE0000
FE0000
FFFFFC
FFFFFC
FFFFFC
FFFFFC
FFFFFC
FFFFFC
ENDCHAR
STARTCHAR 013A
ENCODING 314
SWIDTH 340 0
DWIDTH 17 0
BBX 13 51 3 0
BITMAP
03F8
07F0
07E0
0FE0
0FC0
1FC0
1F80
3F00
3F00
7E00
0000
0000
0000
FE00
FE00
FE00
FE00
FE00
FE00
FE00
FE00
FE00
FE00
FE00
FE00
FE00
FE00
FE00
FE00
FE00
FE00
FE00
FE00
FE00
FE00
FE00
FE00
FE00
FE00
FE00
FE00
FE00
FE00
FE00
FE00
FF00
FFF0
7FF0
7FF0
3FF0
0FF0
ENDCHAR
STARTCHAR 013D
ENCODING 317
SWIDTH 520 0
DWIDTH 26 0
BBX 28 46 -3 0
BITMAP
FC0FE000
7E1FC000
3F3F8000
1FFF0000
0FFE0000
07FC0000
03F80000
03F00000
00000000
00000000
00000000
03F80000
03F80000
03F80000
03F80000
03F80000
03F80000
03F80000
03F80000
03F80000
03F80000
03F80000
03F80000
03F80000
03F80000
03F80000
03F80000
03F80000
03F80000
03F80000
03F80000
03F80000
03F80000
03F80000
03F80000
03F80000
03F80000
03F80000
03F80000
03F80000
03FFFFF0
03FFFFF0
03FFFFF0
03FFFFF0
03FFFFF0
03FFFFF0
ENDCHAR
STARTCHAR 013E
ENCODING 318
SWIDTH 420 0
DWIDTH 21 0
BBX 18 41 3 0
BITMAP
000C00
003F80
007F80
FE7FC0
FE7FC0
FE7FC0
FE3FC0
FE0FC0
FE03C0
FE03C0
FE0380
FE0380
FE0780
FE0F00
FE1E00
FE1800
FE0000
FE0000
FE0000
FE0000
FE0000
FE0000
FE0000
FE0000
FE0000
FE0000
FE0000
FE0000
FE0000
FE0000
FE0000
FE0000
FE0000
FE0000
FE0000
FF0000
FFF000
7FF000
7FF000
3FF000
0FF000
ENDCHAR
STARTCHAR 0143
ENCODING 323
SWIDTH 700 0
DWIDTH 35 0
BBX 29 49 3 0
BITMAP
00007F00
0000FE00
0000FC00
0001FC00
0001F800
0003F800
0003F000
0007E000
0007E000
000FC000
00000000
00000000
00000000
00000000
FF0003F8
FF8003F8
FF8003F8
FFC003F8
FFE003F8
FFE003F8
FFF003F8
FFF003F8
FFF803F8
FFFC03F8
FFFC03F8
FFFE03F8
FEFE03F8
FEFF03F8
FE7F03F8
FE7F83F8
FE3FC3F8
FE1FC3F8
FE1FE3F8
FE0FE3F8
FE0FF3F8
FE07FBF8
FE03FBF8
FE03FFF8
FE01FFF8
FE01FFF8
FE00FFF8
FE007FF8
FE007FF8
FE003FF8
FE003FF8
FE001FF8
FE000FF8
FE000FF8
FE0007F8
ENDCHAR
STARTCHAR 0144
ENCODING 324
SWIDTH 600 0
DWIDTH 30 0
BBX 24 40 3 0
BITMAP
0003F8
0003F0
0007F0
0007E0
000FC0
000FC0
001F80
001F00
003F00
003E00
000000
000000
000000
000FE0
FE3FF8
FE7FFC
FEFFFC
FFFFFE
FFFFFE
FF81FF
FF00FF
FF007F
FE007F
FE007F
FE007F
FE007F
FE007F
FE007F
FE007F
FE007F
FE007F
FE007F
FE007F
FE007F
FE007F
FE007F
FE007F
FE007F
FE007F
FE007F
ENDCHAR
STARTCHAR 0147
ENCODING 327
SWIDTH 700 0
DWIDTH 35 0
BBX 29 46 3 0
BITMAP
07F07F00
03F8FE00
01F8FC00
00FDF800
007FF000
003FE000
001FC000
000F8000
00000000
00000000
00000000
FF0003F8
FF8003F8
FF8003F8
FFC003F8
FFE003F8
FFE003F8
FFF003F8
FFF003F8
FFF803F8
FFFC03F8
FFFC03F8
FFFE03F8
FEFE03F8
FEFF03F8
FE7F03F8
FE7F83F8
FE3FC3F8
FE1FC3F8
FE1FE3F8
FE0FE3F8
FE0FF3F8
FE07FBF8
FE03FBF8
FE03FFF8
FE01FFF8
FE01FFF8
FE00FFF8
FE007FF8
FE007FF8
FE003FF8
FE003FF8
FE001FF8
FE000FF8
FE000FF8
FE0007F8
ENDCHAR
STARTCHAR 0148
ENCODING 328
SWIDTH 600 0
DWIDTH 30 0
BBX 24 38 3 0
BITMAP
3F81FC
1FC3F8
0FC3F0
07E7E0
03FFC0
01FF80
00FF00
007E00
000000
000000
000000
000FE0
FE3FF8
FE7FFC
FEFFFC
FFFFFE
FFFFFE
FF81FF
FF00FF
FF007F
FE007F
FE007F
FE007F
FE007F
FE007F
FE007F
FE007F
FE007F
FE007F
FE007F
FE007F
FE007F
FE007F
FE007F
FE007F
FE007F
FE007F
FE007F
ENDCHAR
STARTCHAR 014C
ENCODING 332
SWIDTH 720 0
DWIDTH 36 0
BBX 32 43 2 0
BITMAP
00FFFF00
00FFFF00
00FFFF00
00FFFF00
00000000
00000000
00000000
0007E000
003FFE00
00FFFF00
03FFFFC0
07FFFFE0
0FFFFFF0
1FFFFFF8
1FF00FF8
3FE007FC
3FC003FC
7F8001FE
7F8001FE
7F0000FE
7F0000FF
FF0000FF
FF0000FF
FF00007F
FE00007F
FE00007F
FE00007F
FE00007F
FF0000FF
FF0000FF
7F0000FF
7F0000FE
7F8001FE
7F8001FE
3FC003FC
3FE007FC
1FF81FF8
0FFFFFF8
0FFFFFF0
07FFFFE0
01FFFFC0
00FFFF00
003FFC00
ENDCHAR
STARTCHAR 014D
ENCODING 333
SWIDTH 580 0
DWIDTH 29 0
BBX 25 34 2 0
BITMAP
07FFF800
07FFF800
07FFF800
00000000
00000000
00000000
00000000
007F8000
03FFE000
07FFF000
0FFFFC00
1FFFFC00
3FFFFE00
3FC0FF00
7F807F00
7F007F80
7E003F80
FE003F80
FE003F80
FE003F80
FE003F80
FE003F80
FE003F80
FE003F80
FE003F80
7F003F80
7F007F00
7F80FF00
3FE3FE00
1FFFFE00
1FFFFC00
0FFFF800
03FFF000
01FFC000
ENDCHAR
STARTCHAR 0152
ENCODING 338
SWIDTH 960 0
DWIDTH 48 0
BBX 44 35 2 0
BITMAP
000FFFFFFFF0
007FFFFFFFF0
01FFFFFFFFF0
03FFFFFFFFF0
0FFFFFFFFFF0
0FFFFFFFFFF0
1FF807F00000
3FE007F00000
3FC007F00000
7F8007F00000
7F8007F00000
7F0007F00000
FF0007F00000
FF0007F00000
FE0007FFFFC0
FE0007FFFFC0
FE0007FFFFC0
FE0007FFFFC0
FE0007FFFFC0
FE0007FFFFC0
FE0007F00000
FF0007F00000
FF0007F00000
7F0007F00000
7F8007F00000
7F8007F00000
3FC007F00000
3FE007F00000
1FFC07F00000
0FFFFFFFFFF0
0FFFFFFFFFF0
07FFFFFFFFF0
01FFFFFFFFF0
007FFFFFFFF0
001FFFFFFFF0
ENDCHAR
STARTCHAR 0153
ENCODING 339
SWIDTH 940 0
DWIDTH 47 0
BBX 43 28 2 -1
BITMAP
007F000FE000
03FFC07FFC00
07FFF0FFFE00
0FFFF9FFFF00
1FFFFBFFFF80
3FFFFFF83F80
3FC1FFE01FC0
7F80FFE00FC0
7F007FC00FE0
7E003FC007E0
FE003FC007E0
FE003FFFFFE0
FE003FFFFFE0
FE003FFFFFE0
FE003FFFFFE0
FE003FFFFFE0
FE003FC00000
FE003FC00000
7F007FC00000
7F007FE00FE0
7F80FFE01FC0
3FE1FFF87FC0
3FFFFFFFFF80
1FFFF9FFFF00
0FFFF0FFFE00
07FFE07FFC00
01FF803FF000
001800000000
ENDCHAR
STARTCHAR 0154
ENCODING 340
SWIDTH 600 0
DWIDTH 30 0
BBX 26 49 3 0
BITMAP
0003F800
0007F000
0007E000
000FE000
000FC000
001FC000
001F8000
003F0000
003F0000
007E0000
00000000
00000000
00000000
00000000
FFFF8000
FFFFF000
FFFFF800
FFFFFC00
FFFFFE00
FFFFFF00
FE01FF00
FE007F80
FE003F80
FE003F80
FE001F80
FE001F80
FE001F80
FE003F80
FE003F80
FE007F80
FE07FF00
FFFFFF00
FFFFFE00
FFFFFC00
FFFFF000
FFFFC000
FE1FE000
FE0FE000
FE07F000
FE07F800
FE03F800
FE03FC00
FE01FC00
FE00FE00
FE00FE00
FE007F00
FE007F80
FE003F80
FE003FC0
ENDCHAR
STARTCHAR 0155
ENCODING 341
SWIDTH 380 0
DWIDTH 19 0
BBX 16 40 3 0
BITMAP
003F
007F
007E
00FE
00FC
01F8
01F8
03F0
03E0
07E0
0000
0000
0000
0000
FE3F
FE7F
FEFF
FFFF
FFFF
FFFF
FFC0
FF00
FF00
FE00
FE00
FE00
FE00
FE00
FE00
FE00
FE00
FE00
FE00
FE00
FE00
FE00
FE00
FE00
FE00
FE00
ENDCHAR
STARTCHAR 0158
ENCODING 344
SWIDTH 600 0
DWIDTH 30 0
BBX 26 46 3 0
BITMAP
3F83F800
1FC3F000
0FC7E000
07EFC000
03FF8000
01FF0000
00FE0000
007C0000
00000000
00000000
00000000
FFFF8000
FFFFF000
FFFFF800
FFFFFC00
FFFFFE00
FFFFFF00
FE01FF00
FE007F80
FE003F80
FE003F80
FE001F80
FE001F80
FE001F80
FE003F80
FE003F80
FE007F80
FE07FF00
FFFFFF00
FFFFFE00
FFFFFC00
FFFFF000
FFFFC000
FE1FE000
FE0FE000
FE07F000
FE07F800
FE03F800
FE03FC00
FE01FC00
FE00FE00
FE00FE00
FE007F00
FE007F80
FE003F80
FE003FC0
ENDCHAR
STARTCHAR 0159
ENCODING 345
SWIDTH 380 0
DWIDTH 19 0
BBX 19 38 1 0
BITMAP
FC07E0
7E0FC0
3F1F80
3FBF80
1FFF00
0FFE00
07FC00
03F800
000000
000000
000000
000000
3F8FC0
3F9FC0
3FBFC0
3FFFC0
3FFFC0
3FFFC0
3FF000
3FC000
3FC000
3F8000
3F8000
3F8000
3F8000
3F8000
3F8000
3F8000
3F8000
3F8000
3F8000
3F8000
3F8000
3F8000
3F8000
3F8000
3F8000
3F8000
ENDCHAR
STARTCHAR 015A
ENCODING 346
SWIDTH 600 0
DWIDTH 30 0
BBX 26 49 2 0
BITMAP
00007F00
00007E00
0000FE00
0000FC00
0001F800
0001F800
0003F000
0003E000
0007E000
000FC000
00000000
00000000
00000000
001E0000
01FFE000
07FFF800
0FFFFC00
1FFFFE00
3FFFFF00
3FE1FF80
7F807F80
7F007FC0
7F003FC0
7F003FC0
7F000000
7F800000
7FC00000
3FF00000
3FFF0000
1FFFE000
0FFFFC00
07FFFE00
01FFFF00
003FFF80
0001FFC0
00007FC0
00003FC0
00001FC0
FF001FC0
FF001FC0
FF001FC0
7F803FC0
7FC07FC0
3FFFFF80
3FFFFF80
1FFFFF00
0FFFFE00
03FFF800
00FFE000
ENDCHAR
STARTCHAR 015B
ENCODING 347
SWIDTH 480 0
DWIDTH 24 0
BBX 21 41 2 0
BITMAP
0007F0
000FE0
000FE0
001FC0
001F80
003F80
003F00
007E00
007E00
00FC00
000000
000000
000000
000000
03FC00
0FFF80
1FFFC0
3FFFE0
7FFFF0
7F0FF0
7E07F0
7E03F8
7E0000
7E0000
7F8000
7FFC00
3FFF80
1FFFC0
07FFE0
01FFF0
000FF8
0003F8
FE03F8
FE03F8
FE03F8
FF07F8
7FFFF0
3FFFF0
1FFFE0
0FFFC0
03FF00
ENDCHAR
STARTCHAR 015E
ENCODING 350
SWIDTH 600 0
DWIDTH 30 0
BBX 26 48 2 -12
BITMAP
001E0000
01FFE000
07FFF800
0FFFFC00
1FFFFE00
3FFFFF00
3FE1FF80
7F807F80
7F007FC0
7F003FC0
7F003FC0
7F000000
7F800000
7FC00000
3FF00000
3FFF0000
1FFFE000
0FFFFC00
07FFFE00
01FFFF00
003FFF80
0001FFC0
00007FC0
00003FC0
00001FC0
FF001FC0
FF001FC0
FF001FC0
7F803FC0
7FC07FC0
3FFFFF80
3FFFFF80
1FFFFF00
0FFFFE00
03FFF800
00FFE000
001E0000
001E0000
001F8000
001FE000
003FF000
0000F000
00007000
00007000
0010F000
001FF000
001FE000
001FC000
ENDCHAR
STARTCHAR 015F
ENCODING 351
SWIDTH 480 0
DWIDTH 24 0
BBX 21 39 2 -12
BITMAP
03FC00
0FFF80
1FFFC0
3FFFE0
7FFFF0
7F0FF0
7E07F0
7E03F8
7E0000
7E0000
7F8000
7FFC00
3FFF80
1FFFC0
07FFE0
01FFF0
000FF8
0003F8
FE03F8
FE03F8
FE03F8
FF07F8
7FFFF0
3FFFF0
1FFFE0
0FFF80
03FF00
007800
007000
007E00
00FF80
00FF80
0003C0
0001C0
0003C0
00C7C0
00FF80
00FF80
00FE00
ENDCHAR
STARTCHAR 0160
ENCODING 352
SWIDTH 600 0
DWIDTH 30 0
BBX 26 46 2 0
BITMAP
03F03F00
03F87E00
01FCFC00
00FDF800
007FF000
003FE000
001FE000
000FC000
00000000
00000000
001E0000
01FFE000
07FFF800
0FFFFC00
1FFFFE00
3FFFFF00
3FE1FF80
7F807F80
7F007FC0
7F003FC0
7F003FC0
7F000000
7F800000
7FC00000
3FF00000
3FFF0000
1FFFE000
0FFFFC00
07FFFE00
01FFFF00
003FFF80
0001FFC0
00007FC0
00003FC0
00001FC0
FF001FC0
FF001FC0
FF001FC0
7F803FC0
7FC07FC0
3FFFFF80
3FFFFF80
1FFFFF00
0FFFFE00
03FFF800
00FFE000
ENDCHAR
STARTCHAR 0161
ENCODING 353
SWIDTH 480 0
DWIDTH 24 0
BBX 21 38 2 0
BITMAP
7F07F0
3F87E0
1FCFC0
0FDF80
07FF00
03FE00
01FC00
00F800
000000
000000
000000
03FC00
0FFF80
1FFFC0
3FFFE0
7FFFF0
7F0FF0
7E07F0
7E03F8
7E0000
7E0000
7F8000
7FFC00
3FFF80
1FFFC0
07FFE0
01FFF0
000FF8
0003F8
FE03F8
FE03F8
FE03F8
FF07F8
7FFFF0
3FFFF0
1FFFE0
0FFFC0
03FF00
ENDCHAR
STARTCHAR 0162
ENCODING 354
SWIDTH 580 0
DWIDTH 29 0
BBX 26 47 2 -12
BITMAP
FFFFFFC0
FFFFFFC0
FFFFFFC0
FFFFFFC0
FFFFFFC0
FFFFFFC0
007F0000
007F0000
007F0000
007F0000
007F0000
007F0000
007F0000
007F0000
007F0000
007F0000
007F0000
007F0000
007F0000
007F0000
007F0000
007F0000
007F0000
007F0000
007F0000
007F0000
007F0000
007F0000
007F0000
007F0000
007F0000
007F0000
007F0000
007F0000
007F0000
003C0000
00380000
003F0000
007F8000
007FC000
0001E000
0001E000
0001E000
0043E000
007FC000
007FC000
007F0000
ENDCHAR
STARTCHAR 0163
ENCODING 355
SWIDTH 420 0
DWIDTH 21 0
BBX 18 47 1 -12
BITMAP
07F000
07F000
07F000
07F000
07F000
07F000
07F000
07F000
07F000
FFFFC0
FFFFC0
FFFFC0
FFFFC0
FFFFC0
07F000
07F000
07F000
07F000
07F000
07F000
07F000
07F000
07F000
07F000
07F000
07F000
07F000
07F000
07F000
07F800
07FFC0
07FFC0
03FFC0
01FFC0
00FFC0
007800
007000
007E00
00FF80
00FF80
0003C0
0001C0
0003C0
00E7C0
00FF80
00FF80
00FE00
ENDCHAR
STARTCHAR 0164
ENCODING 356
SWIDTH 580 0
DWIDTH 29 0
BBX 26 46 2 0
BITMAP
0FC0FC00
07E1F800
07F3F000
03FFE000
01FFC000
00FF8000
007F8000
003F0000
00000000
00000000
00000000
FFFFFFC0
FFFFFFC0
FFFFFFC0
FFFFFFC0
FFFFFFC0
FFFFFFC0
007F0000
007F0000
007F0000
007F0000
007F0000
007F0000
007F0000
007F0000
007F0000
007F0000
007F0000
007F0000
007F0000
007F0000
007F0000
007F0000
007F0000
007F0000
007F0000
007F0000
007F0000
007F0000
007F0000
007F0000
007F0000
007F0000
007F0000
007F0000
007F0000
ENDCHAR
STARTCHAR 0165
ENCODING 357
SWIDTH 560 0
DWIDTH 28 0
BBX 26 41 1 0
BITMAP
00000E00
00001F80
00003FC0
00003FC0
00003FC0
00003FC0
07F03FC0
07F00FC0
07F001C0
07F001C0
07F001C0
07F003C0
07F00380
07F00F00
07F01E00
FFFFD800
FFFFC000
FFFFC000
FFFFC000
FFFFC000
07F00000
07F00000
07F00000
07F00000
07F00000
07F00000
07F00000
07F00000
07F00000
07F00000
07F00000
07F00000
07F00000
07F00000
07F00000
07F80000
07FFC000
07FFC000
03FFC000
01FFC000
00FFC000
ENDCHAR
STARTCHAR 0166
ENCODING 358
SWIDTH 580 0
DWIDTH 29 0
BBX 26 35 2 0
BITMAP
FFFFFFC0
FFFFFFC0
FFFFFFC0
FFFFFFC0
FFFFFFC0
FFFFFFC0
007F0000
007F0000
007F0000
007F0000
007F0000
007F0000
007F0000
007F0000
3FFFFF00
3FFFFF00
3FFFFF00
3FFFFF00
3FFFFF00
007F0000
007F0000
007F0000
007F0000
007F0000
007F0000
007F0000
007F0000
007F0000
007F0000
007F0000
007F0000
007F0000
007F0000
007F0000
007F0000
ENDCHAR
STARTCHAR 0167
ENCODING 359
SWIDTH 420 0
DWIDTH 21 0
BBX 18 35 1 0
BITMAP
07F000
07F000
07F000
07F000
07F000
07F000
07F000
07F000
07F000
FFFFC0
FFFFC0
FFFFC0
FFFFC0
FFFFC0
07F000
07F000
07F000
07F000
07F000
FFFFC0
FFFFC0
FFFFC0
07F000
07F000
07F000
07F000
07F000
07F000
07F000
07F800
07FFC0
07FFC0
03FFC0
01FFC0
00FFC0
ENDCHAR
STARTCHAR 0168
ENCODING 360
SWIDTH 680 0
DWIDTH 34 0
BBX 28 47 3 -1
BITMAP
00781C00
01FE3C00
01FFFC00
03FFFC00
03FFF800
03C3F000
03C04000
00000000
00000000
00000000
00000000
FE0003F0
FE0003F0
FE0003F0
FE0003F0
FE0003F0
FE0003F0
FE0003F0
FE0003F0
FE0003F0
FE0003F0
FE0003F0
FE0003F0
FE0003F0
FE0003F0
FE0003F0
FE0003F0
FE0003F0
FE0003F0
FE0003F0
FE0003F0
FE0003F0
FE0007F0
FE0007F0
FE0007F0
FF0007F0
FF000FF0
7F800FF0
7F801FE0
7FE07FE0
3FFFFFC0
1FFFFF80
0FFFFF80
07FFFE00
03FFFC00
00FFF000
00060000
ENDCHAR
STARTCHAR 0169
ENCODING 361
SWIDTH 580 0
DWIDTH 29 0
BBX 24 38 3 -1
BITMAP
07E0E0
0FF9E0
0FFFE0
0FFFE0
1E3FC0
1E0F80
000000
000000
000000
000000
000000
FE007F
FE007F
FE007F
FE007F
FE007F
FE007F
FE007F
FE007F
FE007F
FE007F
FE007F
FE007F
FE007F
FE007F
FE007F
FE007F
FE007F
FE00FF
FF00FF
FF01FF
7FC7FF
7FFFFF
7FFF7F
3FFE7F
1FFE7F
0FF87F
008000
ENDCHAR
STARTCHAR 016A
ENCODING 362
SWIDTH 680 0
DWIDTH 34 0
BBX 28 44 3 -1
BITMAP
03FFFC00
03FFFC00
03FFFC00
03FFFC00
00000000
00000000
00000000
00000000
FE0003F0
FE0003F0
FE0003F0
FE0003F0
FE0003F0
FE0003F0
FE0003F0
FE0003F0
FE0003F0
FE0003F0
FE0003F0
FE0003F0
FE0003F0
FE0003F0
FE0003F0
FE0003F0
FE0003F0
FE0003F0
FE0003F0
FE0003F0
FE0003F0
FE0007F0
FE0007F0
FE0007F0
FF0007F0
FF000FF0
7F800FF0
7F801FE0
7FE07FE0
3FFFFFC0
1FFFFF80
0FFFFF80
07FFFE00
03FFFC00
00FFF000
00060000
ENDCHAR
STARTCHAR 016B
ENCODING 363
SWIDTH 580 0
DWIDTH 29 0
BBX 24 35 3 -1
BITMAP
1FFFE0
1FFFE0
1FFFE0
000000
000000
000000
000000
000000
FE007F
FE007F
FE007F
FE007F
FE007F
FE007F
FE007F
FE007F
FE007F
FE007F
FE007F
FE007F
FE007F
FE007F
FE007F
FE007F
FE007F
FE00FF
FF00FF
FF01FF
7FC7FF
7FFFFF
7FFF7F
3FFE7F
1FFE7F
0FF87F
008000
ENDCHAR
STARTCHAR 016E
ENCODING 366
SWIDTH 680 0
DWIDTH 34 0
BBX 28 50 3 -1
BITMAP
00040000
001F8000
003FC000
0079E000
0070E000
0070E000
0070E000
003FE000
003FC000
001F8000
00000000
00000000
00000000
00000000
FE0003F0
FE0003F0
FE0003F0
FE0003F0
FE0003F0
FE0003F0
FE0003F0
FE0003F0
FE0003F0
FE0003F0
FE0003F0
FE0003F0
FE0003F0
FE0003F0
FE0003F0
FE0003F0
FE0003F0
FE0003F0
FE0003F0
FE0003F0
FE0003F0
FE0007F0
FE0007F0
FE0007F0
FF0007F0
FF000FF0
7F800FF0
7F801FE0
7FE07FE0
3FFFFFC0
1FFFFF80
0FFFFF80
07FFFE00
03FFFC00
00FFF000
00060000
ENDCHAR
STARTCHAR 016F
ENCODING 367
SWIDTH 580 0
DWIDTH 29 0
BBX 24 41 3 -1
BITMAP
007800
00FE00
01FF00
01C700
038700
038700
01C700
01FF00
00FE00
007C00
000000
000000
000000
000000
FE007F
FE007F
FE007F
FE007F
FE007F
FE007F
FE007F
FE007F
FE007F
FE007F
FE007F
FE007F
FE007F
FE007F
FE007F
FE007F
FE007F
FE00FF
FF00FF
FF01FF
7FC7FF
7FFFFF
7FFF7F
3FFE7F
1FFE7F
0FF87F
008000
ENDCHAR
STARTCHAR 0172
ENCODING 370
SWIDTH 680 0
DWIDTH 34 0
BBX 28 44 3 -9
BITMAP
FE0003F0
FE0003F0
FE0003F0
FE0003F0
FE0003F0
FE0003F0
FE0003F0
FE0003F0
FE0003F0
FE0003F0
FE0003F0
FE0003F0
FE0003F0
FE0003F0
FE0003F0
FE0003F0
FE0003F0
FE0003F0
FE0003F0
FE0003F0
FE0003F0
FE0007F0
FE0007F0
FE0007F0
FF0007F0
FF000FF0
7F800FE0
7F801FE0
7FE07FE0
3FFFFFC0
1FFFFF80
0FFFFF80
07FFFE00
03FFFC00
00FFF000
001F8000
001E0000
003E0000
003E0000
003E0000
003FE000
001FE000
000FE000
0007E000
ENDCHAR
STARTCHAR 0173
ENCODING 371
SWIDTH 580 0
DWIDTH 29 0
BBX 25 35 3 -9
BITMAP
FE007F00
FE007F00
FE007F00
FE007F00
FE007F00
FE007F00
FE007F00
FE007F00
FE007F00
FE007F00
FE007F00
FE007F00
FE007F00
FE007F00
FE007F00
FE007F00
FE007F00
FE00FF00
FF00FF00
FF01FF00
7FC7FF00
7FFFFF00
7FFF7F00
3FFE7F00
1FFE7F00
0FF87F00
00803E00
00007C00
00007800
0000F800
0000FC00
00007F80
00007F80
00003F80
00000780
ENDCHAR
STARTCHAR 0174
ENCODING 372
SWIDTH 980 0
DWIDTH 49 0
BBX 48 46 1 0
BITMAP
000007E00000
00000FF00000
00001FF80000
00003FFC0000
00007FFE0000
0000FE7F0000
0001FC3F8000
0001F81F8000
000000000000
000000000000
000000000000
FE0007E0007F
FE000FE0007F
FE000FF0007F
FE000FF000FE
7F001FF000FE
7F001FF800FE
7F001FF800FE
7F001FF800FC
3F003FFC01FC
3F803FFC01FC
3F803FFC01FC
3F807FFC01F8
1F807FFE03F8
1FC07EFE03F8
1FC0FE7E03F8
0FC0FE7F03F0
0FC0FE7F07F0
0FE1FC3F07F0
0FE1FC3F87F0
07E1FC3F87E0
07E1F83F8FE0
07F3F81FCFE0
07F3F81FCFC0
03F3F01FCFC0
03F7F00FCFC0
03F7F00FFFC0
03FFF00FFF80
01FFE007FF80
01FFE007FF80
01FFE007FF80
01FFC003FF00
00FFC003FF00
00FFC003FF00
00FF8003FF00
00FF8001FE00
ENDCHAR
STARTCHAR 0175
ENCODING 373
SWIDTH 820 0
DWIDTH 41 0
BBX 39 38 1 0
BITMAP
00007C0000
0000FE0000
0001FF0000
0003FF8000
0003FFC000
0007EFE000
000FC7F000
001F83F800
0020000000
0000000000
0000000000
0000000000
FE00FE00FE
7E00FE00FE
7E00FE00FC
7E01FF00FC
7F01FF00FC
3F01FF01FC
3F01FF81F8
3F03FF81F8
3F83FF81F8
1F83FF83F8
1F87EFC3F0
1F87EFC3F0
1FC7EFC3F0
0FC7E7E7F0
0FCFC7E7E0
0FCFC7E7E0
0FCFC3F7E0
07FFC3F7E0
07FF83FFC0
07FF83FFC0
07FF81FFC0
03FF01FFC0
03FF01FF80
03FF01FF80
01FF00FF80
01FE00FF80
ENDCHAR
STARTCHAR 0176
ENCODING 374
SWIDTH 640 0
DWIDTH 32 0
BBX 30 46 1 0
BITMAP
000FC000
001FE000
003FF000
007FF800
00FEFC00
00FCFE00
01F87F00
03F03F80
00000000
00000000
00000000
FF0001FC
7F0003F8
3F8003F8
3F8007F0
1FC007F0
1FC00FE0
0FE00FE0
0FE01FC0
07F01FC0
07F03F80
03F83F80
03F87F00
01F87F00
01FCFE00
00FCFE00
00FFFC00
007FFC00
007FF800
003FF800
003FF000
001FF000
001FE000
000FE000
000FE000
000FE000
000FE000
000FE000
000FE000
000FE000
000FE000
000FE000
000FE000
000FE000
000FE000
000FE000
ENDCHAR
STARTCHAR 0177
ENCODING 375
SWIDTH 540 0
DWIDTH 27 0
BBX 26 49 1 -11
BITMAP
003F0000
007F0000
007F8000
00FFC000
01FFE000
03F3F000
07E1F800
0FC0FC00
00000000
00000000
00000000
00000000
FE001FC0
7F003F80
7F003F80
7F003F80
3F807F00
3F807F00
1F807E00
1FC0FE00
1FC0FE00
0FC0FC00
0FC1FC00
0FE1F800
07E1F800
07E3F800
03F3F000
03F3F000
03F7F000
01FFE000
01FFE000
01FFC000
00FFC000
00FFC000
00FF8000
007F8000
007F0000
007F0000
007F0000
007E0000
00FE0000
00FE0000
01FC0000
03FC0000
7FF80000
7FF80000
7FF00000
7FE00000
7F800000
ENDCHAR
STARTCHAR 0178
ENCODING 376
SWIDTH 640 0
DWIDTH 32 0
BBX 30 47 1 0
BITMAP
01E01F00
03F01F80
07F83F80
07F83FC0
07F83FC0
03F03F80
03F01F00
00000000
00000000
00000000
00000000
00000000
FF0001FC
7F0003F8
3F8003F8
3F8007F0
1FC007F0
1FC00FE0
0FE00FE0
0FE01FC0
07F01FC0
07F03F80
03F83F80
03F87F00
01F87F00
01FCFE00
00FCFE00
00FFFC00
007FFC00
007FF800
003FF800
003FF000
001FF000
001FE000
000FE000
000FE000
000FE000
000FE000
000FE000
000FE000
000FE000
000FE000
000FE000
000FE000
000FE000
000FE000
000FE000
ENDCHAR
STARTCHAR 0179
ENCODING 377
SWIDTH 620 0
DWIDTH 31 0
BBX 26 49 2 0
BITMAP
0000FE00
0001FC00
0001FC00
0003F800
0003F000
0007F000
0007E000
000FC000
000FC000
001F8000
00000000
00000000
00000000
00000000
FFFFFFC0
FFFFFFC0
FFFFFFC0
FFFFFFC0
FFFFFFC0
FFFFFFC0
00003FC0
00007F80
0000FF80
0000FF00
0001FE00
0003FC00
0007F800
000FF800
000FF000
001FE000
003FC000
007F8000
00FF8000
00FF0000
01FE0000
03FC0000
07F80000
0FF80000
0FF00000
1FE00000
3FC00000
7F800000
FF800000
FFFFFFC0
FFFFFFC0
FFFFFFC0
FFFFFFC0
FFFFFFC0
FFFFFFC0
ENDCHAR
STARTCHAR 017A
ENCODING 378
SWIDTH 480 0
DWIDTH 24 0
BBX 20 40 3 0
BITMAP
000FE0
001FC0
001F80
003F80
003F00
007E00
007E00
00FC00
00FC00
01F800
000000
000000
000000
FFFFF0
FFFFF0
FFFFF0
FFFFF0
FFFFF0
FFFFF0
000FE0
001FC0
003FC0
007F80
007F00
00FE00
01FC00
03F800
07F800
07F000
0FE000
1FC000
3F8000
7F8000
FF0000
FE0000
FFFFF0
FFFFF0
FFFFF0
FFFFF0
FFFFF0
ENDCHAR
STARTCHAR 017B
ENCODING 379
SWIDTH 620 0
DWIDTH 31 0
BBX 26 47 2 0
BITMAP
001F0000
003F8000
003F8000
003F8000
003F8000
003F8000
001F0000
00000000
00000000
00000000
00000000
00000000
FFFFFFC0
FFFFFFC0
FFFFFFC0
FFFFFFC0
FFFFFFC0
FFFFFFC0
00003FC0
00007F80
0000FF80
0000FF00
0001FE00
0003FC00
0007F800
000FF800
000FF000
001FE000
003FC000
007F8000
00FF8000
00FF0000
01FE0000
03FC0000
07F80000
0FF80000
0FF00000
1FE00000
3FC00000
7F800000
FF800000
FFFFFFC0
FFFFFFC0
FFFFFFC0
FFFFFFC0
FFFFFFC0
FFFFFFC0
ENDCHAR
STARTCHAR 017C
ENCODING 380
SWIDTH 480 0
DWIDTH 24 0
BBX 20 39 3 0
BITMAP
006000
01F800
03F800
03FC00
03FC00
03F800
01F800
00F000
000000
000000
000000
000000
FFFFF0
FFFFF0
FFFFF0
FFFFF0
FFFFF0
FFFFF0
000FE0
001FC0
003FC0
007F80
007F00
00FE00
01FC00
03F800
07F800
07F000
0FE000
1FC000
3F8000
7F8000
FF0000
FE0000
FFFFF0
FFFFF0
FFFFF0
FFFFF0
FFFFF0
ENDCHAR
STARTCHAR 017D
ENCODING 381
SWIDTH 620 0
DWIDTH 31 0
BBX 26 46 2 0
BITMAP
0FE0FE00
07F0FC00
03F9F800
01FBF000
00FFE000
007FC000
003F8000
001F8000
00000000
00000000
00000000
FFFFFFC0
FFFFFFC0
FFFFFFC0
FFFFFFC0
FFFFFFC0
FFFFFFC0
00003FC0
00007F80
0000FF80
0000FF00
0001FE00
0003FC00
0007F800
000FF800
000FF000
001FE000
003FC000
007F8000
00FF8000
00FF0000
01FE0000
03FC0000
07F80000
0FF80000
0FF00000
1FE00000
3FC00000
7F800000
FF800000
FFFFFFC0
FFFFFFC0
FFFFFFC0
FFFFFFC0
FFFFFFC0
FFFFFFC0
ENDCHAR
STARTCHAR 017E
ENCODING 382
SWIDTH 480 0
DWIDTH 24 0
BBX 20 38 3 0
BITMAP
FC07E0
7E0FE0
3F1FC0
1FBF80
0FFF00
07FE00
07FC00
03F800
000000
000000
000000
FFFFF0
FFFFF0
FFFFF0
FFFFF0
FFFFF0
FFFFF0
000FE0
001FC0
003FC0
007F80
007F00
00FE00
01FC00
03F800
07F800
07F000
0FE000
1FC000
3F8000
7F8000
FF0000
FE0000
FFFFF0
FFFFF0
FFFFF0
FFFFF0
FFFFF0
ENDCHAR
STARTCHAR 01A0
ENCODING 416
SWIDTH 720 0
DWIDTH 36 0
BBX 32 40 2 0
BITMAP
0000003E
0000003E
0000003E
0000003E
0007E07E
003FFFFC
00FFFFF8
03FFFFF0
07FFFFE0
0FFFFFF0
1FFFFFF8
1FF00FF8
3FE007FC
3FC003FC
7F8001FE
7F8001FE
7F0000FE
7F0000FF
FF0000FF
FF0000FF
FF00007F
FE00007F
FE00007F
FE00007F
FE00007F
FF0000FF
FF0000FF
7F0000FF
7F0000FE
7F8001FE
7F8001FE
3FC003FC
3FE007FC
1FF81FF8
0FFFFFF8
0FFFFFF0
07FFFFE0
01FFFFC0
00FFFF00
003FFC00
ENDCHAR
STARTCHAR 01A1
ENCODING 417
SWIDTH 600 0
DWIDTH 30 0
BBX 27 32 2 0
BITMAP
000003E0
000003E0
000003E0
000007C0
000007C0
007F9FC0
03FFFFC0
07FFFF00
0FFFFC00
1FFFFE00
3FFFFE00
3FC0FF00
7F807F00
7F007F80
7E003F80
FE003F80
FE003F80
FE003F80
FE003F80
FE003F80
FE003F80
FE003F80
FE003F80
7F003F80
7F007F00
7F80FF00
3FE3FE00
1FFFFE00
1FFFFC00
0FFFF800
03FFF000
01FFC000
ENDCHAR
STARTCHAR 01AF
ENCODING 431
SWIDTH 680 0
DWIDTH 34 0
BBX 34 41 3 -1
BITMAP
00000007C0
00000007C0
00000007C0
00000007C0
0000000FC0
FE0003FF80
FE0003FF80
FE0003FE00
FE0003F000
FE0003F000
FE0003F000
FE0003F000
FE0003F000
FE0003F000
FE0003F000
FE0003F000
FE0003F000
FE0003F000
FE0003F000
FE0003F000
FE0003F000
FE0003F000
FE0003F000
FE0003F000
FE0003F000
FE0003F000
FE0007F000
FE0007F000
FE0007F000
FF0007F000
FF000FF000
7F800FF000
7F801FE000
7FE07FE000
3FFFFFC000
1FFFFF8000
0FFFFF8000
07FFFE0000
03FFFC0000
00FFF00000
0006000000
ENDCHAR
STARTCHAR 01B0
ENCODING 432
SWIDTH 580 0
DWIDTH 29 0
BBX 30 33 3 -1
BITMAP
0000007C
0000007C
0000007C
0000007C
000000FC
000001F8
FE007FF8
FE007FF0
FE007F80
FE007F00
FE007F00
FE007F00
FE007F00
FE007F00
FE007F00
FE007F00
FE007F00
FE007F00
FE007F00
FE007F00
FE007F00
FE007F00
FE007F00
FE00FF00
FF00FF00
FF01FF00
7FC7FF00
7FFFFF00
7FFF7F00
3FFE7F00
1FFE7F00
0FF87F00
00800000
ENDCHAR
STARTCHAR 02C6
ENCODING 710
SWIDTH 440 0
DWIDTH 22 0
BBX 19 8 2 30
BITMAP
01F000
03F800
07FC00
0FFE00
1FFF00
3FBF80
7F1F80
FE0FE0
ENDCHAR
STARTCHAR 02C7
ENCODING 711
SWIDTH 440 0
DWIDTH 22 0
BBX 20 8 1 30
BITMAP
FE03F0
7F07E0
3F8FC0
1F9F80
0FFF00
07FE00
03FC00
01FC00
ENDCHAR
STARTCHAR 02D8
ENCODING 728
SWIDTH 420 0
DWIDTH 21 0
BBX 18 6 2 30
BITMAP
FC0FC0
7E1F80
7FFF00
3FFE00
1FFC00
03F000
ENDCHAR
STARTCHAR 02D9
ENCODING 729
SWIDTH 200 0
DWIDTH 10 0
BBX 8 8 2 31
BITMAP
18
7E
FE
FF
FF
FE
7E
3C
ENDCHAR
STARTCHAR 02DA
ENCODING 730
SWIDTH 240 0
DWIDTH 12 0
BBX 9 10 2 30
BITMAP
3E00
7F00
FF80
E380
C380
C380
E380
FF80
7F00
3E00
ENDCHAR
STARTCHAR 02DB
ENCODING 731
SWIDTH 240 0
DWIDTH 12 0
BBX 9 10 1 -10
BITMAP
0C00
3E00
7C00
7800
7800
F800
7C00
7F80
3F80
1F80
ENDCHAR
STARTCHAR 02DC
ENCODING 732
SWIDTH 380 0
DWIDTH 19 0
BBX 16 6 2 31
BITMAP
3F0F
7FCF
FFFF
FFFE
F3FE
F0FC
ENDCHAR
STARTCHAR 0300
ENCODING 768
SWIDTH 0 0
DWIDTH 0 0
BBX 12 10 -13 31
BITMAP
FE00
7E00
7F00
3F80
1F80
1FC0
0FC0
07E0
07E0
03F0
ENDCHAR
STARTCHAR 0301
ENCODING 769
SWIDTH 0 0
DWIDTH 0 0
BBX 11 10 -11 31
BITMAP
0FE0
0FE0
1FC0
1F80
3F80
3F00
7E00
7E00
FC00
F800
ENDCHAR
STARTCHAR 0302
ENCODING 770
SWIDTH 0 0
DWIDTH 0 0
BBX 19 8 -19 30
BITMAP
01F000
03F800
07FC00
0FFE00
1FFF00
3FBF80
3F1FC0
FE0FE0
ENDCHAR
STARTCHAR 0303
ENCODING 771
SWIDTH 0 0
DWIDTH 0 0
BBX 16 6 -17 31
BITMAP
3F0F
7FCF
FFFE
FFFE
F3FE
E0F8
ENDCHAR
STARTCHAR 0304
ENCODING 772
SWIDTH 0 0
DWIDTH 0 0
BBX 17 4 -21 32
BITMAP
FFFF80
FFFF80
FFFF80
FFFF80
ENDCHAR
STARTCHAR 0306
ENCODING 774
SWIDTH 0 0
DWIDTH 0 0
BBX 18 6 -19 30
BITMAP
FC0FC0
7E1F80
3FFF80
1FFF00
0FFC00
03F000
ENDCHAR
STARTCHAR 0307
ENCODING 775
SWIDTH 0 0
DWIDTH 0 0
BBX 8 8 -11 31
BITMAP
18
7E
7F
FF
FF
7F
7E
3C
ENDCHAR
STARTCHAR 0308
ENCODING 776
SWIDTH 0 0
DWIDTH 0 0
BBX 20 8 -23 31
BITMAP
100180
7C07E0
FE07F0
FE0FF0
FE0FF0
FE07F0
FE07E0
7C03C0
ENDCHAR
STARTCHAR 0309
ENCODING 777
SWIDTH 0 0
DWIDTH 0 0
BBX 12 10 -14 31
BITMAP
1F80
7FE0
FFF0
FFF0
F8F0
00F0
01F0
03F0
07E0
0F80
ENDCHAR
STARTCHAR 030A
ENCODING 778
SWIDTH 0 0
DWIDTH 0 0
BBX 9 10 -12 30
BITMAP
3E00
7F00
FF80
E380
E180
E180
E380
FF80
7F00
3E00
ENDCHAR
STARTCHAR 030C
ENCODING 780
SWIDTH 0 0
DWIDTH 0 0
BBX 19 8 -21 30
BITMAP
FC07E0
7E0FC0
3F1FC0
1FBF80
1FFF00
0FFE00
07FC00
03F800
ENDCHAR
STARTCHAR 031B
ENCODING 795
SWIDTH 0 0
DWIDTH 0 0
BBX 10 9 -11 30
BITMAP
07C0
07C0
07C0
07C0
07C0
1FC0
FF80
FF00
FC00
ENDCHAR
STARTCHAR 0323
ENCODING 803
SWIDTH 0 0
DWIDTH 0 0
BBX 8 7 -8 -12
BITMAP
3C
7E
FE
FF
FE
7E
3C
ENDCHAR
STARTCHAR 0327
ENCODING 807
SWIDTH 0 0
DWIDTH 0 0
BBX 9 12 -11 -12
BITMAP
7000
F000
FC00
FF00
FF80
0780
0380
0380
8780
FF80
FF00
FE00
ENDCHAR
STARTCHAR 0328
ENCODING 808
SWIDTH 0 0
DWIDTH 0 0
BBX 9 10 -11 -10
BITMAP
1800
3E00
7C00
7800
F800
F800
FC00
7F80
7F80
1F80
ENDCHAR
STARTCHAR 1E80
ENCODING 7808
SWIDTH 980 0
DWIDTH 49 0
BBX 48 49 1 0
BITMAP
0001FC000000
0001FC000000
0000FE000000
00007E000000
00007F000000
00003F000000
00001F800000
00001F800000
00000FC00000
000007C00000
000000000000
000000000000
000000000000
000000000000
FE0007E0007F
FE000FE0007F
FE000FF0007F
FE000FF000FE
7F001FF000FE
7F001FF800FE
7F001FF800FE
7F001FF800FC
3F003FFC01FC
3F803FFC01FC
3F803FFC01FC
3F807FFC01F8
1F807FFE03F8
1FC07EFE03F8
1FC0FE7E03F8
0FC0FE7F03F0
0FC0FE7F07F0
0FE1FC3F07F0
0FE1FC3F87F0
07E1FC3F87E0
07E1F83F8FE0
07F3F81FCFE0
07F3F81FCFC0
03F3F01FCFC0
03F7F00FCFC0
03F7F00FFFC0
03FFF00FFF80
01FFE007FF80
01FFE007FF80
01FFE007FF80
01FFC003FF00
00FFC003FF00
00FFC003FF00
00FF8003FF00
00FF8001FE00
ENDCHAR
STARTCHAR 1E81
ENCODING 7809
SWIDTH 820 0
DWIDTH 41 0
BBX 39 40 1 0
BITMAP
001F800000
001FC00000
000FE00000
0007E00000
0007F00000
0003F00000
0001F80000
0001F80000
0000FC0000
00007C0000
0000000000
0000000000
0000000000
0000000000
FE00FE00FE
7E00FE00FE
7E00FE00FC
7E01FF00FC
7F01FF00FC
3F01FF01FC
3F01FF81F8
3F03FF81F8
3F83FF81F8
1F83FF83F8
1F87EFC3F0
1F87EFC3F0
1FC7EFC3F0
0FC7E7E7F0
0FCFC7E7E0
0FCFC7E7E0
0FCFC3F7E0
07FFC3F7E0
07FF83FFC0
07FF83FFC0
07FF81FFC0
03FF01FFC0
03FF01FF80
03FF01FF80
01FF00FF80
01FE00FF80
ENDCHAR
STARTCHAR 1E82
ENCODING 7810
SWIDTH 980 0
DWIDTH 49 0
BBX 48 49 1 0
BITMAP
0000003F8000
0000003F0000
0000007F0000
0000007E0000
000000FC0000
000000FC0000
000001F80000
000001F80000
000003F00000
000003E00000
000000000000
000000000000
000000000000
000000000000
FE0007E0007F
FE000FE0007F
FE000FF0007F
FE000FF000FE
7F001FF000FE
7F001FF800FE
7F001FF800FE
7F001FF800FC
3F003FFC01FC
3F803FFC01FC
3F803FFC01FC
3F807FFC01F8
1F807FFE03F8
1FC07EFE03F8
1FC0FE7E03F8
0FC0FE7F03F0
0FC0FE7F07F0
0FE1FC3F07F0
0FE1FC3F87F0
07E1FC3F87E0
07E1F83F8FE0
07F3F81FCFE0
07F3F81FCFC0
03F3F01FCFC0
03F7F00FCFC0
03F7F00FFFC0
03FFF00FFF80
01FFE007FF80
01FFE007FF80
01FFE007FF80
01FFC003FF00
00FFC003FF00
00FFC003FF00
00FF8003FF00
00FF8001FE00
ENDCHAR
STARTCHAR 1E83
ENCODING 7811
SWIDTH 820 0
DWIDTH 41 0
BBX 39 40 1 0
BITMAP
000003F800
000007F000
000007E000
00000FE000
00000FC000
00001F8000
00001F8000
00003F0000
00003E0000
00007E0000
0000000000
0000000000
0000000000
0000000000
FE00FE00FE
7E00FE00FE
7E00FE00FC
7E01FF00FC
7F01FF00FC
3F01FF01FC
3F01FF81F8
3F03FF81F8
3F83FF81F8
1F83FF83F8
1F87EFC3F0
1F87EFC3F0
1FC7EFC3F0
0FC7E7E7F0
0FCFC7E7E0
0FCFC7E7E0
0FCFC3F7E0
07FFC3F7E0
07FF83FFC0
07FF83FFC0
07FF81FFC0
03FF01FFC0
03FF01FF80
03FF01FF80
01FF00FF80
01FE00FF80
ENDCHAR
STARTCHAR 1E84
ENCODING 7812
SWIDTH 980 0
DWIDTH 49 0
BBX 48 47 1 0
BITMAP
0001F00F8000
0001F81FC000
0003FC1FC000
0003FC1FC000
0003FC1FC000
0003F81FC000
0001F00F8000
000000000000
000000000000
000000000000
000000000000
000000000000
FE0007E0007F
FE000FE0007F
FE000FF0007F
FE000FF000FE
7F001FF000FE
7F001FF800FE
7F001FF800FE
7F001FF800FC
3F003FFC01FC
3F803FFC01FC
3F803FFC01FC
3F807FFC01F8
1F807FFE03F8
1FC07EFE03F8
1FC0FE7E03F8
0FC0FE7F03F0
0FC0FE7F07F0
0FE1FC3F07F0
0FE1FC3F87F0
07E1FC3F87E0
07E1F83F8FE0
07F3F81FCFE0
07F3F81FCFC0
03F3F01FCFC0
03F7F00FCFC0
03F7F00FFFC0
03FFF00FFF80
01FFE007FF80
01FFE007FF80
01FFE007FF80
01FFC003FF00
00FFC003FF00
00FFC003FF00
00FF8003FF00
00FF8001FE00
ENDCHAR
STARTCHAR 1E85
ENCODING 7813
SWIDTH 820 0
DWIDTH 41 0
BBX 39 39 1 0
BITMAP
000C006000
001F01F800
003F81FC00
003F83FC00
003F83FC00
003F81FC00
003F81F800
000F00F000
0000000000
0000000000
0000000000
0000000000
0000000000
FE00FE00FE
7E00FE00FE
7E00FE00FC
7E01FF00FC
7F01FF00FC
3F01FF01FC
3F01FF81F8
3F03FF81F8
3F83FF81F8
1F83FF83F8
1F87EFC3F0
1F87EFC3F0
1FC7EFC3F0
0FC7E7E7F0
0FCFC7E7E0
0FCFC7E7E0
0FCFC3F7E0
07FFC3F7E0
07FF83FFC0
07FF83FFC0
07FF81FFC0
03FF01FFC0
03FF01FF80
03FF01FF80
01FF00FF80
01FE00FF80
ENDCHAR
STARTCHAR 1EA0
ENCODING 7840
SWIDTH 660 0
DWIDTH 33 0
BBX 32 47 1 -12
BITMAP
0007E000
000FF000
000FF000
001FF000
001FF800
001FF800
003FFC00
003FFC00
003FFC00
007EFE00
007E7E00
007E7E00
00FC7F00
00FC3F00
00FC3F00
01FC3F80
01F81F80
03F81FC0
03F81FC0
03F00FC0
07F00FE0
07FFFFE0
07FFFFE0
0FFFFFF0
0FFFFFF0
0FFFFFF0
1FC003F8
1FC003F8
3F8001F8
3F8001FC
3F8001FC
7F0000FE
7F0000FE
7F0000FE
FE00007F
00000000
00000000
00000000
00000000
00000000
0003C000
0007E000
000FE000
000FF000
000FE000
0007E000
0003C000
ENDCHAR
STARTCHAR 1EA1
ENCODING 7841
SWIDTH 600 0
DWIDTH 30 0
BBX 26 39 2 -12
BITMAP
01FC0000
07FF1FC0
0FFF9FC0
1FFFDFC0
3FFFDFC0
7FFFFFC0
7FC0FFC0
7F807FC0
FF003FC0
FF003FC0
FE003FC0
FE001FC0
FE001FC0
FE001FC0
FE001FC0
FE001FC0
FE003FC0
FE003FC0
FF003FC0
7F007FC0
7F80FFC0
7FE1FFC0
3FFFDFC0
3FFFDFC0
1FFF9FC0
0FFF1FC0
03FE1FC0
00000000
00000000
00000000
00000000
00000000
001E0000
003F0000
003F8000
003F8000
003F8000
003F0000
001F0000
ENDCHAR
STARTCHAR 1EA2
ENCODING 7842
SWIDTH 660 0
DWIDTH 33 0
BBX 32 49 1 0
BITMAP
0007E000
001FF800
003FFC00
003FFC00
007C7C00
00003C00
00007C00
0000F800
0001F000
0003E000
00000000
00000000
00000000
00000000
0007E000
000FF000
000FF000
001FF000
001FF800
001FF800
003FFC00
003FFC00
003FFC00
007EFE00
007E7E00
007E7E00
00FC7F00
00FC3F00
00FC3F00
01FC3F80
01F81F80
03F81FC0
03F81FC0
03F00FC0
07F00FE0
07FFFFE0
07FFFFE0
0FFFFFF0
0FFFFFF0
0FFFFFF0
1FC003F8
1FC003F8
3F8001F8
3F8001FC
3F8001FC
7F0000FE
7F0000FE
7F0000FE
FE00007F
ENDCHAR
STARTCHAR 1EA3
ENCODING 7843
SWIDTH 600 0
DWIDTH 30 0
BBX 26 40 2 0
BITMAP
007F8000
00FFE000
01FFE000
01FBF000
01F1F000
0001F000
0003E000
0007C000
000F8000
001F0000
00000000
00000000
00000000
01FC0000
07FF1FC0
0FFF9FC0
1FFFDFC0
3FFFDFC0
7FFFFFC0
7FC0FFC0
7F807FC0
FF003FC0
FF003FC0
FE003FC0
FE001FC0
FE001FC0
FE001FC0
FE001FC0
FE001FC0
FE003FC0
FE003FC0
FF003FC0
7F007FC0
7F80FFC0
7FE1FFC0
3FFFDFC0
3FFFDFC0
1FFF9FC0
0FFF1FC0
03FE1FC0
ENDCHAR
STARTCHAR 1EA4
ENCODING 7844
SWIDTH 660 0
DWIDTH 33 0
BBX 34 54 1 0
BITMAP
0000001FC0
0000003F80
0000003F00
0000007F00
0000007E00
000000FE00
000000FC00
000001F800
0007E1F800
000FF00000
001FF80000
003FFC0000
007FFE0000
00FE7F0000
01FC3F8000
01F81F8000
0000000000
0000000000
0000000000
0007E00000
000FF00000
000FF00000
001FF00000
001FF80000
001FF80000
003FFC0000
003FFC0000
003FFC0000
007EFE0000
007E7E0000
007E7E0000
00FC7F0000
00FC3F0000
00FC3F0000
01FC3F8000
01F81F8000
03F81FC000
03F81FC000
03F00FC000
07F00FE000
07FFFFE000
07FFFFE000
0FFFFFF000
0FFFFFF000
0FFFFFF000
1FC003F800
1FC003F800
3F8001F800
3F8001FC00
3F8001FC00
7F0000FE00
7F0000FE00
7F0000FE00
FE00007F00
ENDCHAR
STARTCHAR 1EA5
ENCODING 7845
SWIDTH 600 0
DWIDTH 30 0
BBX 32 46 2 0
BITMAP
0000007F
000000FE
000000FC
000001FC
000001F8
000003F0
000003F0
000007E0
001F07C0
003F8FC0
007FC000
00FFE000
01FFF000
03FBF800
07F1F800
07E0FC00
08000200
00000000
00000000
01FC0000
07FF1FC0
0FFF9FC0
1FFFDFC0
3FFFDFC0
7FFFFFC0
7FC0FFC0
7F807FC0
FF003FC0
FF003FC0
FE003FC0
FE001FC0
FE001FC0
FE001FC0
FE001FC0
FE001FC0
FE003FC0
FE003FC0
FF003FC0
7F007FC0
7F80FFC0
7FE1FFC0
3FFFDFC0
3FFFDFC0
1FFF9FC0
0FFF1FC0
03FE1FC0
ENDCHAR
STARTCHAR 1EA6
ENCODING 7846
SWIDTH 660 0
DWIDTH 33 0
BBX 32 54 1 0
BITMAP
00007F00
00003F80
00001F80
00001FC0
00000FC0
000007E0
000007E0
000003F0
0007E1F0
000FF000
001FF800
003FFC00
007EFE00
00FE7F00
01FC3F80
01F81F80
00000000
00000000
00000000
0007E000
000FF000
000FF000
001FF000
001FF800
001FF800
003FFC00
003FFC00
003FFC00
007EFE00
007E7E00
007E7E00
00FC7F00
00FC3F00
00FC3F00
01FC3F80
01F81F80
03F81FC0
03F81FC0
03F00FC0
07F00FE0
07FFFFE0
07FFFFE0
0FFFFFF0
0FFFFFF0
0FFFFFF0
1FC003F8
1FC003F8
3F8001F8
3F8001FC
3F8001FC
7F0000FE
7F0000FE
7F0000FE
FE00007F
ENDCHAR
STARTCHAR 1EA7
ENCODING 7847
SWIDTH 600 0
DWIDTH 30 0
BBX 26 46 2 0
BITMAP
0003F800
0001FC00
0000FC00
0000FE00
00007E00
00003F00
00003F00
00001F80
001F0F80
003F8FC0
007FC000
00FFE000
01FFF000
03FBF800
07F1F800
0FE0FC00
00000200
00000000
00000000
01FC0000
07FF1FC0
0FFF9FC0
1FFFDFC0
3FFFDFC0
7FFFFFC0
7FC0FFC0
7F807FC0
FF003FC0
FF003FC0
FE003FC0
FE001FC0
FE001FC0
FE001FC0
FE001FC0
FE001FC0
FE003FC0
FE003FC0
FF003FC0
7F007FC0
7F80FFC0
7FE1FFC0
3FFFDFC0
3FFFDFC0
1FFF9FC0
0FFF1FC0
03FE1FC0
ENDCHAR
STARTCHAR 1EA8
ENCODING 7848
SWIDTH 660 0
DWIDTH 33 0
BBX 32 55 1 0
BITMAP
000007F8
00000FFC
00001FFE
00001FBE
00001F1F
0000001E
0000003E
0000007C
000000F8
0007E1F0
000FF000
001FF800
003FFC00
007EFE00
00FE7F00
01FC3F80
01F81F80
00000000
00000000
00000000
0007E000
000FF000
000FF000
001FF000
001FF800
001FF800
003FFC00
003FFC00
003FFC00
007EFE00
007E7E00
007E7E00
00FC7F00
00FC3F00
00FC3F00
01FC3F80
01F81F80
03F81FC0
03F81FC0
03F00FC0
07F00FE0
07FFFFE0
07FFFFE0
0FFFFFF0
0FFFFFF0
0FFFFFF0
1FC003F8
1FC003F8
3F8001F8
3F8001FC
3F8001FC
7F0000FE
7F0000FE
7F0000FE
FE00007F
ENDCHAR
STARTCHAR 1EA9
ENCODING 7849
SWIDTH 600 0
DWIDTH 30 0
BBX 29 47 2 0
BITMAP
00000F80
00003FE0
00007FF0
00007FF8
0000F8F8
000000F8
000000F8
000001F0
000003E0
001F07C0
003F8800
007FC000
00FFE000
01FFF000
03FBF800
07F1F800
0FE0FC00
00000200
00000000
00000000
01FC0000
07FF1FC0
0FFF9FC0
1FFFDFC0
3FFFDFC0
7FFFFFC0
7FC0FFC0
7F807FC0
FF003FC0
FF003FC0
FE003FC0
FE001FC0
FE001FC0
FE001FC0
FE001FC0
FE001FC0
FE003FC0
FE003FC0
FF003FC0
7F007FC0
7F80FFC0
7FE1FFC0
3FFFDFC0
3FFFDFC0
1FFF9FC0
0FFF1FC0
03FE1FC0
ENDCHAR
STARTCHAR 1EAA
ENCODING 7850
SWIDTH 660 0
DWIDTH 33 0
BBX 32 55 1 0
BITMAP
000C0F00
007F8F00
007FFF00
00FFFF00
00FFFE00
00F1FC00
00E07000
00000000
00000000
0007E000
000FF000
001FF800
003FFC00
007EFE00
00FE7E00
01FC3F00
03F81F80
00000000
00000000
00000000
0007E000
000FF000
000FF000
001FF000
001FF800
001FF800
003FFC00
003FFC00
003FFC00
007EFE00
007E7E00
007E7E00
00FC7F00
00FC3F00
00FC3F00
01FC3F80
01F81F80
03F81FC0
03F81FC0
03F00FC0
07F00FE0
07FFFFE0
07FFFFE0
0FFFFFF0
0FFFFFF0
0FFFFFF0
1FC003F8
1FC003F8
3F8001F8
3F8001FC
3F8001FC
7F0000FE
7F0000FE
7F0000FE
FE00007F
ENDCHAR
STARTCHAR 1EAB
ENCODING 7851
SWIDTH 600 0
DWIDTH 30 0
BBX 26 46 2 0
BITMAP
00F83800
01FE7800
03FFF800
03FFF800
079FF000
0787E000
00000000
00000000
001F0000
003F8000
007FC000
00FFE000
01FFF000
03F3F000
07F1F800
0FE0FC00
00000200
00000000
00000000
01FC0000
07FF1FC0
0FFF9FC0
1FFFDFC0
3FFFDFC0
7FFFFFC0
7FC0FFC0
7F807FC0
FF003FC0
FF003FC0
FE003FC0
FE001FC0
FE001FC0
FE001FC0
FE001FC0
FE001FC0
FE003FC0
FE003FC0
FF003FC0
7F007FC0
7F80FFC0
7FE1FFC0
3FFFDFC0
3FFFDFC0
1FFF9FC0
0FFF1FC0
03FE1FC0
ENDCHAR
STARTCHAR 1EAC
ENCODING 7852
SWIDTH 660 0
DWIDTH 33 0
BBX 32 58 1 -12
BITMAP
0007E000
000FF000
001FF800
003FFC00
007FFE00
00FE7F00
01FC3F80
01F81F80
00000000
00000000
00000000
0007E000
000FF000
000FF000
001FF000
001FF800
001FF800
003FFC00
003FFC00
003FFC00
007EFE00
007E7E00
007E7E00
00FC7F00
00FC3F00
00FC3F00
01FC3F80
01F81F80
03F81FC0
03F81FC0
03F00FC0
07F00FE0
07FFFFE0
07FFFFE0
0FFFFFF0
0FFFFFF0
0FFFFFF0
1FC003F8
1FC003F8
3F8001F8
3F8001FC
3F8001FC
7F0000FE
7F0000FE
7F0000FE
FE00007F
00000000
00000000
00000000
00000000
00000000
0003C000
0007E000
000FE000
000FF000
000FE000
0007E000
0003C000
ENDCHAR
STARTCHAR 1EAD
ENCODING 7853
SWIDTH 600 0
DWIDTH 30 0
BBX 26 50 2 -12
BITMAP
001F0000
003F8000
007FC000
00FFE000
01FFF000
03FBF800
07F1F800
0FE0FC00
00000200
00000000
00000000
01FC0000
07FF1FC0
0FFF9FC0
1FFFDFC0
3FFFDFC0
7FFFFFC0
7FC0FFC0
7F807FC0
FF003FC0
FF003FC0
FE003FC0
FE001FC0
FE001FC0
FE001FC0
FE001FC0
FE001FC0
FE003FC0
FE003FC0
FF003FC0
7F007FC0
7F80FFC0
7FE1FFC0
3FFFDFC0
3FFFDFC0
1FFF9FC0
0FFF1FC0
03FE1FC0
00000000
00000000
00000000
00000000
00000000
001E0000
003F0000
003F8000
003F8000
003F8000
003F0000
001F0000
ENDCHAR
STARTCHAR 1EAE
ENCODING 7854
SWIDTH 660 0
DWIDTH 33 0
BBX 32 57 1 0
BITMAP
00003F80
00003F00
00007F00
0000FE00
0000FC00
0001FC00
0001F800
0003F000
0003F000
0007E000
00000000
00000000
01F01F80
01F81F00
00FFFF00
007FFE00
003FFC00
000FF000
00000000
00000000
00000000
00000000
0007E000
000FF000
000FF000
001FF000
001FF800
001FF800
003FFC00
003FFC00
003FFC00
007EFE00
007E7E00
007E7E00
00FC7F00
00FC3F00
00FC3F00
01FC3F80
01F81F80
03F81FC0
03F81FC0
03F00FC0
07F00FE0
07FFFFE0
07FFFFE0
0FFFFFF0
0FFFFFF0
0FFFFFF0
1FC003F8
1FC003F8
3F8001F8
3F8001FC
3F8001FC
7F0000FE
7F0000FE
7F0000FE
FE00007F
ENDCHAR
STARTCHAR 1EAF
ENCODING 7855
SWIDTH 600 0
DWIDTH 30 0
BBX 26 48 2 0
BITMAP
0001FC00
0001F800
0003F800
0003F000
0007E000
0007E000
000FC000
000FC000
001F8000
001F0000
00000000
00000000
0FC07C00
07E0FC00
03FFF800
01FFF000
00FFE000
003F0000
00000000
00000000
00000000
01FC0000
07FF1FC0
0FFF9FC0
1FFFDFC0
3FFFDFC0
7FFFFFC0
7FC0FFC0
7F807FC0
FF003FC0
FF003FC0
FE003FC0
FE001FC0
FE001FC0
FE001FC0
FE001FC0
FE001FC0
FE003FC0
FE003FC0
FF003FC0
7F007FC0
7F80FFC0
7FE1FFC0
3FFFDFC0
3FFFDFC0
1FFF9FC0
0FFF1FC0
03FE1FC0
ENDCHAR
STARTCHAR 1EB0
ENCODING 7856
SWIDTH 660 0
DWIDTH 33 0
BBX 32 57 1 0
BITMAP
01FC0000
00FC0000
00FE0000
007E0000
003F0000
003F0000
001F8000
000FC000
000FC000
0007E000
00000000
00000000
01F80F80
00F81F80
00FFFF00
007FFE00
003FFC00
000FF000
00000000
00000000
00000000
00000000
0007E000
000FF000
000FF000
001FF000
001FF800
001FF800
003FFC00
003FFC00
003FFC00
007EFE00
007E7E00
007E7E00
00FC7F00
00FC3F00
00FC3F00
01FC3F80
01F81F80
03F81FC0
03F81FC0
03F00FC0
07F00FE0
07FFFFE0
07FFFFE0
0FFFFFF0
0FFFFFF0
0FFFFFF0
1FC003F8
1FC003F8
3F8001F8
3F8001FC
3F8001FC
7F0000FE
7F0000FE
7F0000FE
FE00007F
ENDCHAR
STARTCHAR 1EB1
ENCODING 7857
SWIDTH 600 0
DWIDTH 30 0
BBX 26 48 2 0
BITMAP
07F00000
07F00000
03F80000
01F80000
01FC0000
00FC0000
007E0000
007E0000
003F0000
001F0000
00000000
00000000
07C07C00
07E0FC00
03FFF800
01FFF000
00FFE000
003F8000
00000000
00000000
00000000
01FC0000
07FF1FC0
0FFF9FC0
1FFFDFC0
3FFFDFC0
7FFFFFC0
7FC0FFC0
7F807FC0
FF003FC0
FF003FC0
FE003FC0
FE001FC0
FE001FC0
FE001FC0
FE001FC0
FE001FC0
FE003FC0
FE003FC0
FF003FC0
7F007FC0
7F80FFC0
7FE1FFC0
3FFFDFC0
3FFFDFC0
1FFF9FC0
0FFF1FC0
03FE1FC0
ENDCHAR
STARTCHAR 1EB2
ENCODING 7858
SWIDTH 660 0
DWIDTH 33 0
BBX 32 57 1 0
BITMAP
000FF000
001FF800
003FFC00
003FFC00
007C3C00
00003C00
00007C00
0000F800
0003F000
0007E000
00000000
00000000
01F01F80
01F81F00
00FFFF00
007FFE00
003FFC00
000FF000
00000000
00000000
00000000
00000000
0007E000
000FF000
000FF000
001FF000
001FF800
001FF800
003FFC00
003FFC00
003FFC00
007EFE00
007E7E00
007E7E00
00FC7F00
00FC3F00
00FC3F00
01FC3F80
01F81F80
03F81FC0
03F81FC0
03F00FC0
07F00FE0
07FFFFE0
07FFFFE0
0FFFFFF0
0FFFFFF0
0FFFFFF0
1FC003F8
1FC003F8
3F8001F8
3F8001FC
3F8001FC
7F0000FE
7F0000FE
7F0000FE
FE00007F
ENDCHAR
STARTCHAR 1EB3
ENCODING 7859
SWIDTH 600 0
DWIDTH 30 0
BBX 26 49 2 0
BITMAP
000E0000
007FC000
00FFE000
01FFE000
01F1F000
01F1F000
0001E000
0003E000
0007C000
001F8000
001F0000
00000000
00000000
0FC07C00
07E0FC00
03FFF800
01FFF000
00FFE000
003F0000
00000000
00000000
00000000
01FC0000
07FF1FC0
0FFF9FC0
1FFFDFC0
3FFFDFC0
7FFFFFC0
7FC0FFC0
7F807FC0
FF003FC0
FF003FC0
FE003FC0
FE001FC0
FE001FC0
FE001FC0
FE001FC0
FE001FC0
FE003FC0
FE003FC0
FF003FC0
7F007FC0
7F80FFC0
7FE1FFC0
3FFFDFC0
3FFFDFC0
1FFF9FC0
0FFF1FC0
03FE1FC0
ENDCHAR
STARTCHAR 1EB4
ENCODING 7860
SWIDTH 660 0
DWIDTH 33 0
BBX 32 54 1 0
BITMAP
003F0F00
007FCF00
00FFFF00
00FFFE00
00F3FE00
00E0FC00
00000000
00000000
00000000
01F01F80
01F81F00
00FFFF00
007FFE00
003FFC00
000FF000
00000000
00000000
00000000
00000000
0007E000
000FF000
000FF000
001FF000
001FF800
001FF800
003FFC00
003FFC00
003FFC00
007EFE00
007E7E00
007E7E00
00FC7F00
00FC3F00
00FC3F00
01FC3F80
01F81F80
03F81FC0
03F81FC0
03F00FC0
07F00FE0
07FFFFE0
07FFFFE0
0FFFFFF0
0FFFFFF0
0FFFFFF0
1FC003F8
1FC003F8
3F8001F8
3F8001FC
3F8001FC
7F0000FE
7F0000FE
7F0000FE
FE00007F
ENDCHAR
STARTCHAR 1EB5
ENCODING 7861
SWIDTH 600 0
DWIDTH 30 0
BBX 26 46 2 0
BITMAP
00203800
01FC3800
03FFF800
03FFF800
07FFF800
078FF000
0783C000
00000000
00000000
00000000
0FC07C00
07E0FC00
03FFF800
01FFF000
00FFE000
003F0000
00000000
00000000
00000000
01FC0000
07FF1FC0
0FFF9FC0
1FFFDFC0
3FFFDFC0
7FFFFFC0
7FC0FFC0
7F807FC0
FF003FC0
FF003FC0
FE003FC0
FE001FC0
FE001FC0
FE001FC0
FE001FC0
FE001FC0
FE003FC0
FE003FC0
FF003FC0
7F007FC0
7F80FFC0
7FE1FFC0
3FFFDFC0
3FFFDFC0
1FFF9FC0
0FFF1FC0
03FE1FC0
ENDCHAR
STARTCHAR 1EB6
ENCODING 7862
SWIDTH 660 0
DWIDTH 33 0
BBX 32 57 1 -12
BITMAP
01F01F80
01F81F00
00FFFF00
007FFE00
003FFC00
000FF000
00000000
00000000
00000000
00000000
0007E000
000FF000
000FF000
001FF000
001FF800
001FF800
003FFC00
003FFC00
003FFC00
007EFE00
007E7E00
007E7E00
00FC7F00
00FC3F00
00FC3F00
01FC3F80
01F81F80
03F81FC0
03F81FC0
03F00FC0
07F00FE0
07FFFFE0
07FFFFE0
0FFFFFF0
0FFFFFF0
0FFFFFF0
1FC003F8
1FC003F8
3F8001F8
3F8001FC
3F8001FC
7F0000FE
7F0000FE
7F0000FE
FE00007F
00000000
00000000
00000000
00000000
00000000
0003C000
0007E000
000FE000
000FF000
000FE000
0007E000
0003C000
ENDCHAR
STARTCHAR 1EB7
ENCODING 7863
SWIDTH 600 0
DWIDTH 30 0
BBX 26 48 2 -12
BITMAP
0FC07C00
07E0FC00
03FFF800
01FFF000
00FFE000
003F0000
00000000
00000000
00000000
01FC0000
07FF1FC0
0FFF9FC0
1FFFDFC0
3FFFDFC0
7FFFFFC0
7FC0FFC0
7F807FC0
FF003FC0
FF003FC0
FE003FC0
FE001FC0
FE001FC0
FE001FC0
FE001FC0
FE001FC0
FE003FC0
FE003FC0
FF003FC0
7F007FC0
7F80FFC0
7FE1FFC0
3FFFDFC0
3FFFDFC0
1FFF9FC0
0FFF1FC0
03FE1FC0
00000000
00000000
00000000
00000000
00000000
001E0000
003F0000
003F8000
003F8000
003F8000
003F0000
001F0000
ENDCHAR
STARTCHAR 1EB8
ENCODING 7864
SWIDTH 560 0
DWIDTH 28 0
BBX 23 47 3 -12
BITMAP
FFFFFE
FFFFFE
FFFFFE
FFFFFE
FFFFFE
FFFFFE
FE0000
FE0000
FE0000
FE0000
FE0000
FE0000
FE0000
FE0000
FFFFF8
FFFFF8
FFFFF8
FFFFF8
FFFFF8
FFFFF8
FE0000
FE0000
FE0000
FE0000
FE0000
FE0000
FE0000
FE0000
FE0000
FFFFFE
FFFFFE
FFFFFE
FFFFFE
FFFFFE
FFFFFE
000000
000000
000000
000000
000000
007800
00FC00
00FE00
00FE00
00FE00
00FC00
007C00
ENDCHAR
STARTCHAR 1EB9
ENCODING 7865
SWIDTH 560 0
DWIDTH 28 0
BBX 25 39 2 -12
BITMAP
007F8000
03FFE000
07FFF000
0FFFFC00
1FFFFC00
3FC1FE00
3F807E00
7F007F00
7E003F00
7E003F00
FE003F80
FFFFFF80
FFFFFF80
FFFFFF80
FFFFFF80
FFFFFF80
FE000000
FE000000
7E000000
7F007F00
7F80FF00
3FC1FE00
1FFFFE00
1FFFFC00
0FFFF800
03FFF000
01FFC000
00000000
00000000
00000000
00000000
00000000
001E0000
003F0000
007F0000
007F0000
007F0000
003F0000
003E0000
ENDCHAR
STARTCHAR 1EBA
ENCODING 7866
SWIDTH 560 0
DWIDTH 28 0
BBX 23 49 3 0
BITMAP
00FE00
03FF00
03FF80
07FF80
07C7C0
0007C0
000780
000F80
003F00
007E00
000000
000000
000000
000000
FFFFFE
FFFFFE
FFFFFE
FFFFFE
FFFFFE
FFFFFE
FE0000
FE0000
FE0000
FE0000
FE0000
FE0000
FE0000
FE0000
FFFFF8
FFFFF8
FFFFF8
FFFFF8
FFFFF8
FFFFF8
FE0000
FE0000
FE0000
FE0000
FE0000
FE0000
FE0000
FE0000
FE0000
FFFFFE
FFFFFE
FFFFFE
FFFFFE
FFFFFE
FFFFFE
ENDCHAR
STARTCHAR 1EBB
ENCODING 7867
SWIDTH 560 0
DWIDTH 28 0
BBX 25 40 2 0
BITMAP
007F8000
01FFC000
01FFE000
03F7E000
03E3E000
0003E000
0003E000
000FC000
001F8000
003E0000
00000000
00000000
00000000
007F8000
03FFE000
07FFF000
0FFFFC00
1FFFFC00
3FC1FE00
3F807E00
7F007F00
7E003F00
7E003F00
FE003F80
FFFFFF80
FFFFFF80
FFFFFF80
FFFFFF80
FFFFFF80
FE000000
FE000000
7E000000
7F007F00
7F80FF00
3FC1FE00
1FFFFE00
1FFFFC00
0FFFF800
03FFF000
01FFC000
ENDCHAR
STARTCHAR 1EBC
ENCODING 7868
SWIDTH 560 0
DWIDTH 28 0
BBX 23 46 3 0
BITMAP
03C0E0
07F0E0
0FFFE0
0FFFE0
1FFFE0
1E1FC0
1E0600
000000
000000
000000
000000
FFFFFE
FFFFFE
FFFFFE
FFFFFE
FFFFFE
FFFFFE
FE0000
FE0000
FE0000
FE0000
FE0000
FE0000
FE0000
FE0000
FFFFF8
FFFFF8
FFFFF8
FFFFF8
FFFFF8
FFFFF8
FE0000
FE0000
FE0000
FE0000
FE0000
FE0000
FE0000
FE0000
FE0000
FFFFFE
FFFFFE
FFFFFE
FFFFFE
FFFFFE
FFFFFE
ENDCHAR
STARTCHAR 1EBD
ENCODING 7869
SWIDTH 560 0
DWIDTH 28 0
BBX 25 37 2 0
BITMAP
01F87800
03FE7800
07FFF000
07FFF000
079FF000
0707E000
00000000
00000000
00000000
00000000
007F8000
03FFE000
07FFF000
0FFFFC00
1FFFFC00
3FC1FE00
3F807E00
7F007F00
7E003F00
7E003F00
FE003F80
FFFFFF80
FFFFFF80
FFFFFF80
FFFFFF80
FFFFFF80
FE000000
FE000000
7E000000
7F007F00
7F80FF00
3FC1FE00
1FFFFE00
1FFFFC00
0FFFF800
03FFF000
01FFC000
ENDCHAR
STARTCHAR 1EBE
ENCODING 7870
SWIDTH 560 0
DWIDTH 28 0
BBX 29 54 3 0
BITMAP
000003F8
000003F8
000007F0
000007E0
00000FE0
00000FC0
00001F80
00001F80
00FE3F00
01FE0000
03FF0000
03FF8000
07EFC000
0FC7E000
1F83F000
3F01F800
00000000
00000000
00000000
FFFFFE00
FFFFFE00
FFFFFE00
FFFFFE00
FFFFFE00
FFFFFE00
FE000000
FE000000
FE000000
FE000000
FE000000
FE000000
FE000000
FE000000
FFFFF800
FFFFF800
FFFFF800
FFFFF800
FFFFF800
FFFFF800
FE000000
FE000000
FE000000
FE000000
FE000000
FE000000
FE000000
FE000000
FE000000
FFFFFE00
FFFFFE00
FFFFFE00
FFFFFE00
FFFFFE00
FFFFFE00
ENDCHAR
STARTCHAR 1EBF
ENCODING 7871
SWIDTH 560 0
DWIDTH 28 0
BBX 31 46 2 0
BITMAP
000000FE
000000FC
000001FC
000001F8
000003F0
000003F0
000007E0
000007C0
003E0FC0
007F1F80
00FF8000
01FFC000
01FFE000
03F7F000
07E3F800
0FC1FC00
00000000
00000000
00000000
007F8000
03FFE000
07FFF000
0FFFFC00
1FFFFC00
3FC1FE00
3F807E00
7F007F00
7E003F00
7E003F00
FE003F80
FFFFFF80
FFFFFF80
FFFFFF80
FFFFFF80
FFFFFF80
FE000000
FE000000
7E000000
7F007F00
7F80FF00
3FC1FE00
1FFFFE00
1FFFFC00
0FFFF800
03FFF000
01FFC000
ENDCHAR
STARTCHAR 1EC0
ENCODING 7872
SWIDTH 560 0
DWIDTH 28 0
BBX 24 54 3 0
BITMAP
0007F0
0007F0
0003F8
0001F8
0001FC
0000FC
00007E
00007E
00FE3F
01FE00
01FF00
03FF80
07EFC0
0FC7E0
1F83F0
3F01F8
000000
000000
000000
FFFFFE
FFFFFE
FFFFFE
FFFFFE
FFFFFE
FFFFFE
FE0000
FE0000
FE0000
FE0000
FE0000
FE0000
FE0000
FE0000
FFFFF8
FFFFF8
FFFFF8
FFFFF8
FFFFF8
FFFFF8
FE0000
FE0000
FE0000
FE0000
FE0000
FE0000
FE0000
FE0000
FE0000
FFFFFE
FFFFFE
FFFFFE
FFFFFE
FFFFFE
FFFFFE
ENDCHAR
STARTCHAR 1EC1
ENCODING 7873
SWIDTH 560 0
DWIDTH 28 0
BBX 25 46 2 0
BITMAP
0003F800
0003F800
0001FC00
0000FC00
0000FE00
00007E00
00003F00
00003F00
003E1F80
007F0F80
00FF8000
01FFC000
01FFE000
03F7F000
07E3F800
0FC1FC00
00000000
00000000
00000000
007F8000
03FFE000
07FFF000
0FFFFC00
1FFFFC00
3FC1FE00
3F807E00
7F007F00
7E003F00
7E003F00
FE003F80
FFFFFF80
FFFFFF80
FFFFFF80
FFFFFF80
FFFFFF80
FE000000
FE000000
7E000000
7F007F00
7F80FF00
3FC1FE00
1FFFFE00
1FFFFC00
0FFFF800
03FFF000
01FFC000
ENDCHAR
STARTCHAR 1EC2
ENCODING 7874
SWIDTH 560 0
DWIDTH 28 0
BBX 27 55 3 0
BITMAP
00007F80
0001FFC0
0001FFE0
0003F7E0
0003E3E0
000003E0
000003E0
00000FC0
00001F80
00FC3F00
01FE0000
03FF0000
03FF8000
07EFC000
0FC7E000
1F83F000
3F01F800
00000000
00000000
00000000
FFFFFE00
FFFFFE00
FFFFFE00
FFFFFE00
FFFFFE00
FFFFFE00
FE000000
FE000000
FE000000
FE000000
FE000000
FE000000
FE000000
FE000000
FFFFF800
FFFFF800
FFFFF800
FFFFF800
FFFFF800
FFFFF800
FE000000
FE000000
FE000000
FE000000
FE000000
FE000000
FE000000
FE000000
FE000000
FFFFFE00
FFFFFE00
FFFFFE00
FFFFFE00
FFFFFE00
FFFFFE00
ENDCHAR
STARTCHAR 1EC3
ENCODING 7875
SWIDTH 560 0
DWIDTH 28 0
BBX 28 47 2 0
BITMAP
00000F80
00007FE0
0000FFF0
0000FFF0
0000F8F0
000000F0
000001F0
000001F0
000007E0
003E0F80
007F0000
00FF8000
01FFC000
01FFE000
03F7F000
07E3F800
0FC1FC00
00000000
00000000
00000000
007F8000
03FFE000
07FFF000
0FFFFC00
1FFFFC00
3FC1FE00
3F807E00
7F007F00
7E003F00
7E003F00
FE003F80
FFFFFF80
FFFFFF80
FFFFFF80
FFFFFF80
FFFFFF80
FE000000
FE000000
7E000000
7F007F00
7F80FF00
3FC1FE00
1FFFFE00
1FFFFC00
0FFFF800
03FFF000
01FFC000
ENDCHAR
STARTCHAR 1EC4
ENCODING 7876
SWIDTH 560 0
DWIDTH 28 0
BBX 23 55 3 0
BITMAP
0180E0
07F0E0
0FFFE0
0FFFE0
1FFFE0
1E3FC0
1E0700
000000
000000
00FC00
01FE00
03FF00
07FF80
07EFC0
0FC7E0
1F83F0
3F03F8
000000
000000
000000
FFFFFE
FFFFFE
FFFFFE
FFFFFE
FFFFFE
FFFFFE
FE0000
FE0000
FE0000
FE0000
FE0000
FE0000
FE0000
FE0000
FFFFF8
FFFFF8
FFFFF8
FFFFF8
FFFFF8
FFFFF8
FE0000
FE0000
FE0000
FE0000
FE0000
FE0000
FE0000
FE0000
FE0000
FFFFFE
FFFFFE
FFFFFE
FFFFFE
FFFFFE
FFFFFE
ENDCHAR
STARTCHAR 1EC5
ENCODING 7877
SWIDTH 560 0
DWIDTH 28 0
BBX 25 46 2 0
BITMAP
01F07800
03FC7800
07FFF000
07FFF000
079FF000
0707E000
00000000
00000000
003E0000
007F0000
00FF8000
01FFC000
03FFE000
03F7F000
07E3F800
0FC1FC00
10000000
00000000
00000000
007F8000
03FFE000
07FFF000
0FFFFC00
1FFFFC00
3FC1FE00
3F807E00
7F007F00
7E003F00
7E003F00
FE003F80
FFFFFF80
FFFFFF80
FFFFFF80
FFFFFF80
FFFFFF80
FE000000
FE000000
7E000000
7F007F00
7F80FF00
3FC1FE00
1FFFFE00
1FFFFC00
0FFFF800
03FFF000
01FFC000
ENDCHAR
STARTCHAR 1EC6
ENCODING 7878
SWIDTH 560 0
DWIDTH 28 0
BBX 23 58 3 -12
BITMAP
00FC00
01FE00
03FF00
03FF80
07EFC0
0FC7E0
1F83F0
3F01F8
000000
000000
000000
FFFFFE
FFFFFE
FFFFFE
FFFFFE
FFFFFE
FFFFFE
FE0000
FE0000
FE0000
FE0000
FE0000
FE0000
FE0000
FE0000
FFFFF8
FFFFF8
FFFFF8
FFFFF8
FFFFF8
FFFFF8
FE0000
FE0000
FE0000
FE0000
FE0000
FE0000
FE0000
FE0000
FE0000
FFFFFE
FFFFFE
FFFFFE
FFFFFE
FFFFFE
FFFFFE
000000
000000
000000
000000
000000
007800
00FC00
00FE00
00FE00
00FE00
00FC00
007C00
ENDCHAR
STARTCHAR 1EC7
ENCODING 7879
SWIDTH 560 0
DWIDTH 28 0
BBX 25 50 2 -12
BITMAP
003E0000
007F0000
00FF8000
01FFC000
01FFE000
03F7F000
07E3F800
0FC1FC00
00000000
00000000
00000000
007F8000
03FFE000
07FFF000
0FFFFC00
1FFFFC00
3FC1FE00
3F807E00
7F007F00
7E003F00
7E003F00
FE003F80
FFFFFF80
FFFFFF80
FFFFFF80
FFFFFF80
FFFFFF80
FE000000
FE000000
7E000000
7F007F00
7F80FF00
3FC1FE00
1FFFFE00
1FFFFC00
0FFFF800
03FFF000
01FFC000
00000000
00000000
00000000
00000000
00000000
001E0000
003F0000
007F0000
007F0000
007F0000
003F0000
003E0000
ENDCHAR
STARTCHAR 1EC8
ENCODING 7880
SWIDTH 260 0
DWIDTH 13 0
BBX 13 49 0 0
BITMAP
1FC0
3FF0
7FF0
FFF8
F8F8
00F8
00F8
01F0
03E0
0FC0
0000
0000
0000
0000
1FC0
1FC0
1FC0
1FC0
1FC0
1FC0
1FC0
1FC0
1FC0
1FC0
1FC0
1FC0
1FC0
1FC0
1FC0
1FC0
1FC0
1FC0
1FC0
1FC0
1FC0
1FC0
1FC0
1FC0
1FC0
1FC0
1FC0
1FC0
1FC0
1FC0
1FC0
1FC0
1FC0
1FC0
1FC0
ENDCHAR
STARTCHAR 1EC9
ENCODING 7881
SWIDTH 280 0
DWIDTH 14 0
BBX 12 40 1 0
BITMAP
3FC0
7FE0
FFF0
F9F0
F8F0
00F0
01F0
03E0
07C0
0F80
0000
0000
0000
0000
1FC0
1FC0
1FC0
1FC0
1FC0
1FC0
1FC0
1FC0
1FC0
1FC0
1FC0
1FC0
1FC0
1FC0
1FC0
1FC0
1FC0
1FC0
1FC0
1FC0
1FC0
1FC0
1FC0
1FC0
1FC0
1FC0
ENDCHAR
STARTCHAR 1ECA
ENCODING 7882
SWIDTH 260 0
DWIDTH 13 0
BBX 7 47 3 -12
BITMAP
FE
FE
FE
FE
FE
FE
FE
FE
FE
FE
FE
FE
FE
FE
FE
FE
FE
FE
FE
FE
FE
FE
FE
FE
FE
FE
FE
FE
FE
FE
FE
FE
FE
FE
FE
00
00
00
00
00
3C
7E
FE
FE
FE
7E
7C
ENDCHAR
STARTCHAR 1ECB
ENCODING 7883
SWIDTH 280 0
DWIDTH 14 0
BBX 8 51 3 -12
BITMAP
18
7E
7F
FF
FF
FF
7E
3C
00
00
00
00
00
7F
7F
7F
7F
7F
7F
7F
7F
7F
7F
7F
7F
7F
7F
7F
7F
7F
7F
7F
7F
7F
7F
7F
7F
7F
7F
00
00
00
00
00
3C
7E
7F
FF
7F
7E
3C
ENDCHAR
STARTCHAR 1ECC
ENCODING 7884
SWIDTH 720 0
DWIDTH 36 0
BBX 32 48 2 -12
BITMAP
0007E000
003FFE00
00FFFF00
03FFFFC0
07FFFFE0
0FFFFFF0
1FFFFFF8
1FF00FF8
3FE007FC
3FC003FC
7F8001FE
7F8001FE
7F0000FE
7F0000FF
FF0000FF
FF0000FF
FF00007F
FE00007F
FE00007F
FE00007F
FE00007F
FF0000FF
FF0000FF
7F0000FF
7F0000FE
7F8001FE
7F8001FE
3FC003FC
3FE007FC
1FF81FF8
0FFFFFF8
0FFFFFF0
07FFFFE0
01FFFFC0
00FFFF00
003FFC00
00000000
00000000
00000000
00000000
00000000
0003C000
0007E000
0007F000
000FF000
0007F000
0007E000
0003C000
ENDCHAR
STARTCHAR 1ECD
ENCODING 7885
SWIDTH 580 0
DWIDTH 29 0
BBX 25 39 2 -12
BITMAP
007F8000
03FFE000
07FFF000
0FFFFC00
1FFFFC00
3FFFFE00
3FC0FF00
7F807F00
7F007F80
7E003F80
FE003F80
FE003F80
FE003F80
FE003F80
FE003F80
FE003F80
FE003F80
FE003F80
7F003F80
7F007F00
7F80FF00
3FE3FE00
1FFFFE00
1FFFFC00
0FFFF800
03FFF000
01FFC000
00000000
00000000
00000000
00000000
00000000
001E0000
003F0000
007F0000
007F0000
007F0000
003F0000
003E0000
ENDCHAR
STARTCHAR 1ECE
ENCODING 7886
SWIDTH 720 0
DWIDTH 36 0
BBX 32 49 2 0
BITMAP
0007E000
001FF800
003FFC00
003FFC00
003E3C00
00003C00
00007C00
0000FC00
0001F800
0003E000
00000000
00000000
00000000
0007E000
003FFE00
00FFFF00
03FFFFC0
07FFFFE0
0FFFFFF0
1FFFFFF8
1FF00FF8
3FE007FC
3FC003FC
7F8001FE
7F8001FE
7F0000FE
7F0000FF
FF0000FF
FF0000FF
FF00007F
FE00007F
FE00007F
FE00007F
FE00007F
FF0000FF
FF0000FF
7F0000FF
7F0000FE
7F8001FE
7F8001FE
3FC003FC
3FE007FC
1FF81FF8
0FFFFFF8
0FFFFFF0
07FFFFE0
01FFFFC0
00FFFF00
003FFC00
ENDCHAR
STARTCHAR 1ECF
ENCODING 7887
SWIDTH 580 0
DWIDTH 29 0
BBX 25 40 2 0
BITMAP
007F8000
01FFC000
01FFE000
03F7E000
03E3E000
0003E000
0003C000
000FC000
001F8000
003E0000
00000000
00000000
00000000
007F8000
03FFE000
07FFF000
0FFFFC00
1FFFFC00
3FFFFE00
3FC0FF00
7F807F00
7F007F80
7E003F80
FE003F80
FE003F80
FE003F80
FE003F80
FE003F80
FE003F80
FE003F80
FE003F80
7F003F80
7F007F00
7F80FF00
3FE3FE00
1FFFFE00
1FFFFC00
0FFFF800
03FFF000
01FFC000
ENDCHAR
STARTCHAR 1ED0
ENCODING 7888
SWIDTH 720 0
DWIDTH 36 0
BBX 34 54 2 0
BITMAP
0000001FC0
0000001F80
0000003F80
0000003F00
0000007E00
0000007E00
000000FC00
000000F800
0007E1F800
000FF00000
001FF80000
003FFC0000
007FFE0000
007E7F0000
00FC3F8000
01F81FC000
0000000000
0000000000
0007E00000
003FFE0000
00FFFF0000
03FFFFC000
07FFFFE000
0FFFFFF000
1FFFFFF800
1FF00FF800
3FE007FC00
3FC003FC00
7F8001FE00
7F8001FE00
7F0000FE00
7F0000FF00
FF0000FF00
FF0000FF00
FF00007F00
FE00007F00
FE00007F00
FE00007F00
FE00007F00
FF0000FF00
FF0000FF00
7F0000FF00
7F0000FE00
7F8001FE00
7F8001FE00
3FC003FC00
3FE007FC00
1FF81FF800
0FFFFFF800
0FFFFFF000
07FFFFE000
01FFFFC000
00FFFF0000
003FFC0000
ENDCHAR
STARTCHAR 1ED1
ENCODING 7889
SWIDTH 580 0
DWIDTH 29 0
BBX 31 46 2 0
BITMAP
000000FE
000000FC
000001FC
000001F8
000003F0
000007F0
000007E0
00000FC0
003E0FC0
007F1F80
00FF8000
01FFC000
01FFE000
03F7F000
07E3F800
0FC1FC00
10000000
00000000
00000000
007F8000
03FFE000
07FFF000
0FFFFC00
1FFFFC00
3FFFFE00
3FC0FF00
7F807F00
7F007F80
7E003F80
FE003F80
FE003F80
FE003F80
FE003F80
FE003F80
FE003F80
FE003F80
FE003F80
7F003F80
7F007F00
7F80FF00
3FE3FE00
1FFFFE00
1FFFFC00
0FFFF800
03FFF000
01FFC000
ENDCHAR
STARTCHAR 1ED2
ENCODING 7890
SWIDTH 720 0
DWIDTH 36 0
BBX 32 54 2 0
BITMAP
00007F00
00003F80
00001F80
00001FC0
00000FC0
000007E0
000007E0
000003F0
0007E1F0
000FF000
001FF800
003FFC00
007F7E00
007E7F00
00FC3F80
01F81FC0
00000000
00000000
0007E000
003FFE00
00FFFF00
03FFFFC0
07FFFFE0
0FFFFFF0
1FFFFFF8
1FF00FF8
3FE007FC
3FC003FC
7F8001FE
7F8001FE
7F0000FE
7F0000FF
FF0000FF
FF0000FF
FF00007F
FE00007F
FE00007F
FE00007F
FE00007F
FF0000FF
FF0000FF
7F0000FF
7F0000FE
7F8001FE
7F8001FE
3FC003FC
3FE007FC
1FF81FF8
0FFFFFF8
0FFFFFF0
07FFFFE0
01FFFFC0
00FFFF00
003FFC00
ENDCHAR
STARTCHAR 1ED3
ENCODING 7891
SWIDTH 580 0
DWIDTH 29 0
BBX 25 46 2 0
BITMAP
0003F800
0003F800
0001FC00
0000FC00
0000FE00
00007E00
00003F00
00003F00
003E1F80
007F0F80
00FF8000
01FFC000
01FFE000
03F7F000
07E3F800
0FC1FC00
00000000
00000000
00000000
007F8000
03FFE000
07FFF000
0FFFFC00
1FFFFC00
3FFFFE00
3FC0FF00
7F807F00
7F007F80
7E003F80
FE003F80
FE003F80
FE003F80
FE003F80
FE003F80
FE003F80
FE003F80
FE003F80
7F003F80
7F007F00
7F80FF00
3FE3FE00
1FFFFE00
1FFFFC00
0FFFF800
03FFF000
01FFC000
ENDCHAR
STARTCHAR 1ED4
ENCODING 7892
SWIDTH 720 0
DWIDTH 36 0
BBX 32 55 2 0
BITMAP
000007FC
00000FFE
00000FFE
00001FBF
00001F1F
0000001F
0000003E
0000007E
000000F8
0007E1F0
000FF000
001FF800
003FFC00
007F7E00
007E7F00
00FC3F80
01F81FC0
00000000
00000000
0007E000
003FFE00
00FFFF00
03FFFFC0
07FFFFE0
0FFFFFF0
1FFFFFF8
1FF00FF8
3FE007FC
3FC003FC
7F8001FE
7F8001FE
7F0000FE
7F0000FF
FF0000FF
FF0000FF
FF00007F
FE00007F
FE00007F
FE00007F
FE00007F
FF0000FF
FF0000FF
7F0000FF
7F0000FE
7F8001FE
7F8001FE
3FC003FC
3FE007FC
1FF81FF8
0FFFFFF8
0FFFFFF0
07FFFFE0
01FFFFC0
00FFFF00
003FFC00
ENDCHAR
STARTCHAR 1ED5
ENCODING 7893
SWIDTH 580 0
DWIDTH 29 0
BBX 28 47 2 0
BITMAP
00001F80
00007FE0
0000FFF0
0000FFF0
0000F9F0
000000F0
000001F0
000001F0
000007E0
003E0F80
007F0000
00FF8000
01FFC000
03FFE000
03F7F000
07E3F800
0FC1FC00
10000000
00000000
00000000
007F8000
03FFE000
07FFF000
0FFFFC00
1FFFFC00
3FFFFE00
3FC0FF00
7F807F00
7F007F80
7E003F80
FE003F80
FE003F80
FE003F80
FE003F80
FE003F80
FE003F80
FE003F80
FE003F80
7F003F80
7F007F00
7F80FF00
3FE3FE00
1FFFFE00
1FFFFC00
0FFFF800
03FFF000
01FFC000
ENDCHAR
STARTCHAR 1ED6
ENCODING 7894
SWIDTH 720 0
DWIDTH 36 0
BBX 32 55 2 0
BITMAP
001C0700
003F8F00
007FFF00
00FFFF00
00FFFE00
00F1FE00
00F07800
00000000
00000000
0007E000
000FF000
001FF800
003FFC00
007FFE00
00FE7F00
00FC3F80
01F81FC0
00000000
00000000
0007E000
003FFE00
00FFFF00
03FFFFC0
07FFFFE0
0FFFFFF0
1FFFFFF8
1FF00FF8
3FE007FC
3FC003FC
7F8001FE
7F8001FE
7F0000FE
7F0000FF
FF0000FF
FF0000FF
FF00007F
FE00007F
FE00007F
FE00007F
FE00007F
FF0000FF
FF0000FF
7F0000FF
7F0000FE
7F8001FE
7F8001FE
3FC003FC
3FE007FC
1FF81FF8
0FFFFFF8
0FFFFFF0
07FFFFE0
01FFFFC0
00FFFF00
003FFC00
ENDCHAR
STARTCHAR 1ED7
ENCODING 7895
SWIDTH 580 0
DWIDTH 29 0
BBX 25 46 2 0
BITMAP
01F07800
03FC7800
07FFF000
07FFF000
07BFF000
0707E000
00000000
00000000
003E0000
007F0000
00FF8000
01FFC000
03FFE000
07F7F000
07E3F800
0FC1FC00
10000000
00000000
00000000
007F8000
03FFE000
07FFF000
0FFFFC00
1FFFFC00
3FFFFE00
3FC0FF00
7F807F00
7F007F80
7E003F80
FE003F80
FE003F80
FE003F80
FE003F80
FE003F80
FE003F80
FE003F80
FE003F80
7F003F80
7F007F00
7F80FF00
3FE3FE00
1FFFFE00
1FFFFC00
0FFFF800
03FFF000
01FFC000
ENDCHAR
STARTCHAR 1ED8
ENCODING 7896
SWIDTH 720 0
DWIDTH 36 0
BBX 32 58 2 -12
BITMAP
0007E000
000FF000
001FF800
003FFC00
007F7E00
007E7F00
00FC3F80
01F81FC0
00000000
00000000
0007E000
003FFE00
00FFFF00
03FFFFC0
07FFFFE0
0FFFFFF0
1FFFFFF8
1FF00FF8
3FE007FC
3FC003FC
7F8001FE
7F8001FE
7F0000FE
7F0000FF
FF0000FF
FF0000FF
FF00007F
FE00007F
FE00007F
FE00007F
FE00007F
FF0000FF
FF0000FF
7F0000FF
7F0000FE
7F8001FE
7F8001FE
3FC003FC
3FE007FC
1FF81FF8
0FFFFFF8
0FFFFFF0
07FFFFE0
01FFFFC0
00FFFF00
003FFC00
00000000
00000000
00000000
00000000
00000000
0003C000
0007E000
0007F000
000FF000
0007F000
0007E000
0003C000
ENDCHAR
STARTCHAR 1ED9
ENCODING 7897
SWIDTH 580 0
DWIDTH 29 0
BBX 25 50 2 -12
BITMAP
003E0000
007F0000
00FF8000
01FFC000
01FFE000
03F7F000
07E3F800
0FC1FC00
10000000
00000000
00000000
007F8000
03FFE000
07FFF000
0FFFFC00
1FFFFC00
3FFFFE00
3FC0FF00
7F807F00
7F007F80
7E003F80
FE003F80
FE003F80
FE003F80
FE003F80
FE003F80
FE003F80
FE003F80
FE003F80
7F003F80
7F007F00
7F80FF00
3FE3FE00
1FFFFE00
1FFFFC00
0FFFF800
03FFF000
01FFC000
00000000
00000000
00000000
00000000
00000000
001E0000
003F0000
007F0000
007F0000
007F0000
003F0000
003E0000
ENDCHAR
STARTCHAR 1EDA
ENCODING 7898
SWIDTH 720 0
DWIDTH 36 0
BBX 32 49 2 0
BITMAP
00003F80
00003F80
00007F00
00007E00
0000FE00
0000FC00
0001F800
0001F800
0003F000
0003E03E
0000003E
0000003E
0000003E
0007E07E
003FFFFC
00FFFFF8
03FFFFF0
07FFFFE0
0FFFFFF0
1FFFFFF8
1FF00FF8
3FE007FC
3FC003FC
7F8001FE
7F8001FE
7F0000FE
7F0000FF
FF0000FF
FF0000FF
FF00007F
FE00007F
FE00007F
FE00007F
FE00007F
FF0000FF
FF0000FF
7F0000FF
7F0000FE
7F8001FE
7F8001FE
3FC003FC
3FE007FC
1FF81FF8
0FFFFFF8
0FFFFFF0
07FFFFE0
01FFFFC0
00FFFF00
003FFC00
ENDCHAR
STARTCHAR 1EDB
ENCODING 7899
SWIDTH 600 0
DWIDTH 30 0
BBX 27 40 2 0
BITMAP
0001FC00
0003F800
0003F000
0007F000
0007E000
000FC000
000FC000
001F8000
001F03E0
003F03E0
000003E0
000007C0
000007C0
007F9FC0
03FFFFC0
07FFFF00
0FFFFC00
1FFFFE00
3FFFFE00
3FC0FF00
7F807F00
7F007F80
7E003F80
FE003F80
FE003F80
FE003F80
FE003F80
FE003F80
FE003F80
FE003F80
FE003F80
7F003F80
7F007F00
7F80FF00
3FE3FE00
1FFFFE00
1FFFFC00
0FFFF800
03FFF000
01FFC000
ENDCHAR
STARTCHAR 1EDC
ENCODING 7900
SWIDTH 720 0
DWIDTH 36 0
BBX 32 49 2 0
BITMAP
01FC0000
00FC0000
00FE0000
007E0000
007F0000
003F0000
001F8000
001F8000
000FC000
0007C03E
0000003E
0000003E
0000003E
0007E07E
003FFFFC
00FFFFF8
03FFFFF0
07FFFFE0
0FFFFFF0
1FFFFFF8
1FF00FF8
3FE007FC
3FC003FC
7F8001FE
7F8001FE
7F0000FE
7F0000FF
FF0000FF
FF0000FF
FF00007F
FE00007F
FE00007F
FE00007F
FE00007F
FF0000FF
FF0000FF
7F0000FF
7F0000FE
7F8001FE
7F8001FE
3FC003FC
3FE007FC
1FF81FF8
0FFFFFF8
0FFFFFF0
07FFFFE0
01FFFFC0
00FFFF00
003FFC00
ENDCHAR
STARTCHAR 1EDD
ENCODING 7901
SWIDTH 600 0
DWIDTH 30 0
BBX 27 40 2 0
BITMAP
0FE00000
0FE00000
07F00000
03F00000
03F80000
01F80000
00FC0000
00FC0000
007E03E0
003E03E0
000003E0
000007C0
000007C0
007F9FC0
03FFFFC0
07FFFF00
0FFFFC00
1FFFFE00
3FFFFE00
3FC0FF00
7F807F00
7F007F80
7E003F80
FE003F80
FE003F80
FE003F80
FE003F80
FE003F80
FE003F80
FE003F80
FE003F80
7F003F80
7F007F00
7F80FF00
3FE3FE00
1FFFFE00
1FFFFC00
0FFFF800
03FFF000
01FFC000
ENDCHAR
STARTCHAR 1EDE
ENCODING 7902
SWIDTH 720 0
DWIDTH 36 0
BBX 32 49 2 0
BITMAP
0007E000
001FF800
003FFC00
003FFC00
003E3C00
00003C00
00007C00
0000FC00
0001F800
0003E03E
0000003E
0000003E
0000003E
0007E07E
003FFFFC
00FFFFF8
03FFFFF0
07FFFFE0
0FFFFFF0
1FFFFFF8
1FF00FF8
3FE007FC
3FC003FC
7F8001FE
7F8001FE
7F0000FE
7F0000FF
FF0000FF
FF0000FF
FF00007F
FE00007F
FE00007F
FE00007F
FE00007F
FF0000FF
FF0000FF
7F0000FF
7F0000FE
7F8001FE
7F8001FE
3FC003FC
3FE007FC
1FF81FF8
0FFFFFF8
0FFFFFF0
07FFFFE0
01FFFFC0
00FFFF00
003FFC00
ENDCHAR
STARTCHAR 1EDF
ENCODING 7903
SWIDTH 600 0
DWIDTH 30 0
BBX 27 40 2 0
BITMAP
007F8000
01FFC000
01FFE000
03F7E000
03E3E000
0003E000
0003C000
000FC000
001F83E0
003E03E0
000003E0
000007C0
000007C0
007F9FC0
03FFFFC0
07FFFF00
0FFFFC00
1FFFFE00
3FFFFE00
3FC0FF00
7F807F00
7F007F80
7E003F80
FE003F80
FE003F80
FE003F80
FE003F80
FE003F80
FE003F80
FE003F80
FE003F80
7F003F80
7F007F00
7F80FF00
3FE3FE00
1FFFFE00
1FFFFC00
0FFFF800
03FFF000
01FFC000
ENDCHAR
STARTCHAR 1EE0
ENCODING 7904
SWIDTH 720 0
DWIDTH 36 0
BBX 32 46 2 0
BITMAP
001E0700
007F8F00
007FFF00
00FFFF00
00FFFE00
00F0FC00
00F0103E
0000003E
0000003E
0000003E
0007E07E
003FFFFC
00FFFFF8
03FFFFF0
07FFFFE0
0FFFFFF0
1FFFFFF8
1FF00FF8
3FE007FC
3FC003FC
7F8001FE
7F8001FE
7F0000FE
7F0000FF
FF0000FF
FF0000FF
FF00007F
FE00007F
FE00007F
FE00007F
FE00007F
FF0000FF
FF0000FF
7F0000FF
7F0000FE
7F8001FE
7F8001FE
3FC003FC
3FE007FC
1FF81FF8
0FFFFFF8
0FFFFFF0
07FFFFE0
01FFFFC0
00FFFF00
003FFC00
ENDCHAR
STARTCHAR 1EE1
ENCODING 7905
SWIDTH 600 0
DWIDTH 30 0
BBX 27 37 2 0
BITMAP
01F87800
03FE7800
07FFF000
07FFF000
079FF000
0707C3E0
000003E0
000003E0
000007C0
000007C0
007F9FC0
03FFFFC0
07FFFF00
0FFFFC00
1FFFFE00
3FFFFE00
3FC0FF00
7F807F00
7F007F80
7E003F80
FE003F80
FE003F80
FE003F80
FE003F80
FE003F80
FE003F80
FE003F80
FE003F80
7F003F80
7F007F00
7F80FF00
3FE3FE00
1FFFFE00
1FFFFC00
0FFFF800
03FFF000
01FFC000
ENDCHAR
STARTCHAR 1EE2
ENCODING 7906
SWIDTH 720 0
DWIDTH 36 0
BBX 32 52 2 -12
BITMAP
0000003E
0000003E
0000003E
0000003E
0007E07E
003FFFFC
00FFFFF8
03FFFFF0
07FFFFE0
0FFFFFF0
1FFFFFF8
1FF00FF8
3FE007FC
3FC003FC
7F8001FE
7F8001FE
7F0000FE
7F0000FF
FF0000FF
FF0000FF
FF00007F
FE00007F
FE00007F
FE00007F
FE00007F
FF0000FF
FF0000FF
7F0000FF
7F0000FE
7F8001FE
7F8001FE
3FC003FC
3FE007FC
1FF81FF8
0FFFFFF8
0FFFFFF0
07FFFFE0
01FFFFC0
00FFFF00
003FFC00
00000000
00000000
00000000
00000000
00000000
0003C000
0007E000
0007F000
000FF000
0007F000
0007E000
0003C000
ENDCHAR
STARTCHAR 1EE3
ENCODING 7907
SWIDTH 600 0
DWIDTH 30 0
BBX 27 44 2 -12
BITMAP
000003E0
000003E0
000003E0
000007C0
000007C0
007F9FC0
03FFFFC0
07FFFF00
0FFFFC00
1FFFFE00
3FFFFE00
3FC0FF00
7F807F00
7F007F80
7E003F80
FE003F80
FE003F80
FE003F80
FE003F80
FE003F80
FE003F80
FE003F80
FE003F80
7F003F80
7F007F00
7F80FF00
3FE3FE00
1FFFFE00
1FFFFC00
0FFFF800
03FFF000
01FFC000
00000000
00000000
00000000
00000000
00000000
001E0000
003F0000
007F0000
007F0000
007F0000
003F0000
003E0000
ENDCHAR
STARTCHAR 1EE4
ENCODING 7908
SWIDTH 680 0
DWIDTH 34 0
BBX 28 47 3 -12
BITMAP
FE0003F0
FE0003F0
FE0003F0
FE0003F0
FE0003F0
FE0003F0
FE0003F0
FE0003F0
FE0003F0
FE0003F0
FE0003F0
FE0003F0
FE0003F0
FE0003F0
FE0003F0
FE0003F0
FE0003F0
FE0003F0
FE0003F0
FE0003F0
FE0003F0
FE0007F0
FE0007F0
FE0007F0
FF0007F0
FF000FF0
7F800FF0
7F801FE0
7FE07FE0
3FFFFFC0
1FFFFF80
0FFFFF80
07FFFE00
03FFFC00
00FFF000
00060000
00000000
00000000
00000000
00000000
000F0000
001F8000
001FC000
001FC000
001FC000
001F8000
000F0000
ENDCHAR
STARTCHAR 1EE5
ENCODING 7909
SWIDTH 580 0
DWIDTH 29 0
BBX 24 38 3 -12
BITMAP
FE007F
FE007F
FE007F
FE007F
FE007F
FE007F
FE007F
FE007F
FE007F
FE007F
FE007F
FE007F
FE007F
FE007F
FE007F
FE007F
FE007F
FE00FF
FF00FF
FF01FF
7FC7FF
7FFFFF
7FFF7F
3FFE7F
1FFE7F
0FF87F
008000
000000
000000
000000
000000
003C00
007E00
00FE00
00FE00
00FE00
00FE00
007C00
ENDCHAR
STARTCHAR 1EE6
ENCODING 7910
SWIDTH 680 0
DWIDTH 34 0
BBX 28 50 3 -1
BITMAP
001F8000
007FE000
00FFF000
00FFF000
00F8F000
0000F000
0001F000
0003F000
0007E000
000F8000
00000000
00000000
00000000
00000000
FE0003F0
FE0003F0
FE0003F0
FE0003F0
FE0003F0
FE0003F0
FE0003F0
FE0003F0
FE0003F0
FE0003F0
FE0003F0
FE0003F0
FE0003F0
FE0003F0
FE0003F0
FE0003F0
FE0003F0
FE0003F0
FE0003F0
FE0003F0
FE0003F0
FE0007F0
FE0007F0
FE0007F0
FF0007F0
FF000FF0
7F800FF0
7F801FE0
7FE07FE0
3FFFFFC0
1FFFFF80
0FFFFF80
07FFFE00
03FFFC00
00FFF000
00060000
ENDCHAR
STARTCHAR 1EE7
ENCODING 7911
SWIDTH 580 0
DWIDTH 29 0
BBX 24 41 3 -1
BITMAP
01FE00
03FF80
07FF80
07EFC0
07C7C0
0007C0
000F80
001F00
003E00
007C00
000000
000000
000000
000000
FE007F
FE007F
FE007F
FE007F
FE007F
FE007F
FE007F
FE007F
FE007F
FE007F
FE007F
FE007F
FE007F
FE007F
FE007F
FE007F
FE007F
FE00FF
FF00FF
FF01FF
7FC7FF
7FFFFF
7FFF7F
3FFE7F
1FFE7F
0FF87F
008000
ENDCHAR
STARTCHAR 1EE8
ENCODING 7912
SWIDTH 680 0
DWIDTH 34 0
BBX 34 50 3 -1
BITMAP
0000FE0000
0000FE0000
0001FC0000
0001F80000
0003F80000
0003F00000
0007E00000
0007E00000
000FC00000
000F8007C0
00000007C0
00000007C0
00000007C0
0000000FC0
FE0003FF80
FE0003FF80
FE0003FE00
FE0003F000
FE0003F000
FE0003F000
FE0003F000
FE0003F000
FE0003F000
FE0003F000
FE0003F000
FE0003F000
FE0003F000
FE0003F000
FE0003F000
FE0003F000
FE0003F000
FE0003F000
FE0003F000
FE0003F000
FE0003F000
FE0007F000
FE0007F000
FE0007F000
FF0007F000
FF000FF000
7F800FF000
7F801FE000
7FE07FE000
3FFFFFC000
1FFFFF8000
0FFFFF8000
07FFFE0000
03FFFC0000
00FFF00000
0006000000
ENDCHAR
STARTCHAR 1EE9
ENCODING 7913
SWIDTH 580 0
DWIDTH 29 0
BBX 30 41 3 -1
BITMAP
0003F000
0007F000
0007E000
000FC000
001FC000
001F8000
003F0000
003F0000
007E007C
007C007C
0000007C
0000007C
000000FC
000001F8
FE007FF8
FE007FF0
FE007F80
FE007F00
FE007F00
FE007F00
FE007F00
FE007F00
FE007F00
FE007F00
FE007F00
FE007F00
FE007F00
FE007F00
FE007F00
FE007F00
FE007F00
FE00FF00
FF00FF00
FF01FF00
7FC7FF00
7FFFFF00
7FFF7F00
3FFE7F00
1FFE7F00
0FF87F00
00800000
ENDCHAR
STARTCHAR 1EEA
ENCODING 7914
SWIDTH 680 0
DWIDTH 34 0
BBX 34 50 3 -1
BITMAP
07F0000000
03F0000000
03F8000000
01F8000000
01FC000000
00FC000000
007E000000
007E000000
003F000000
001F0007C0
00000007C0
00000007C0
00000007C0
0000000FC0
FE0003FF80
FE0003FF80
FE0003FE00
FE0003F000
FE0003F000
FE0003F000
FE0003F000
FE0003F000
FE0003F000
FE0003F000
FE0003F000
FE0003F000
FE0003F000
FE0003F000
FE0003F000
FE0003F000
FE0003F000
FE0003F000
FE0003F000
FE0003F000
FE0003F000
FE0007F000
FE0007F000
FE0007F000
FF0007F000
FF000FF000
7F800FF000
7F801FE000
7FE07FE000
3FFFFFC000
1FFFFF8000
0FFFFF8000
07FFFE0000
03FFFC0000
00FFF00000
0006000000
ENDCHAR
STARTCHAR 1EEB
ENCODING 7915
SWIDTH 580 0
DWIDTH 29 0
BBX 30 41 3 -1
BITMAP
3F800000
1FC00000
0FC00000
0FE00000
07E00000
03F00000
03F00000
01F80000
00F8007C
00FC007C
0000007C
0000007C
000000FC
000001F8
FE007FF8
FE007FF0
FE007F80
FE007F00
FE007F00
FE007F00
FE007F00
FE007F00
FE007F00
FE007F00
FE007F00
FE007F00
FE007F00
FE007F00
FE007F00
FE007F00
FE007F00
FE00FF00
FF00FF00
FF01FF00
7FC7FF00
7FFFFF00
7FFF7F00
3FFE7F00
1FFE7F00
0FF87F00
00800000
ENDCHAR
STARTCHAR 1EEC
ENCODING 7916
SWIDTH 680 0
DWIDTH 34 0
BBX 34 50 3 -1
BITMAP
001F800000
007FE00000
00FFF00000
00FFF00000
00F8F00000
0000F00000
0001F00000
0003F00000
0007E00000
000F8007C0
00000007C0
00000007C0
00000007C0
0000000FC0
FE0003FF80
FE0003FF80
FE0003FE00
FE0003F000
FE0003F000
FE0003F000
FE0003F000
FE0003F000
FE0003F000
FE0003F000
FE0003F000
FE0003F000
FE0003F000
FE0003F000
FE0003F000
FE0003F000
FE0003F000
FE0003F000
FE0003F000
FE0003F000
FE0003F000
FE0007F000
FE0007F000
FE0007F000
FF0007F000
FF000FF000
7F800FF000
7F801FE000
7FE07FE000
3FFFFFC000
1FFFFF8000
0FFFFF8000
07FFFE0000
03FFFC0000
00FFF00000
0006000000
ENDCHAR
STARTCHAR 1EED
ENCODING 7917
SWIDTH 580 0
DWIDTH 29 0
BBX 30 41 3 -1
BITMAP
01FE0000
03FF8000
07FF8000
07EFC000
07C7C000
0007C000
000F8000
001F0000
003E007C
007C007C
0000007C
0000007C
000000FC
000001F8
FE007FF8
FE007FF0
FE007F80
FE007F00
FE007F00
FE007F00
FE007F00
FE007F00
FE007F00
FE007F00
FE007F00
FE007F00
FE007F00
FE007F00
FE007F00
FE007F00
FE007F00
FE00FF00
FF00FF00
FF01FF00
7FC7FF00
7FFFFF00
7FFF7F00
3FFE7F00
1FFE7F00
0FF87F00
00800000
ENDCHAR
STARTCHAR 1EEE
ENCODING 7918
SWIDTH 680 0
DWIDTH 34 0
BBX 34 47 3 -1
BITMAP
00781C0000
01FE3C0000
01FFFC0000
03FFFC0000
03FFF80000
03C3F00000
03C04007C0
00000007C0
00000007C0
00000007C0
0000000FC0
FE0003FF80
FE0003FF80
FE0003FE00
FE0003F000
FE0003F000
FE0003F000
FE0003F000
FE0003F000
FE0003F000
FE0003F000
FE0003F000
FE0003F000
FE0003F000
FE0003F000
FE0003F000
FE0003F000
FE0003F000
FE0003F000
FE0003F000
FE0003F000
FE0003F000
FE0007F000
FE0007F000
FE0007F000
FF0007F000
FF000FF000
7F800FF000
7F801FE000
7FE07FE000
3FFFFFC000
1FFFFF8000
0FFFFF8000
07FFFE0000
03FFFC0000
00FFF00000
0006000000
ENDCHAR
STARTCHAR 1EEF
ENCODING 7919
SWIDTH 600 0
DWIDTH 30 0
BBX 30 38 3 -1
BITMAP
03F07000
07FCF000
07FFF000
0FFFF000
0F3FE000
0F07C07C
0000007C
0000007C
0000007C
000000FC
000001F8
FE007FF8
FE007FF0
FE007F80
FE007F00
FE007F00
FE007F00
FE007F00
FE007F00
FE007F00
FE007F00
FE007F00
FE007F00
FE007F00
FE007F00
FE007F00
FE007F00
FE007F00
FE00FF00
FF00FF00
FF01FF00
7FC7FF00
7FFFFF00
7FFF7F00
3FFE7F00
1FFE7F00
0FF87F00
00800000
ENDCHAR
STARTCHAR 1EF0
ENCODING 7920
SWIDTH 680 0
DWIDTH 34 0
BBX 34 52 3 -12
BITMAP
00000007C0
00000007C0
00000007C0
00000007C0
0000000FC0
FE0003FF80
FE0003FF80
FE0003FE00
FE0003F000
FE0003F000
FE0003F000
FE0003F000
FE0003F000
FE0003F000
FE0003F000
FE0003F000
FE0003F000
FE0003F000
FE0003F000
FE0003F000
FE0003F000
FE0003F000
FE0003F000
FE0003F000
FE0003F000
FE0003F000
FE0007F000
FE0007F000
FE0007F000
FF0007F000
FF000FF000
7F800FF000
7F801FE000
7FE07FE000
3FFFFFC000
1FFFFF8000
0FFFFF8000
07FFFE0000
03FFFC0000
00FFF00000
0006000000
0000000000
0000000000
0000000000
0000000000
000F000000
001F800000
001FC00000
001FC00000
001FC00000
001F800000
000F000000
ENDCHAR
STARTCHAR 1EF1
ENCODING 7921
SWIDTH 580 0
DWIDTH 29 0
BBX 30 44 3 -12
BITMAP
0000007C
0000007C
0000007C
0000007C
000000FC
000001F8
FE007FF8
FE007FF0
FE007F80
FE007F00
FE007F00
FE007F00
FE007F00
FE007F00
FE007F00
FE007F00
FE007F00
FE007F00
FE007F00
FE007F00
FE007F00
FE007F00
FE007F00
FE00FF00
FF00FF00
FF01FF00
7FC7FF00
7FFFFF00
7FFF7F00
3FFE7F00
1FFE7F00
0FF87F00
00800000
00000000
00000000
00000000
00000000
003C0000
007E0000
00FE0000
00FE0000
00FE0000
00FE0000
007C0000
ENDCHAR
STARTCHAR 1EF2
ENCODING 7922
SWIDTH 640 0
DWIDTH 32 0
BBX 30 49 1 0
BITMAP
03F80000
01F80000
01FC0000
00FC0000
00FE0000
007E0000
003F0000
003F0000
001F8000
000F8000
00000000
00000000
00000000
00000000
FF0001FC
7F0003F8
3F8003F8
3F8007F0
1FC007F0
1FC00FE0
0FE00FE0
0FE01FC0
07F01FC0
07F03F80
03F83F80
03F87F00
01F87F00
01FCFE00
00FCFE00
00FFFC00
007FFC00
007FF800
003FF800
003FF000
001FF000
001FE000
000FE000
000FE000
000FE000
000FE000
000FE000
000FE000
000FE000
000FE000
000FE000
000FE000
000FE000
000FE000
000FE000
ENDCHAR
STARTCHAR 1EF3
ENCODING 7923
SWIDTH 540 0
DWIDTH 27 0
BBX 26 51 1 -11
BITMAP
0FE00000
07E00000
07F00000
03F00000
01F80000
01F80000
00FC0000
007C0000
007E0000
003E0000
00000000
00000000
00000000
00000000
FE001FC0
7F003F80
7F003F80
7F003F80
3F807F00
3F807F00
1F807E00
1FC0FE00
1FC0FE00
0FC0FC00
0FC1FC00
0FE1F800
07E1F800
07E3F800
03F3F000
03F3F000
03F7F000
01FFE000
01FFE000
01FFC000
00FFC000
00FFC000
00FF8000
007F8000
007F0000
007F0000
007F0000
007E0000
00FE0000
00FE0000
01FC0000
03FC0000
7FF80000
7FF80000
7FF00000
7FE00000
7F800000
ENDCHAR
STARTCHAR 1EF4
ENCODING 7924
SWIDTH 640 0
DWIDTH 32 0
BBX 30 47 1 -12
BITMAP
FF0001FC
7F0003F8
3F8003F8
3F8007F0
1FC007F0
1FC00FE0
0FE00FE0
0FE01FC0
07F01FC0
07F03F80
03F83F80
03F87F00
01F87F00
01FCFE00
00FCFE00
00FFFC00
007FFC00
007FF800
003FF800
003FF000
001FF000
001FE000
000FE000
000FE000
000FE000
000FE000
000FE000
000FE000
000FE000
000FE000
000FE000
000FE000
000FE000
000FE000
000FE000
00000000
00000000
00000000
00000000
00000000
00078000
000FC000
000FE000
001FE000
000FE000
000FC000
00078000
ENDCHAR
STARTCHAR 1EF5
ENCODING 7925
SWIDTH 540 0
DWIDTH 27 0
BBX 26 38 1 -12
BITMAP
FE001FC0
7F003F80
7F003F80
7F003F80
3F807F00
3F807F00
1F807E00
1FC0FE00
1FC0FE00
0FC0FC00
0FC1FC00
0FE1F800
07E1F800
07E3F800
03F3F000
03F3F000
03F7F000
01FFE000
01FFE000
01FFC000
00FFC000
00FFC000
00FF8000
007F8000
007F0000
007F0000
007F0000
007E0000
00FE0000
00FE0000
01FC0000
03FC1F00
7FF83F80
7FF83F80
7FF03F80
7FE03F80
7F803F80
00001F00
ENDCHAR
STARTCHAR 1EF6
ENCODING 7926
SWIDTH 640 0
DWIDTH 32 0
BBX 30 49 1 0
BITMAP
000FC000
003FF000
007FF800
007FF800
007C7800
00007800
0000F800
0001F800
0003F000
0007C000
00000000
00000000
00000000
00000000
FF0001FC
7F0003F8
3F8003F8
3F8007F0
1FC007F0
1FC00FE0
0FE00FE0
0FE01FC0
07F01FC0
07F03F80
03F83F80
03F87F00
01F87F00
01FCFE00
00FCFE00
00FFFC00
007FFC00
007FF800
003FF800
003FF000
001FF000
001FE000
000FE000
000FE000
000FE000
000FE000
000FE000
000FE000
000FE000
000FE000
000FE000
000FE000
000FE000
000FE000
000FE000
ENDCHAR
STARTCHAR 1EF7
ENCODING 7927
SWIDTH 540 0
DWIDTH 27 0
BBX 26 51 1 -11
BITMAP
007F8000
00FFC000
01FFE000
01F3E000
03E1E000
0003E000
0003E000
0007C000
001F8000
003F0000
00000000
00000000
00000000
00000000
FE001FC0
7F003F80
7F003F80
7F003F80
3F807F00
3F807F00
1F807E00
1FC0FE00
1FC0FE00
0FC0FC00
0FC1FC00
0FE1F800
07E1F800
07E3F800
03F3F000
03F3F000
03F7F000
01FFE000
01FFE000
01FFC000
00FFC000
00FFC000
00FF8000
007F8000
007F0000
007F0000
007F0000
007E0000
00FE0000
00FE0000
01FC0000
03FC0000
7FF80000
7FF80000
7FF00000
7FE00000
7F800000
ENDCHAR
STARTCHAR 1EF8
ENCODING 7928
SWIDTH 640 0
DWIDTH 32 0
BBX 30 46 1 0
BITMAP
003C0E00
00FF1E00
00FFFE00
01FFFE00
01FFFC00
01E1F800
01E02000
00000000
00000000
00000000
00000000
FF0001FC
7F0003F8
3F8003F8
3F8007F0
1FC007F0
1FC00FE0
0FE00FE0
0FE01FC0
07F01FC0
07F03F80
03F83F80
03F87F00
01F87F00
01FCFE00
00FCFE00
00FFFC00
007FFC00
007FF800
003FF800
003FF000
001FF000
001FE000
000FE000
000FE000
000FE000
000FE000
000FE000
000FE000
000FE000
000FE000
000FE000
000FE000
000FE000
000FE000
000FE000
ENDCHAR
STARTCHAR 1EF9
ENCODING 7929
SWIDTH 540 0
DWIDTH 27 0
BBX 26 48 1 -11
BITMAP
01F87800
03FE7800
07FFF800
07FFF000
079FF000
0707E000
00000000
00000000
00000000
00000000
00000000
FE001FC0
7F003F80
7F003F80
7F003F80
3F807F00
3F807F00
1F807E00
1FC0FE00
1FC0FE00
0FC0FC00
0FC1FC00
0FE1F800
07E1F800
07E3F800
03F3F000
03F3F000
03F7F000
01FFE000
01FFE000
01FFC000
00FFC000
00FFC000
00FF8000
007F8000
007F0000
007F0000
007F0000
007E0000
00FE0000
00FE0000
01FC0000
03FC0000
7FF80000
7FF80000
7FF00000
7FE00000
7F800000
ENDCHAR
STARTCHAR 2013
ENCODING 8211
SWIDTH 640 0
DWIDTH 32 0
BBX 22 5 5 13
BITMAP
FFFFFC
FFFFFC
FFFFFC
FFFFFC
FFFFFC
ENDCHAR
STARTCHAR 2014
ENCODING 8212
SWIDTH 740 0
DWIDTH 37 0
BBX 28 5 5 13
BITMAP
FFFFFFF0
FFFFFFF0
FFFFFFF0
FFFFFFF0
FFFFFFF0
ENDCHAR
STARTCHAR 2018
ENCODING 8216
SWIDTH 280 0
DWIDTH 14 0
BBX 8 15 3 24
BITMAP
0C
1C
38
70
E0
E0
E0
E0
FE
FF
FF
FF
FF
7E
3C
ENDCHAR
STARTCHAR 2019
ENCODING 8217
SWIDTH 280 0
DWIDTH 14 0
BBX 8 15 4 24
BITMAP
3C
7E
FF
FF
FF
FF
7F
0F
07
07
06
0E
1C
38
30
ENDCHAR
STARTCHAR 201A
ENCODING 8218
SWIDTH 300 0
DWIDTH 15 0
BBX 9 16 3 -9
BITMAP
0800
3F00
7F80
7F80
FF80
7F80
7F80
1F80
0380
0380
0380
0780
0700
1E00
3C00
3000
ENDCHAR
STARTCHAR 201C
ENCODING 8220
SWIDTH 520 0
DWIDTH 26 0
BBX 20 15 3 24
BITMAP
0C00E0
1C01E0
380380
700700
E00700
E00E00
E00E00
E00F00
FE0FE0
FF0FF0
FF0FF0
FF0FF0
FF07F0
7E07F0
3C01C0
ENDCHAR
STARTCHAR 201D
ENCODING 8221
SWIDTH 540 0
DWIDTH 27 0
BBX 20 15 4 24
BITMAP
7C07C0
FE0FE0
FF0FF0
FF0FF0
FF0FF0
FF0FF0
3F03F0
070070
070070
070070
0E0060
1E00E0
3C03C0
780380
600200
ENDCHAR
STARTCHAR 201E
ENCODING 8222
SWIDTH 540 0
DWIDTH 27 0
BBX 21 15 3 -9
BITMAP
3E03F0
7F07F0
7F87F8
FF87F8
7F87F8
7F87F8
1F81F8
078038
038038
070038
070070
0E00F0
3E01E0
3801C0
200000
ENDCHAR
STARTCHAR 2020
ENCODING 8224
SWIDTH 580 0
DWIDTH 29 0
BBX 21 47 4 -12
BITMAP
00FC00
00FC00
00FC00
00FC00
00FC00
00FC00
00FC00
00FC00
00FC00
FFFFF8
FFFFF8
FFFFF8
FFFFF8
FFFFF8
FFFFF8
00FC00
00FC00
00FC00
00FC00
00FC00
00FC00
00FC00
00FC00
00FC00
00FC00
00FC00
00FC00
00FC00
00FC00
00FC00
00FC00
00FC00
00FC00
00FC00
00FC00
00FC00
00FC00
00FC00
00FC00
00FC00
00FC00
00FC00
00FC00
00FC00
00FC00
00FC00
00FC00
ENDCHAR
STARTCHAR 2021
ENCODING 8225
SWIDTH 580 0
DWIDTH 29 0
BBX 21 47 4 -12
BITMAP
00FC00
00FC00
00FC00
00FC00
00FC00
00FC00
00FC00
00FC00
00FC00
FFFFF8
FFFFF8
FFFFF8
FFFFF8
FFFFF8
FFFFF8
00FC00
00FC00
00FC00
00FC00
00FC00
00FC00
00FC00
00FC00
00FC00
00FC00
00FC00
00FC00
00FC00
00FC00
00FC00
00FC00
00FC00
00FC00
FFFFF8
FFFFF8
FFFFF8
FFFFF8
FFFFF8
FFFFF8
00FC00
00FC00
00FC00
00FC00
00FC00
00FC00
00FC00
00FC00
ENDCHAR
STARTCHAR 2022
ENCODING 8226
SWIDTH 480 0
DWIDTH 24 0
BBX 12 12 3 12
BITMAP
1F80
3FC0
7FE0
FFE0
FFF0
FFF0
FFF0
FFE0
7FE0
7FC0
3F80
0400
ENDCHAR
STARTCHAR 2026
ENCODING 8230
SWIDTH 860 0
DWIDTH 43 0
BBX 35 7 4 0
BITMAP
3E01F00FC0
7F03F80FC0
7F03FC1FE0
FF03FC1FE0
7F03FC1FE0
7F03F80FC0
3E01F00F80
ENDCHAR
STARTCHAR 2030
ENCODING 8240
SWIDTH 1140 0
DWIDTH 57 0
BBX 53 36 2 0
BITMAP
1FE000FC000000
3FF001F8000000
7FF001F8000000
7DF803F0000000
F87803F0000000
F87807E0000000
F87807E0000000
F8780FC0000000
F8780F80000000
FCF81F80000000
7FF81F00000000
7FF03F00000000
3FE03E00000000
0F807E00000000
00007C00000000
0000FC00000000
0000F800000000
0001F800000000
0001F000000000
0003F000000000
0003E000000000
0007E01F000FC0
000FC07FC03FE0
000FC0FFE07FF0
001F81FFE07FF8
001F81F1F0F8F8
003F01E1F0F878
003F01E0F0F878
007E01E0F0F878
007E01E1F0F878
00FC01F1F0F878
00FC01FBE07FF8
01F800FFE07FF0
01F800FFC03FF0
03F0007F801FE0
00000004000200
ENDCHAR
STARTCHAR 2039
ENCODING 8249
SWIDTH 400 0
DWIDTH 20 0
BBX 16 21 2 5
BITMAP
007F
00FE
01FC
03F8
07F0
0FE0
1FC0
1F80
3F80
7F00
FE00
7F00
3F80
1F80
0FC0
0FE0
07F0
03F8
01FC
00FE
007F
ENDCHAR
STARTCHAR 203A
ENCODING 8250
SWIDTH 400 0
DWIDTH 20 0
BBX 16 21 2 5
BITMAP
FE00
7F00
3F80
1FC0
0FE0
07F0
03F8
01FC
00FE
007E
007F
007E
00FC
01FC
03F8
07F0
0FE0
1FC0
3F80
7F00
FE00
ENDCHAR
STARTCHAR 2044
ENCODING 8260
SWIDTH 500 0
DWIDTH 25 0
BBX 27 35 -1 0
BITMAP
00000FE0
00000FC0
00001F80
00001F80
00003F00
00007F00
00007E00
0000FC00
0000FC00
0001F800
0003F800
0003F000
0007E000
0007E000
000FC000
001FC000
001F8000
003F0000
003F0000
007E0000
00FE0000
00FC0000
01F80000
01F80000
03F00000
07F00000
07E00000
0FC00000
0FC00000
1F800000
3F800000
3F000000
7E000000
7E000000
FC000000
ENDCHAR
STARTCHAR 2070
ENCODING 8304
SWIDTH 340 0
DWIDTH 17 0
BBX 15 19 1 19
BITMAP
0FE0
1FF0
3FF8
7E7C
7C7C
783E
F83E
F83E
F83E
F83E
F83E
F83E
F83E
783C
7C7C
3FFC
3FF8
1FF0
07E0
ENDCHAR
STARTCHAR 2074
ENCODING 8308
SWIDTH 320 0
DWIDTH 16 0
BBX 15 18 1 20
BITMAP
01F0
03F0
07F0
07F0
0FF0
0EF0
1CF0
3CF0
38F0
78F0
F0F0
FFFE
FFFE
FFFE
00F0
00F0
00F0
00F0
ENDCHAR
STARTCHAR 2075
ENCODING 8309
SWIDTH 320 0
DWIDTH 16 0
BBX 14 19 1 19
BITMAP
7FF8
7FF8
7FF8
7FF8
7000
F000
F3E0
FFF0
FFF8
F8FC
187C
003C
003C
F87C
7CF8
7FF8
3FF0
1FE0
0380
ENDCHAR
STARTCHAR 2076
ENCODING 8310
SWIDTH 320 0
DWIDTH 16 0
BBX 14 19 1 19
BITMAP
07C0
0780
0F00
0F00
1E00
3C00
3D80
7FF0
7FF8
FCF8
F87C
F03C
F03C
F03C
F878
7FF8
3FF0
1FE0
0300
ENDCHAR
STARTCHAR 2077
ENCODING 8311
SWIDTH 300 0
DWIDTH 15 0
BBX 13 18 1 20
BITMAP
FFF8
FFF8
FFF8
FFF8
0078
00F0
00F0
01E0
01E0
01E0
03C0
03C0
0780
0780
0F00
0F00
1E00
1E00
ENDCHAR
STARTCHAR 2078
ENCODING 8312
SWIDTH 320 0
DWIDTH 16 0
BBX 14 19 1 19
BITMAP
1FE0
3FF0
7FF8
7C78
787C
783C
787C
7CF8
3FF0
3FF0
7EF8
787C
F03C
F03C
F87C
FEFC
7FF8
3FF0
1FE0
ENDCHAR
STARTCHAR 2079
ENCODING 8313
SWIDTH 320 0
DWIDTH 16 0
BBX 14 19 1 19
BITMAP
0FE0
3FF0
7FF8
7878
783C
F03C
F03C
783C
787C
7FFC
3FF8
1F78
00F0
01E0
01E0
03C0
07C0
0780
0F00
ENDCHAR
STARTCHAR 2080
ENCODING 8320
SWIDTH 340 0
DWIDTH 17 0
BBX 15 20 1 -13
BITMAP
0180
0FF0
3FF8
3FF8
7C7C
7C3C
783E
F83E
F83E
F83E
F83E
F83E
F83E
783E
7C3C
7C7C
3FFC
3FF8
1FF0
03C0
ENDCHAR
STARTCHAR 2081
ENCODING 8321
SWIDTH 280 0
DWIDTH 14 0
BBX 12 19 1 -13
BITMAP
0F00
1F00
7F00
FF00
FF00
FF00
CF00
8F00
0F00
0F00
0F00
0F00
0F00
0F00
0F00
FFF0
FFF0
FFF0
FFF0
ENDCHAR
STARTCHAR 2082
ENCODING 8322
SWIDTH 300 0
DWIDTH 15 0
BBX 13 19 1 -13
BITMAP
1FC0
3FF0
7FF0
78F8
F078
F078
0078
0078
00F0
01F0
03E0
0FC0
1F00
3E00
7C00
FFF8
FFF8
FFF8
FFF8
ENDCHAR
STARTCHAR 2083
ENCODING 8323
SWIDTH 320 0
DWIDTH 16 0
BBX 14 20 1 -13
BITMAP
0380
1FF0
3FF8
7FF8
787C
783C
003C
007C
03F8
03F0
03F0
00F8
003C
003C
F83C
FC7C
7FFC
3FF8
1FF0
07C0
ENDCHAR
STARTCHAR 2084
ENCODING 8324
SWIDTH 320 0
DWIDTH 16 0
BBX 15 19 1 -13
BITMAP
01F0
03F0
03F0
07F0
0FF0
0EF0
1EF0
3CF0
38F0
78F0
70F0
FFFE
FFFE
FFFE
00F0
00F0
00F0
00F0
00F0
ENDCHAR
STARTCHAR 2085
ENCODING 8325
SWIDTH 320 0
DWIDTH 16 0
BBX 14 19 1 -13
BITMAP
7FF8
7FF8
7FF8
7FF8
7000
F000
F3E0
FFF0
FFF8
FCF8
F87C
003C
003C
F87C
F878
7FF8
3FF0
1FE0
0780
ENDCHAR
STARTCHAR 2086
ENCODING 8326
SWIDTH 320 0
DWIDTH 16 0
BBX 14 19 1 -13
BITMAP
03C0
0780
0F80
0F00
1E00
3C00
3D80
7FF0
7FF8
FCF8
F87C
F03C
F03C
F03C
F878
7FF8
3FF0
1FE0
0780
ENDCHAR
STARTCHAR 2087
ENCODING 8327
SWIDTH 300 0
DWIDTH 15 0
BBX 13 19 1 -13
BITMAP
FFF8
FFF8
FFF8
FFF8
0078
0078
00F0
00F0
01E0
01E0
03C0
03C0
0780
0780
0F00
0F00
1E00
1E00
3E00
ENDCHAR
STARTCHAR 2088
ENCODING 8328
SWIDTH 320 0
DWIDTH 16 0
BBX 14 20 1 -13
BITMAP
0300
1FF0
3FF8
7FF8
787C
783C
783C
7878
7FF8
1FF0
3FF0
7C78
F83C
F03C
F83C
F87C
7FFC
7FF8
3FF0
0780
ENDCHAR
STARTCHAR 2089
ENCODING 8329
SWIDTH 320 0
DWIDTH 16 0
BBX 14 19 1 -13
BITMAP
0FE0
3FF0
7FF8
7878
783C
F03C
F03C
783C
787C
7FF8
3FF8
1F78
00F0
01E0
01E0
03C0
07C0
0780
0F00
ENDCHAR
STARTCHAR 20AB
ENCODING 8363
SWIDTH 600 0
DWIDTH 30 0
BBX 27 41 2 0
BITMAP
00007F00
00007F00
00007F00
000FFFE0
000FFFE0
000FFFE0
000FFFE0
00007F00
00007F00
03FC7F00
0FFE7F00
1FFF7F00
3FFFFF00
7FFFFF00
7FFFFF00
FF81FF00
FF00FF00
FE007F00
FE007F00
FE007F00
FC007F00
FC007F00
FE007F00
FE007F00
FE007F00
FF00FF00
FF81FF00
7FFFFF00
7FFFFF00
3FFFFF00
1FFF7F00
0FFE7F00
03F80000
00000000
00000000
00000000
00000000
1FFFFF80
1FFFFF80
1FFFFF80
1FFFFF80
ENDCHAR
STARTCHAR 20AC
ENCODING 8364
SWIDTH 680 0
DWIDTH 34 0
BBX 33 35 0 0
BITMAP
0000F80000
0007FF8000
001FFFC000
003FFFF000
007FFFF800
00FFFFF800
01FFCFFC00
03FE01FE00
03FC00FE00
07F8007F00
07F0007F00
07F0003F00
07F0003F80
FFFFE00000
FFFFE00000
FFFFE00000
0FE0000000
0FE0000000
0FE0000000
FFFFE00000
FFFFE00000
FFFFE00000
FFFFE00000
07F0003F00
07F0007F00
07F8007F00
03F800FE00
03FC01FE00
01FE03FE00
01FFFFFC00
00FFFFF800
007FFFF000
003FFFE000
001FFFC000
0007FF0000
ENDCHAR
STARTCHAR 2122
ENCODING 8482
SWIDTH 400 0
DWIDTH 20 0
BBX 18 9 1 26
BITMAP
FFF7C0
FFF7C0
39FFC0
39FFC0
39DDC0
39DDC0
39C9C0
39C1C0
39C1C0
ENDCHAR
STARTCHAR 215B
ENCODING 8539
SWIDTH 900 0
DWIDTH 45 0
BBX 42 35 2 0
BITMAP
1F000007E000
3F00000FC000
7F00001FC000
FF00001F8000
FF00003F0000
FF00003F0000
EF00007E0000
8F0000FE0000
0F0000FC0000
0F0001F80000
0F0001F80000
0F0003F00000
0F0007F00000
FFF007E00000
FFF00FC00000
FFF00FC00000
FFF01F800000
FFF03F807C00
00003F01FF00
00007E03FF80
00007E07FF80
0000FC07C7C0
0000FC07C7C0
0001F807C7C0
0003F003CF80
0003F003FF00
0007E001FF00
0007E003EF80
000FC007C7C0
001F800783C0
001F800787C0
003F0007C7C0
003F0007FFC0
007E0003FF80
00FC0001FF00
ENDCHAR
STARTCHAR 215C
ENCODING 8540
SWIDTH 880 0
DWIDTH 44 0
BBX 41 35 2 0
BITMAP
1FE0000FC000
3FF0001F8000
7FF8001F8000
FCF8003F0000
F878007F0000
0078007E0000
00F800FC0000
07F000FC0000
07E001F80000
07F003F80000
00F803F00000
007807E00000
F07807E00000
F8F80FC00000
FFF81FC00000
7FF81F800000
3FF03F000000
1FC03F00F000
00007E03FE00
0000FE07FF00
0000FC0FFF00
0001F80F8F00
0001F80F0F80
0003F00F0F00
0003F00F9F00
0007E007FE00
000FC003FE00
000FC00FFF00
001F800F0F80
001F800F0F80
003F000F0F80
007E000F9F80
007E000FFF00
00FC0007FF00
00FC0003FE00
ENDCHAR
STARTCHAR 215D
ENCODING 8541
SWIDTH 900 0
DWIDTH 45 0
BBX 42 35 2 0
BITMAP
FFF0000FE000
FFF0000FC000
FFF0001F8000
FFF0001F8000
F000003F0000
F000007F0000
F7E0007E0000
FFF000FC0000
FFF000FC0000
F8F801F80000
00F803F80000
00F803F00000
F8F807E00000
FFF807E00000
7FF00FC00000
7FE01FC00000
3FC01F800000
03003F007800
00003F01FF00
00007E03FF80
0000FE07FF80
0000FC07C780
0001F80787C0
0001F8078780
0003F007CF80
0007F003FF00
0007E001FF00
000FC007FF80
000FC00787C0
001F800787C0
003F800787C0
003F0007CFC0
007E0007FF80
007E0003FF80
00FC0001FF00
ENDCHAR
STARTCHAR 215E
ENCODING 8542
SWIDTH 900 0
DWIDTH 45 0
BBX 42 35 2 0
BITMAP
FFF0000FC000
FFF0001F8000
FFF0001F8000
FFF0003F0000
00F0007F0000
00F0007E0000
01F000FC0000
01E000FC0000
03E001F80000
03C003F80000
07C003F00000
078007E00000
0F8007E00000
0F000FC00000
1F001FC00000
1E001F800000
3E003F000000
3C003F007C00
00007E01FF00
0000FE03FF80
0000FC07FF80
0001F807C7C0
0001F807C7C0
0003F007C7C0
0003F003CF80
0007E003FF00
000FC001FF00
000FC003EF80
001F8007C7C0
001F800783C0
003F000787C0
007E0007C7C0
007E0007FFC0
00FC0003FF80
00FC0001FF00
ENDCHAR
STARTCHAR 2212
ENCODING 8722
SWIDTH 600 0
DWIDTH 30 0
BBX 22 6 4 13
BITMAP
FFFFFC
FFFFFC
FFFFFC
FFFFFC
FFFFFC
FFFFFC
ENDCHAR
STARTCHAR 2215
ENCODING 8725
SWIDTH 520 0
DWIDTH 26 0
BBX 23 35 2 0
BITMAP
00007E
0000FE
0000FC
0001FC
0001F8
0003F8
0003F0
0007F0
0007E0
000FE0
000FC0
001FC0
001F80
003F80
003F00
007F00
007E00
00FE00
00FC00
01FC00
01F800
03F800
03F000
07F000
07E000
0FE000
0FC000
1FC000
1F8000
3F8000
3F0000
7F0000
7E0000
FE0000
FC0000
ENDCHAR
STARTCHAR 2248
ENCODING 8776
SWIDTH 580 0
DWIDTH 29 0
BBX 19 18 5 6
BITMAP
1F80E0
3FF1E0
7FFFE0
FFFFE0
F9FFC0
F03F80
000000
000000
000000
000000
000000
0600E0
3FC1E0
7FFFE0
7FFFE0
FFFFC0
F0FFC0
F01E00
ENDCHAR
STARTCHAR 2260
ENCODING 8800
SWIDTH 740 0
DWIDTH 37 0
BBX 23 30 7 0
BITMAP
00007E
0000FC
0000FC
0001F8
0003F8
0003F0
FFFFFE
FFFFFE
FFFFFE
FFFFFE
FFFFFE
FFFFFE
003F00
007E00
007E00
00FC00
01FC00
FFFFFE
FFFFFE
FFFFFE
FFFFFE
FFFFFE
FFFFFE
1FC000
1F8000
3F0000
3F0000
7E0000
FE0000
FC0000
ENDCHAR
STARTCHAR 2264
ENCODING 8804
SWIDTH 600 0
DWIDTH 30 0
BBX 22 33 5 0
BITMAP
000038
0000F8
0003F8
0007F8
001FF8
007FF8
01FFE0
07FF80
1FFE00
7FF800
7FC000
7F0000
7FC000
7FF000
3FFC00
0FFF00
03FFC0
00FFF0
003FF8
000FF8
0003F8
0000F8
000038
000008
000000
000000
000000
000000
000000
FFFFFC
FFFFFC
FFFFFC
FFFFFC
ENDCHAR
STARTCHAR 2265
ENCODING 8805
SWIDTH 640 0
DWIDTH 32 0
BBX 22 33 5 0
BITMAP
700000
7C0000
7F0000
7F8000
7FE000
7FF800
1FFE00
07FF80
01FFE0
007FF8
000FF8
0003F8
000FF8
003FF8
00FFF0
03FFC0
0FFF00
3FFC00
7FF000
7FC000
7F0000
7C0000
700000
400000
000000
000000
000000
000000
000000
FFFFFC
FFFFFC
FFFFFC
FFFFFC
ENDCHAR
ENDFONT
